  0
SECTION
  2
HEADER
  9
$ACADVER
  1
AC1009
  9
$FILLMODE
 70
0
  9
$EXTMIN
 10
-1.0160
 20
-1.0160
 30
0.0000
  9
$EXTMAX
 10
173.6005
 20
196.4585
 30
0.0000
  0
ENDSEC
  0
SECTION
  2
TABLES
  0
TABLE
  2
LTYPE
 70
1
  0
LTYPE
  2
CONTINUOUS
 70
64
  3
Solid line
 72
65
 73
0
 40
0
  0
ENDTAB
  0
TABLE
  2
LAYER
 70
255
  0
LAYER
  2
48
 70
64
 62
6
  6
CONTINUOUS
  0
ENDTAB
  0
ENDSEC
  0
SECTION
  2
BLOCKS
  0
BLOCK
  8
0
  2
RECT
 70
64
 10
0.0000
 20
0.0000
 30
0.0000
  3
RECT
  0
SOLID
  8
0
 10
-0.5000
 20
-0.5000
 30
0.0000
 11
0.5000
 21
-0.5000
 31
0.0000
 12
-0.5000
 22
0.5000
 32
0.0000
 13
0.5000
 23
0.5000
 33
0.0000
  0
ENDBLK
  8
0
  0
BLOCK
  8
0
  2
PIE
 70
64
 10
0.0000
 20
0.0000
 30
0.0000
  3
PIE
  0
CIRCLE
  8
0
 10
0.0000
 20
0.0000
 30
0.0000
 40
0.5000
  0
ENDBLK
  8
0
  0
BLOCK
  8
0
  2
OCTAGONP
 70
64
 10
0.0000
 20
0.0000
 30
0.0000
  3
OCTAGONP
  0
POLYLINE
  8
0
 66
1
 10
0.0000
 20
0.0000
 30
0.0000
 40
0.0000
 41
0.0000
 70
1
  0
VERTEX
  8
0
 10
-0.5000
 20
-0.2071
 30
0.0000
  0
VERTEX
  8
0
 10
-0.5000
 20
0.2071
 30
0.0000
  0
VERTEX
  8
0
 10
-0.2071
 20
0.5000
 30
0.0000
  0
VERTEX
  8
0
 10
0.2071
 20
0.5000
 30
0.0000
  0
VERTEX
  8
0
 10
0.5000
 20
0.2071
 30
0.0000
  0
VERTEX
  8
0
 10
0.5000
 20
-0.2071
 30
0.0000
  0
VERTEX
  8
0
 10
0.2071
 20
-0.5000
 30
0.0000
  0
VERTEX
  8
0
 10
-0.2071
 20
-0.5000
 30
0.0000
  0
SEQEND
  8
0
  0
ENDBLK
  8
0
  0
BLOCK
  8
0
  2
SQUAREP
 70
64
 10
0.0000
 20
0.0000
 30
0.0000
  3
SQUAREP
  0
SOLID
  8
0
 10
-0.5000
 20
-0.5000
 30
0.0000
 11
0.5000
 21
-0.5000
 31
0.0000
 12
-0.5000
 22
0.5000
 32
0.0000
 13
0.5000
 23
0.5000
 33
0.0000
  0
ENDBLK
  8
0
  0
BLOCK
  8
0
  2
ROUNDP
 70
64
 10
0.0000
 20
0.0000
 30
0.0000
  3
ROUNDP
  0
CIRCLE
  8
0
 10
0.0000
 20
0.0000
 30
0.0000
 40
0.5000
  0
ENDBLK
  8
0
  0
BLOCK
  8
0
  2
ANNULUSP
 70
64
 10
0.0000
 20
0.0000
 30
0.0000
  3
ANNULUSP
  0
CIRCLE
  8
0
 10
0.0000
 20
0.0000
 30
0.0000
 40
0.5000
  0
ENDBLK
  8
0
  0
BLOCK
  8
0
  2
THERMALP
 70
64
 10
0.0000
 20
0.0000
 30
0.0000
  3
THERMALP
  0
LINE
  8
0
 10
-0.2379
 20
0.4500
 30
0.0000
 11
0.2379
 21
0.4500
 31
0.0000
  0
LINE
  8
0
 10
0.4500
 20
0.2379
 30
0.0000
 11
0.4500
 21
-0.2379
 31
0.0000
  0
LINE
  8
0
 10
0.2379
 20
-0.4500
 30
0.0000
 11
-0.2379
 21
-0.4500
 31
0.0000
  0
LINE
  8
0
 10
-0.4500
 20
-0.2379
 30
0.0000
 11
-0.4500
 21
0.2379
 31
0.0000
  0
ENDBLK
  8
0
  0
BLOCK
  8
0
  2
OCTAGONV
 70
64
 10
0.0000
 20
0.0000
 30
0.0000
  3
OCTAGONV
  0
POLYLINE
  8
0
 66
1
 10
0.0000
 20
0.0000
 30
0.0000
 40
0.0000
 41
0.0000
 70
1
  0
VERTEX
  8
0
 10
-0.5000
 20
-0.2071
 30
0.0000
  0
VERTEX
  8
0
 10
-0.5000
 20
0.2071
 30
0.0000
  0
VERTEX
  8
0
 10
-0.2071
 20
0.5000
 30
0.0000
  0
VERTEX
  8
0
 10
0.2071
 20
0.5000
 30
0.0000
  0
VERTEX
  8
0
 10
0.5000
 20
0.2071
 30
0.0000
  0
VERTEX
  8
0
 10
0.5000
 20
-0.2071
 30
0.0000
  0
VERTEX
  8
0
 10
0.2071
 20
-0.5000
 30
0.0000
  0
VERTEX
  8
0
 10
-0.2071
 20
-0.5000
 30
0.0000
  0
SEQEND
  8
0
  0
ENDBLK
  8
0
  0
BLOCK
  8
0
  2
SQUAREV
 70
64
 10
0.0000
 20
0.0000
 30
0.0000
  3
SQUAREV
  0
SOLID
  8
0
 10
-0.5000
 20
-0.5000
 30
0.0000
 11
0.5000
 21
-0.5000
 31
0.0000
 12
-0.5000
 22
0.5000
 32
0.0000
 13
0.5000
 23
0.5000
 33
0.0000
  0
ENDBLK
  8
0
  0
BLOCK
  8
0
  2
ROUNDV
 70
64
 10
0.0000
 20
0.0000
 30
0.0000
  3
ROUNDV
  0
CIRCLE
  8
0
 10
0.0000
 20
0.0000
 30
0.0000
 40
0.5000
  0
ENDBLK
  8
0
  0
BLOCK
  8
0
  2
ANNULUSV
 70
64
 10
0.0000
 20
0.0000
 30
0.0000
  3
ANNULUSV
  0
CIRCLE
  8
0
 10
0.0000
 20
0.0000
 30
0.0000
 40
0.5000
  0
ENDBLK
  8
0
  0
BLOCK
  8
0
  2
THERMALV
 70
64
 10
0.0000
 20
0.0000
 30
0.0000
  3
THERMALV
  0
LINE
  8
0
 10
-0.2379
 20
0.4500
 30
0.0000
 11
0.2379
 21
0.4500
 31
0.0000
  0
LINE
  8
0
 10
0.4500
 20
0.2379
 30
0.0000
 11
0.4500
 21
-0.2379
 31
0.0000
  0
LINE
  8
0
 10
0.2379
 20
-0.4500
 30
0.0000
 11
-0.2379
 21
-0.4500
 31
0.0000
  0
LINE
  8
0
 10
-0.4500
 20
-0.2379
 30
0.0000
 11
-0.4500
 21
0.2379
 31
0.0000
  0
ENDBLK
  8
0
  0
ENDSEC
  0
SECTION
  2
ENTITIES
  0
LINE
  8
48
 10
173.6000
 20
0.0000
 30
0.0000
 11
0.0000
 21
0.0000
 31
0.0000
  0
LINE
  8
48
 10
0.0000
 20
0.0000
 30
0.0000
 11
0.0000
 21
196.4580
 31
0.0000
  0
LINE
  8
48
 10
173.6000
 20
196.4580
 30
0.0000
 11
173.6000
 21
0.0000
 31
0.0000
  0
LINE
  8
48
 10
6.0000
 20
76.4000
 30
0.0000
 11
6.0000
 21
98.9000
 31
0.0000
  0
ARC
  8
48
 10
7.0000
 20
98.9000
 30
0.0000
 40
1.0000
 50
90.0000
 51
180.0000
  0
LINE
  8
48
 10
7.0000
 20
99.9000
 30
0.0000
 11
12.0000
 21
99.9000
 31
0.0000
  0
ARC
  8
48
 10
12.0000
 20
98.9000
 30
0.0000
 40
1.0000
 50
270.0000
 51
90.0000
  0
ARC
  8
48
 10
16.0000
 20
98.9000
 30
0.0000
 40
1.0000
 50
90.0000
 51
270.0000
  0
LINE
  8
48
 10
16.0000
 20
99.9000
 30
0.0000
 11
47.0000
 21
99.9000
 31
0.0000
  0
ARC
  8
48
 10
47.0000
 20
98.9000
 30
0.0000
 40
1.0000
 50
270.0000
 51
90.0000
  0
ARC
  8
48
 10
51.0000
 20
98.9000
 30
0.0000
 40
1.0000
 50
90.0000
 51
270.0000
  0
LINE
  8
48
 10
51.0000
 20
99.9000
 30
0.0000
 11
56.8000
 21
99.9000
 31
0.0000
  0
ARC
  8
48
 10
56.8000
 20
100.4000
 30
0.0000
 40
0.5000
 50
270.0000
 51
0.0000
  0
LINE
  8
48
 10
57.3000
 20
100.4000
 30
0.0000
 11
57.3000
 21
102.3000
 31
0.0000
  0
ARC
  8
48
 10
58.3000
 20
102.3000
 30
0.0000
 40
1.0000
 50
0.0000
 51
180.0000
  0
ARC
  8
48
 10
58.3000
 20
106.1000
 30
0.0000
 40
1.0000
 50
180.0000
 51
0.0000
  0
LINE
  8
48
 10
57.3000
 20
106.1000
 30
0.0000
 11
57.3000
 21
135.2000
 31
0.0000
  0
ARC
  8
48
 10
58.3000
 20
135.2000
 30
0.0000
 40
1.0000
 50
0.0000
 51
180.0000
  0
ARC
  8
48
 10
58.3000
 20
139.2000
 30
0.0000
 40
1.0000
 50
180.0000
 51
0.0000
  0
LINE
  8
48
 10
57.3000
 20
139.2000
 30
0.0000
 11
57.3000
 21
155.4420
 31
0.0000
  0
ARC
  8
48
 10
56.8000
 20
155.4420
 30
0.0000
 40
0.5000
 50
0.0000
 51
90.0000
  0
LINE
  8
48
 10
56.8000
 20
155.9420
 30
0.0000
 11
56.5580
 21
155.9420
 31
0.0000
  0
ARC
  8
48
 10
56.5580
 20
156.9420
 30
0.0000
 40
1.0000
 50
180.0000
 51
270.0000
  0
LINE
  8
48
 10
55.5580
 20
156.9420
 30
0.0000
 11
55.5580
 21
158.9420
 31
0.0000
  0
ARC
  8
48
 10
56.5580
 20
158.9420
 30
0.0000
 40
1.0000
 50
0.0000
 51
180.0000
  0
ARC
  8
48
 10
56.5580
 20
162.9420
 30
0.0000
 40
1.0000
 50
180.0000
 51
0.0000
  0
LINE
  8
48
 10
55.5580
 20
162.9420
 30
0.0000
 11
55.5580
 21
173.4580
 31
0.0000
  0
ARC
  8
48
 10
56.5580
 20
173.4580
 30
0.0000
 40
1.0000
 50
0.0000
 51
180.0000
  0
ARC
  8
48
 10
56.5580
 20
177.4580
 30
0.0000
 40
1.0000
 50
180.0000
 51
0.0000
  0
LINE
  8
48
 10
55.5580
 20
177.4580
 30
0.0000
 11
55.5580
 21
189.4580
 31
0.0000
  0
ARC
  8
48
 10
56.5580
 20
189.4580
 30
0.0000
 40
1.0000
 50
90.0000
 51
180.0000
  0
ARC
  8
48
 10
99.3500
 20
189.4580
 30
0.0000
 40
1.0000
 50
0.0000
 51
90.0000
  0
LINE
  8
48
 10
100.3500
 20
189.4580
 30
0.0000
 11
100.3500
 21
187.6000
 31
0.0000
  0
ARC
  8
48
 10
99.3500
 20
187.6000
 30
0.0000
 40
1.0000
 50
180.0000
 51
0.0000
  0
LINE
  8
48
 10
116.7000
 20
182.0000
 30
0.0000
 11
100.8500
 21
182.0000
 31
0.0000
  0
ARC
  8
48
 10
100.8500
 20
182.5000
 30
0.0000
 40
0.5000
 50
180.0000
 51
270.0000
  0
LINE
  8
48
 10
100.3500
 20
182.5000
 30
0.0000
 11
100.3500
 21
183.6000
 31
0.0000
  0
ARC
  8
48
 10
99.3500
 20
183.6000
 30
0.0000
 40
1.0000
 50
0.0000
 51
90.0000
  0
ARC
  8
48
 10
99.3500
 20
183.6000
 30
0.0000
 40
1.0000
 50
90.0000
 51
180.0000
  0
LINE
  8
48
 10
98.3500
 20
183.6000
 30
0.0000
 11
98.3500
 21
181.1000
 31
0.0000
  0
ARC
  8
48
 10
116.7000
 20
182.5000
 30
0.0000
 40
0.5000
 50
270.0000
 51
0.0000
  0
LINE
  8
48
 10
117.2000
 20
182.5000
 30
0.0000
 11
117.2000
 21
188.4000
 31
0.0000
  0
ARC
  8
48
 10
118.2000
 20
188.4000
 30
0.0000
 40
1.0000
 50
90.0000
 51
180.0000
  0
LINE
  8
48
 10
118.2000
 20
189.4000
 30
0.0000
 11
131.0000
 21
189.4000
 31
0.0000
  0
ARC
  8
48
 10
131.0000
 20
188.4000
 30
0.0000
 40
1.0000
 50
0.0000
 51
90.0000
  0
LINE
  8
48
 10
132.0000
 20
188.4000
 30
0.0000
 11
132.0000
 21
186.5000
 31
0.0000
  0
ARC
  8
48
 10
131.0000
 20
186.5000
 30
0.0000
 40
1.0000
 50
270.0000
 51
0.0000
  0
ARC
  8
48
 10
135.0000
 20
186.5000
 30
0.0000
 40
1.0000
 50
180.0000
 51
270.0000
  0
LINE
  8
48
 10
134.0000
 20
186.5000
 30
0.0000
 11
134.0000
 21
188.4000
 31
0.0000
  0
ARC
  8
48
 10
135.0000
 20
188.4000
 30
0.0000
 40
1.0000
 50
90.0000
 51
180.0000
  0
LINE
  8
48
 10
135.0000
 20
189.4000
 30
0.0000
 11
153.0000
 21
189.4000
 31
0.0000
  0
ARC
  8
48
 10
153.0000
 20
188.4000
 30
0.0000
 40
1.0000
 50
0.0000
 51
90.0000
  0
LINE
  8
48
 10
154.0000
 20
188.4000
 30
0.0000
 11
154.0000
 21
186.5000
 31
0.0000
  0
ARC
  8
48
 10
153.0000
 20
186.5000
 30
0.0000
 40
1.0000
 50
270.0000
 51
0.0000
  0
ARC
  8
48
 10
157.0000
 20
186.5000
 30
0.0000
 40
1.0000
 50
180.0000
 51
270.0000
  0
LINE
  8
48
 10
156.0000
 20
186.5000
 30
0.0000
 11
156.0000
 21
188.4000
 31
0.0000
  0
ARC
  8
48
 10
157.0000
 20
188.4000
 30
0.0000
 40
1.0000
 50
90.0000
 51
180.0000
  0
LINE
  8
48
 10
157.0000
 20
189.4000
 30
0.0000
 11
166.6000
 21
189.4000
 31
0.0000
  0
ARC
  8
48
 10
166.6000
 20
188.4000
 30
0.0000
 40
1.0000
 50
0.0000
 51
90.0000
  0
LINE
  8
48
 10
167.6000
 20
188.4000
 30
0.0000
 11
167.6000
 21
178.3000
 31
0.0000
  0
ARC
  8
48
 10
166.6000
 20
178.3000
 30
0.0000
 40
1.0000
 50
270.0000
 51
0.0000
  0
LINE
  8
48
 10
166.6000
 20
177.3000
 30
0.0000
 11
165.6000
 21
177.3000
 31
0.0000
  0
ARC
  8
48
 10
165.6000
 20
176.3000
 30
0.0000
 40
1.0000
 50
90.0000
 51
180.0000
  0
LINE
  8
48
 10
164.6000
 20
176.3000
 30
0.0000
 11
164.6000
 21
158.0000
 31
0.0000
  0
ARC
  8
48
 10
163.6000
 20
158.0000
 30
0.0000
 40
1.0000
 50
270.0000
 51
0.0000
  0
LINE
  8
48
 10
163.6000
 20
157.0000
 30
0.0000
 11
157.0000
 21
157.0000
 31
0.0000
  0
ARC
  8
48
 10
157.0000
 20
158.0000
 30
0.0000
 40
1.0000
 50
180.0000
 51
270.0000
  0
LINE
  8
48
 10
156.0000
 20
158.0000
 30
0.0000
 11
156.0000
 21
159.9000
 31
0.0000
  0
ARC
  8
48
 10
157.0000
 20
159.9000
 30
0.0000
 40
1.0000
 50
90.0000
 51
180.0000
  0
ARC
  8
48
 10
153.0000
 20
159.9000
 30
0.0000
 40
1.0000
 50
0.0000
 51
90.0000
  0
LINE
  8
48
 10
154.0000
 20
159.9000
 30
0.0000
 11
154.0000
 21
158.0000
 31
0.0000
  0
ARC
  8
48
 10
153.0000
 20
158.0000
 30
0.0000
 40
1.0000
 50
270.0000
 51
0.0000
  0
LINE
  8
48
 10
153.0000
 20
157.0000
 30
0.0000
 11
135.0000
 21
157.0000
 31
0.0000
  0
ARC
  8
48
 10
135.0000
 20
158.0000
 30
0.0000
 40
1.0000
 50
180.0000
 51
270.0000
  0
LINE
  8
48
 10
134.0000
 20
158.0000
 30
0.0000
 11
134.0000
 21
159.9000
 31
0.0000
  0
ARC
  8
48
 10
135.0000
 20
159.9000
 30
0.0000
 40
1.0000
 50
90.0000
 51
180.0000
  0
ARC
  8
48
 10
131.0000
 20
159.9000
 30
0.0000
 40
1.0000
 50
0.0000
 51
90.0000
  0
LINE
  8
48
 10
132.0000
 20
159.9000
 30
0.0000
 11
132.0000
 21
158.0000
 31
0.0000
  0
ARC
  8
48
 10
131.0000
 20
158.0000
 30
0.0000
 40
1.0000
 50
270.0000
 51
0.0000
  0
LINE
  8
48
 10
131.0000
 20
157.0000
 30
0.0000
 11
118.2000
 21
157.0000
 31
0.0000
  0
ARC
  8
48
 10
118.2000
 20
158.0000
 30
0.0000
 40
1.0000
 50
180.0000
 51
270.0000
  0
LINE
  8
48
 10
117.2000
 20
158.0000
 30
0.0000
 11
117.2000
 21
166.5000
 31
0.0000
  0
ARC
  8
48
 10
116.7000
 20
166.5000
 30
0.0000
 40
0.5000
 50
0.0000
 51
90.0000
  0
LINE
  8
48
 10
116.7000
 20
167.0000
 30
0.0000
 11
100.8500
 21
167.0000
 31
0.0000
  0
ARC
  8
48
 10
100.8500
 20
166.5000
 30
0.0000
 40
0.5000
 50
90.0000
 51
180.0000
  0
LINE
  8
48
 10
100.3500
 20
166.5000
 30
0.0000
 11
100.3500
 21
166.2000
 31
0.0000
  0
ARC
  8
48
 10
99.3500
 20
166.2000
 30
0.0000
 40
1.0000
 50
270.0000
 51
0.0000
  0
ARC
  8
48
 10
99.3500
 20
166.2000
 30
0.0000
 40
1.0000
 50
180.0000
 51
270.0000
  0
LINE
  8
48
 10
98.3500
 20
166.2000
 30
0.0000
 11
98.3500
 21
168.7000
 31
0.0000
  0
ARC
  8
48
 10
99.3500
 20
162.2000
 30
0.0000
 40
1.0000
 50
0.0000
 51
180.0000
  0
LINE
  8
48
 10
100.3500
 20
162.2000
 30
0.0000
 11
100.3580
 21
154.1000
 31
0.0000
  0
ARC
  8
48
 10
100.8580
 20
154.1000
 30
0.0000
 40
0.5000
 50
180.0000
 51
270.0000
  0
LINE
  8
48
 10
100.8580
 20
153.6000
 30
0.0000
 11
104.3000
 21
153.6000
 31
0.0000
  0
ARC
  8
48
 10
104.3000
 20
152.6000
 30
0.0000
 40
1.0000
 50
270.0000
 51
90.0000
  0
ARC
  8
48
 10
108.3000
 20
152.6000
 30
0.0000
 40
1.0000
 50
90.0000
 51
270.0000
  0
LINE
  8
48
 10
108.3000
 20
153.6000
 30
0.0000
 11
112.3000
 21
153.6000
 31
0.0000
  0
ARC
  8
48
 10
112.3000
 20
152.6000
 30
0.0000
 40
1.0000
 50
0.0000
 51
90.0000
  0
LINE
  8
48
 10
113.3000
 20
152.6000
 30
0.0000
 11
113.3000
 21
110.6000
 31
0.0000
  0
ARC
  8
48
 10
112.3000
 20
110.6000
 30
0.0000
 40
1.0000
 50
180.0000
 51
0.0000
  0
ARC
  8
48
 10
112.3000
 20
106.6000
 30
0.0000
 40
1.0000
 50
0.0000
 51
180.0000
  0
LINE
  8
48
 10
113.3000
 20
106.6000
 30
0.0000
 11
113.3000
 21
83.9000
 31
0.0000
  0
ARC
  8
48
 10
112.3000
 20
83.9000
 30
0.0000
 40
1.0000
 50
180.0000
 51
0.0000
  0
ARC
  8
48
 10
112.3000
 20
77.9000
 30
0.0000
 40
1.0000
 50
0.0000
 51
180.0000
  0
LINE
  8
48
 10
113.3000
 20
77.9000
 30
0.0000
 11
113.3000
 21
47.8000
 31
0.0000
  0
ARC
  8
48
 10
112.3000
 20
47.8000
 30
0.0000
 40
1.0000
 50
180.0000
 51
0.0000
  0
ARC
  8
48
 10
112.3000
 20
43.8000
 30
0.0000
 40
1.0000
 50
0.0000
 51
180.0000
  0
LINE
  8
48
 10
113.3000
 20
43.8000
 30
0.0000
 11
113.3000
 21
16.0000
 31
0.0000
  0
ARC
  8
48
 10
112.3000
 20
16.0000
 30
0.0000
 40
1.0000
 50
180.0000
 51
0.0000
  0
ARC
  8
48
 10
112.3000
 20
12.0000
 30
0.0000
 40
1.0000
 50
0.0000
 51
180.0000
  0
LINE
  8
48
 10
113.3000
 20
12.0000
 30
0.0000
 11
113.3000
 21
7.0000
 31
0.0000
  0
ARC
  8
48
 10
112.3000
 20
7.0000
 30
0.0000
 40
1.0000
 50
270.0000
 51
0.0000
  0
LINE
  8
48
 10
112.3000
 20
6.0000
 30
0.0000
 11
87.3000
 21
6.0000
 31
0.0000
  0
ARC
  8
48
 10
87.3000
 20
7.0000
 30
0.0000
 40
1.0000
 50
90.0000
 51
270.0000
  0
ARC
  8
48
 10
83.3000
 20
7.0000
 30
0.0000
 40
1.0000
 50
270.0000
 51
90.0000
  0
LINE
  8
48
 10
83.3000
 20
6.0000
 30
0.0000
 11
58.3000
 21
6.0000
 31
0.0000
  0
ARC
  8
48
 10
58.3000
 20
7.0000
 30
0.0000
 40
1.0000
 50
180.0000
 51
270.0000
  0
LINE
  8
48
 10
57.3000
 20
7.0000
 30
0.0000
 11
57.3000
 21
12.0000
 31
0.0000
  0
ARC
  8
48
 10
58.3000
 20
12.0000
 30
0.0000
 40
1.0000
 50
0.0000
 51
180.0000
  0
ARC
  8
48
 10
58.3000
 20
16.0000
 30
0.0000
 40
1.0000
 50
180.0000
 51
0.0000
  0
LINE
  8
48
 10
57.3000
 20
16.0000
 30
0.0000
 11
57.3000
 21
54.5000
 31
0.0000
  0
ARC
  8
48
 10
58.3000
 20
54.5000
 30
0.0000
 40
1.0000
 50
0.0000
 51
180.0000
  0
ARC
  8
48
 10
58.3000
 20
58.5000
 30
0.0000
 40
1.0000
 50
180.0000
 51
0.0000
  0
LINE
  8
48
 10
57.3000
 20
58.5000
 30
0.0000
 11
57.3000
 21
61.4000
 31
0.0000
  0
ARC
  8
48
 10
56.8000
 20
61.4000
 30
0.0000
 40
0.5000
 50
0.0000
 51
90.0000
  0
LINE
  8
48
 10
56.8000
 20
61.9000
 30
0.0000
 11
51.0000
 21
61.9000
 31
0.0000
  0
ARC
  8
48
 10
51.0000
 20
62.9000
 30
0.0000
 40
1.0000
 50
90.0000
 51
270.0000
  0
ARC
  8
48
 10
47.0000
 20
62.9000
 30
0.0000
 40
1.0000
 50
270.0000
 51
90.0000
  0
LINE
  8
48
 10
47.0000
 20
61.9000
 30
0.0000
 11
28.2520
 21
61.9000
 31
0.0000
  0
ARC
  8
48
 10
28.2520
 20
62.9000
 30
0.0000
 40
1.0000
 50
90.0000
 51
270.0000
  0
ARC
  8
48
 10
24.2520
 20
62.9000
 30
0.0000
 40
1.0000
 50
270.0000
 51
90.0000
  0
LINE
  8
48
 10
24.2520
 20
61.9000
 30
0.0000
 11
19.2520
 21
61.9000
 31
0.0000
  0
ARC
  8
48
 10
19.2520
 20
62.9000
 30
0.0000
 40
1.0000
 50
180.0000
 51
270.0000
  0
LINE
  8
48
 10
18.2520
 20
62.9000
 30
0.0000
 11
18.2520
 21
71.4000
 31
0.0000
  0
ARC
  8
48
 10
14.2520
 20
71.4000
 30
0.0000
 40
4.0000
 50
0.0000
 51
90.0000
  0
LINE
  8
48
 10
14.2520
 20
75.4000
 30
0.0000
 11
7.0000
 21
75.4000
 31
0.0000
  0
ARC
  8
48
 10
7.0000
 20
76.4000
 30
0.0000
 40
1.0000
 50
180.0000
 51
270.0000
  0
LINE
  8
48
 10
65.0000
 20
99.1000
 30
0.0000
 11
65.0000
 21
97.1580
 31
0.0000
  0
ARC
  8
48
 10
64.0000
 20
97.1580
 30
0.0000
 40
1.0000
 50
270.0000
 51
0.0000
  0
ARC
  8
48
 10
68.0000
 20
97.1580
 30
0.0000
 40
1.0000
 50
180.0000
 51
270.0000
  0
LINE
  8
48
 10
67.0000
 20
97.1580
 30
0.0000
 11
67.0000
 21
99.1000
 31
0.0000
  0
ARC
  8
48
 10
68.0000
 20
99.1000
 30
0.0000
 40
1.0000
 50
90.0000
 51
180.0000
  0
ARC
  8
48
 10
64.0000
 20
99.1000
 30
0.0000
 40
1.0000
 50
0.0000
 51
90.0000
  0
LINE
  8
48
 10
65.0000
 20
64.6420
 30
0.0000
 11
65.0000
 21
63.5000
 31
0.0000
  0
ARC
  8
48
 10
64.0000
 20
63.5000
 30
0.0000
 40
1.0000
 50
270.0000
 51
0.0000
  0
ARC
  8
48
 10
68.0000
 20
63.5000
 30
0.0000
 40
1.0000
 50
180.0000
 51
270.0000
  0
LINE
  8
48
 10
67.0000
 20
63.5000
 30
0.0000
 11
67.0000
 21
64.6420
 31
0.0000
  0
ARC
  8
48
 10
68.0000
 20
64.6420
 30
0.0000
 40
1.0000
 50
90.0000
 51
180.0000
  0
ARC
  8
48
 10
64.0000
 20
64.6420
 30
0.0000
 40
1.0000
 50
0.0000
 51
90.0000
  0
LINE
  8
48
 10
62.5000
 20
95.6580
 30
0.0000
 11
62.5000
 21
91.1000
 31
0.0000
  0
ARC
  8
48
 10
62.0000
 20
91.1000
 30
0.0000
 40
0.5000
 50
270.0000
 51
0.0000
  0
LINE
  8
48
 10
62.0000
 20
90.6000
 30
0.0000
 11
55.5000
 21
90.6000
 31
0.0000
  0
ARC
  8
48
 10
55.5000
 20
91.1000
 30
0.0000
 40
0.5000
 50
180.0000
 51
270.0000
  0
LINE
  8
48
 10
55.0000
 20
91.1000
 30
0.0000
 11
55.0000
 21
97.4000
 31
0.0000
  0
ARC
  8
48
 10
54.5000
 20
97.4000
 30
0.0000
 40
0.5000
 50
0.0000
 51
90.0000
  0
ARC
  8
48
 10
8.5000
 20
97.4000
 30
0.0000
 40
0.5000
 50
90.0000
 51
180.0000
  0
LINE
  8
48
 10
8.0000
 20
97.4000
 30
0.0000
 11
8.0000
 21
79.4000
 31
0.0000
  0
ARC
  8
48
 10
10.0000
 20
79.4000
 30
0.0000
 40
2.0000
 50
180.0000
 51
270.0000
  0
LINE
  8
48
 10
10.0000
 20
77.4000
 30
0.0000
 11
14.2520
 21
77.4000
 31
0.0000
  0
ARC
  8
48
 10
14.2520
 20
71.4000
 30
0.0000
 40
6.0000
 50
0.0000
 51
90.0000
  0
LINE
  8
48
 10
20.2520
 20
71.4000
 30
0.0000
 11
20.2520
 21
65.9000
 31
0.0000
  0
ARC
  8
48
 10
22.2520
 20
65.9000
 30
0.0000
 40
2.0000
 50
180.0000
 51
270.0000
  0
ARC
  8
48
 10
54.5000
 20
64.4000
 30
0.0000
 40
0.5000
 50
270.0000
 51
0.0000
  0
LINE
  8
48
 10
55.0000
 20
64.4000
 30
0.0000
 11
55.0000
 21
68.8000
 31
0.0000
  0
ARC
  8
48
 10
55.5000
 20
68.8000
 30
0.0000
 40
0.5000
 50
90.0000
 51
180.0000
  0
LINE
  8
48
 10
55.5000
 20
69.3000
 30
0.0000
 11
62.0000
 21
69.3000
 31
0.0000
  0
ARC
  8
48
 10
62.0000
 20
68.8000
 30
0.0000
 40
0.5000
 50
0.0000
 51
90.0000
  0
LINE
  8
48
 10
62.5000
 20
68.8000
 30
0.0000
 11
62.5000
 21
66.1420
 31
0.0000
  0
ARC
  8
48
 10
63.0000
 20
66.1420
 30
0.0000
 40
0.5000
 50
180.0000
 51
270.0000
  0
ARC
  8
48
 10
69.3000
 20
66.1420
 30
0.0000
 40
0.5000
 50
270.0000
 51
0.0000
  0
LINE
  8
48
 10
69.8000
 20
66.1420
 30
0.0000
 11
69.8000
 21
68.2000
 31
0.0000
  0
ARC
  8
48
 10
110.8000
 20
8.5000
 30
0.0000
 40
0.5000
 50
270.0000
 51
0.0000
  0
ARC
  8
48
 10
59.8000
 20
8.5000
 30
0.0000
 40
0.5000
 50
180.0000
 51
270.0000
  0
ARC
  8
48
 10
59.8000
 20
62.0000
 30
0.0000
 40
0.5000
 50
90.0000
 51
180.0000
  0
ARC
  8
48
 10
69.3000
 20
62.0000
 30
0.0000
 40
0.5000
 50
0.0000
 51
90.0000
  0
LINE
  8
48
 10
69.8000
 20
62.0000
 30
0.0000
 11
69.8000
 21
55.7000
 31
0.0000
  0
ARC
  8
48
 10
70.3000
 20
55.7000
 30
0.0000
 40
0.5000
 50
180.0000
 51
270.0000
  0
LINE
  8
48
 10
70.3000
 20
68.7000
 30
0.0000
 11
71.8000
 21
68.7000
 31
0.0000
  0
ARC
  8
48
 10
71.8000
 20
68.2000
 30
0.0000
 40
0.5000
 50
0.0000
 51
90.0000
  0
LINE
  8
48
 10
72.3000
 20
68.2000
 30
0.0000
 11
72.3000
 21
55.7000
 31
0.0000
  0
ARC
  8
48
 10
71.8000
 20
55.7000
 30
0.0000
 40
0.5000
 50
270.0000
 51
0.0000
  0
LINE
  8
48
 10
71.8000
 20
55.2000
 30
0.0000
 11
70.3000
 21
55.2000
 31
0.0000
  0
ARC
  8
48
 10
110.8000
 20
54.7000
 30
0.0000
 40
0.5000
 50
0.0000
 51
90.0000
  0
LINE
  8
48
 10
92.7000
 20
152.1000
 30
0.0000
 11
92.7000
 21
160.5000
 31
0.0000
  0
ARC
  8
48
 10
93.2000
 20
160.5000
 30
0.0000
 40
0.5000
 50
90.0000
 51
180.0000
  0
LINE
  8
48
 10
93.2000
 20
161.0000
 30
0.0000
 11
97.8500
 21
161.0000
 31
0.0000
  0
ARC
  8
48
 10
93.2000
 20
152.1000
 30
0.0000
 40
0.5000
 50
180.0000
 51
270.0000
  0
ARC
  8
48
 10
97.8500
 20
161.5000
 30
0.0000
 40
0.5000
 50
270.0000
 51
0.0000
  0
ARC
  8
48
 10
98.8500
 20
168.7000
 30
0.0000
 40
0.5000
 50
90.0000
 51
180.0000
  0
LINE
  8
48
 10
98.8500
 20
169.2000
 30
0.0000
 11
122.1000
 21
169.2000
 31
0.0000
  0
ARC
  8
48
 10
122.1000
 20
168.7000
 30
0.0000
 40
0.5000
 50
0.0000
 51
90.0000
  0
LINE
  8
48
 10
122.6000
 20
168.7000
 30
0.0000
 11
122.6000
 21
164.6000
 31
0.0000
  0
ARC
  8
48
 10
122.1000
 20
164.6000
 30
0.0000
 40
0.5000
 50
270.0000
 51
0.0000
  0
LINE
  8
48
 10
122.1000
 20
164.1000
 30
0.0000
 11
119.7000
 21
164.1000
 31
0.0000
  0
ARC
  8
48
 10
119.7000
 20
163.6000
 30
0.0000
 40
0.5000
 50
90.0000
 51
180.0000
  0
LINE
  8
48
 10
119.2000
 20
163.6000
 30
0.0000
 11
119.2000
 21
159.5000
 31
0.0000
  0
ARC
  8
48
 10
119.7000
 20
159.5000
 30
0.0000
 40
0.5000
 50
180.0000
 51
270.0000
  0
LINE
  8
48
 10
124.2000
 20
160.4000
 30
0.0000
 11
124.2000
 21
159.5000
 31
0.0000
  0
ARC
  8
48
 10
123.7000
 20
159.5000
 30
0.0000
 40
0.5000
 50
270.0000
 51
0.0000
  0
LINE
  8
48
 10
123.7000
 20
159.0000
 30
0.0000
 11
119.7000
 21
159.0000
 31
0.0000
  0
LINE
  8
48
 10
162.6000
 20
161.4000
 30
0.0000
 11
162.6000
 21
178.8000
 31
0.0000
  0
ARC
  8
48
 10
163.1000
 20
178.8000
 30
0.0000
 40
0.5000
 50
90.0000
 51
180.0000
  0
LINE
  8
48
 10
163.1000
 20
179.3000
 30
0.0000
 11
165.1000
 21
179.3000
 31
0.0000
  0
ARC
  8
48
 10
165.1000
 20
179.8000
 30
0.0000
 40
0.5000
 50
270.0000
 51
0.0000
  0
LINE
  8
48
 10
165.6000
 20
179.8000
 30
0.0000
 11
165.6000
 21
185.0000
 31
0.0000
  0
ARC
  8
48
 10
165.1000
 20
185.0000
 30
0.0000
 40
0.5000
 50
0.0000
 51
90.0000
  0
LINE
  8
48
 10
139.7000
 20
159.9000
 30
0.0000
 11
143.2000
 21
159.9000
 31
0.0000
  0
ARC
  8
48
 10
143.2000
 20
160.4000
 30
0.0000
 40
0.5000
 50
270.0000
 51
0.0000
  0
ARC
  8
48
 10
144.2000
 20
160.4000
 30
0.0000
 40
0.5000
 50
90.0000
 51
180.0000
  0
ARC
  8
48
 10
162.1000
 20
161.4000
 30
0.0000
 40
0.5000
 50
270.0000
 51
0.0000
  0
ARC
  8
48
 10
139.7000
 20
160.4000
 30
0.0000
 40
0.5000
 50
180.0000
 51
270.0000
  0
ARC
  8
48
 10
138.7000
 20
160.4000
 30
0.0000
 40
0.5000
 50
0.0000
 51
90.0000
  0
ARC
  8
48
 10
124.7000
 20
160.4000
 30
0.0000
 40
0.5000
 50
90.0000
 51
180.0000
  0
LINE
  8
48
 10
122.1000
 20
180.6000
 30
0.0000
 11
98.8500
 21
180.6000
 31
0.0000
  0
ARC
  8
48
 10
98.8500
 20
181.1000
 30
0.0000
 40
0.5000
 50
180.0000
 51
270.0000
  0
ARC
  8
48
 10
97.8500
 20
187.9580
 30
0.0000
 40
0.5000
 50
0.0000
 51
90.0000
  0
ARC
  8
48
 10
122.1000
 20
181.1000
 30
0.0000
 40
0.5000
 50
270.0000
 51
0.0000
  0
LINE
  8
48
 10
122.6000
 20
181.1000
 30
0.0000
 11
122.6000
 21
181.8000
 31
0.0000
  0
ARC
  8
48
 10
58.0580
 20
187.9580
 30
0.0000
 40
0.5000
 50
90.0000
 51
180.0000
  0
ARC
  8
48
 10
122.1000
 20
181.8000
 30
0.0000
 40
0.5000
 50
0.0000
 51
90.0000
  0
LINE
  8
48
 10
122.1000
 20
182.3000
 30
0.0000
 11
119.7000
 21
182.3000
 31
0.0000
  0
ARC
  8
48
 10
119.7000
 20
182.8000
 30
0.0000
 40
0.5000
 50
180.0000
 51
270.0000
  0
LINE
  8
48
 10
119.2000
 20
182.8000
 30
0.0000
 11
119.2000
 21
186.9000
 31
0.0000
  0
LINE
  8
48
 10
70.3000
 20
102.6000
 30
0.0000
 11
71.8000
 21
102.6000
 31
0.0000
  0
ARC
  8
48
 10
71.8000
 20
102.1000
 30
0.0000
 40
0.5000
 50
0.0000
 51
90.0000
  0
LINE
  8
48
 10
72.3000
 20
102.1000
 30
0.0000
 11
72.3000
 21
93.6000
 31
0.0000
  0
ARC
  8
48
 10
71.8000
 20
93.6000
 30
0.0000
 40
0.5000
 50
270.0000
 51
0.0000
  0
LINE
  8
48
 10
71.8000
 20
93.1000
 30
0.0000
 11
70.3000
 21
93.1000
 31
0.0000
  0
ARC
  8
48
 10
70.3000
 20
102.1000
 30
0.0000
 40
0.5000
 50
90.0000
 51
180.0000
  0
LINE
  8
48
 10
69.8000
 20
102.1000
 30
0.0000
 11
69.8000
 21
100.6000
 31
0.0000
  0
ARC
  8
48
 10
69.3000
 20
100.6000
 30
0.0000
 40
0.5000
 50
270.0000
 51
0.0000
  0
ARC
  8
48
 10
59.8000
 20
100.6000
 30
0.0000
 40
0.5000
 50
180.0000
 51
270.0000
  0
ARC
  8
48
 10
59.8000
 20
154.1000
 30
0.0000
 40
0.5000
 50
90.0000
 51
180.0000
  0
LINE
  8
48
 10
59.8000
 20
154.6000
 30
0.0000
 11
64.7000
 21
154.6000
 31
0.0000
  0
ARC
  8
48
 10
64.7000
 20
154.1000
 30
0.0000
 40
0.5000
 50
0.0000
 51
90.0000
  0
LINE
  8
48
 10
65.2000
 20
154.1000
 30
0.0000
 11
65.2000
 21
152.1000
 31
0.0000
  0
ARC
  8
48
 10
65.7000
 20
152.1000
 30
0.0000
 40
0.5000
 50
180.0000
 51
270.0000
  0
LINE
  8
48
 10
65.7000
 20
161.0000
 30
0.0000
 11
67.0000
 21
161.0000
 31
0.0000
  0
ARC
  8
48
 10
67.0000
 20
160.5000
 30
0.0000
 40
0.5000
 50
0.0000
 51
90.0000
  0
LINE
  8
48
 10
67.5000
 20
160.5000
 30
0.0000
 11
67.5000
 21
152.1000
 31
0.0000
  0
ARC
  8
48
 10
67.0000
 20
152.1000
 30
0.0000
 40
0.5000
 50
270.0000
 51
0.0000
  0
LINE
  8
48
 10
67.0000
 20
151.6000
 30
0.0000
 11
65.7000
 21
151.6000
 31
0.0000
  0
ARC
  8
48
 10
110.3000
 20
150.6000
 30
0.0000
 40
1.0000
 50
0.0000
 51
90.0000
  0
ARC
  8
48
 10
110.8000
 20
103.1000
 30
0.0000
 40
0.5000
 50
270.0000
 51
0.0000
  0
LINE
  8
48
 10
69.8000
 20
93.6000
 30
0.0000
 11
69.8000
 21
95.6580
 31
0.0000
  0
ARC
  8
48
 10
69.3000
 20
95.6580
 30
0.0000
 40
0.5000
 50
0.0000
 51
90.0000
  0
ARC
  8
48
 10
63.0000
 20
95.6580
 30
0.0000
 40
0.5000
 50
90.0000
 51
180.0000
  0
ARC
  8
48
 10
70.3000
 20
68.2000
 30
0.0000
 40
0.5000
 50
90.0000
 51
180.0000
  0
ARC
  8
48
 10
110.8000
 20
69.2000
 30
0.0000
 40
0.5000
 50
270.0000
 51
0.0000
  0
ARC
  8
48
 10
110.8000
 20
92.6000
 30
0.0000
 40
0.5000
 50
0.0000
 51
90.0000
  0
ARC
  8
48
 10
70.3000
 20
93.6000
 30
0.0000
 40
0.5000
 50
180.0000
 51
270.0000
  0
LINE
  8
48
 10
110.8000
 20
55.2000
 30
0.0000
 11
110.3000
 21
55.2000
 31
0.0000
  0
ARC
  8
48
 10
110.3000
 20
55.7000
 30
0.0000
 40
0.5000
 50
180.0000
 51
270.0000
  0
LINE
  8
48
 10
109.8000
 20
55.7000
 30
0.0000
 11
109.8000
 21
68.2000
 31
0.0000
  0
ARC
  8
48
 10
110.3000
 20
68.2000
 30
0.0000
 40
0.5000
 50
90.0000
 51
180.0000
  0
LINE
  8
48
 10
110.3000
 20
68.7000
 30
0.0000
 11
110.8000
 21
68.7000
 31
0.0000
  0
LINE
  8
48
 10
109.8000
 20
93.6000
 30
0.0000
 11
109.8000
 21
102.1000
 31
0.0000
  0
ARC
  8
48
 10
110.3000
 20
102.1000
 30
0.0000
 40
0.5000
 50
90.0000
 51
180.0000
  0
LINE
  8
48
 10
110.3000
 20
102.6000
 30
0.0000
 11
110.8000
 21
102.6000
 31
0.0000
  0
ARC
  8
48
 10
110.3000
 20
93.6000
 30
0.0000
 40
0.5000
 50
180.0000
 51
270.0000
  0
LINE
  8
48
 10
110.3000
 20
93.1000
 30
0.0000
 11
110.8000
 21
93.1000
 31
0.0000
  0
ARC
  8
48
 10
58.0580
 20
158.4420
 30
0.0000
 40
0.5000
 50
180.0000
 51
270.0000
  0
LINE
  8
48
 10
58.0580
 20
157.9420
 30
0.0000
 11
64.7000
 21
157.9420
 31
0.0000
  0
ARC
  8
48
 10
64.7000
 20
158.4420
 30
0.0000
 40
0.5000
 50
270.0000
 51
0.0000
  0
LINE
  8
48
 10
65.2000
 20
158.4420
 30
0.0000
 11
65.2000
 21
160.5000
 31
0.0000
  0
ARC
  8
48
 10
65.7000
 20
160.5000
 30
0.0000
 40
0.5000
 50
90.0000
 51
180.0000
  0
ARC
  8
48
 10
119.7000
 20
186.9000
 30
0.0000
 40
0.5000
 50
90.0000
 51
180.0000
  0
ARC
  8
48
 10
144.2000
 20
186.0000
 30
0.0000
 40
0.5000
 50
180.0000
 51
270.0000
  0
ARC
  8
48
 10
143.2000
 20
186.0000
 30
0.0000
 40
0.5000
 50
0.0000
 51
90.0000
  0
LINE
  8
48
 10
143.2000
 20
186.5000
 30
0.0000
 11
139.7000
 21
186.5000
 31
0.0000
  0
ARC
  8
48
 10
139.7000
 20
186.0000
 30
0.0000
 40
0.5000
 50
90.0000
 51
180.0000
  0
ARC
  8
48
 10
138.7000
 20
186.0000
 30
0.0000
 40
0.5000
 50
270.0000
 51
0.0000
  0
ARC
  8
48
 10
124.7000
 20
186.0000
 30
0.0000
 40
0.5000
 50
180.0000
 51
270.0000
  0
LINE
  8
48
 10
124.2000
 20
186.0000
 30
0.0000
 11
124.2000
 21
186.9000
 31
0.0000
  0
ARC
  8
48
 10
123.7000
 20
186.9000
 30
0.0000
 40
0.5000
 50
0.0000
 51
90.0000
  0
LINE
  8
48
 10
123.7000
 20
187.4000
 30
0.0000
 11
119.7000
 21
187.4000
 31
0.0000
  0
LINE
  8
48
 10
8.5000
 20
97.9000
 30
0.0000
 11
12.0000
 21
97.9000
 31
0.0000
  0
LINE
  8
48
 10
16.0000
 20
97.9000
 30
0.0000
 11
47.0000
 21
97.9000
 31
0.0000
  0
LINE
  8
48
 10
24.2520
 20
63.9000
 30
0.0000
 11
22.2520
 21
63.9000
 31
0.0000
  0
LINE
  8
48
 10
47.0000
 20
63.9000
 30
0.0000
 11
28.2520
 21
63.9000
 31
0.0000
  0
LINE
  8
48
 10
51.0000
 20
63.9000
 30
0.0000
 11
54.5000
 21
63.9000
 31
0.0000
  0
LINE
  8
48
 10
59.8000
 20
62.5000
 30
0.0000
 11
64.0000
 21
62.5000
 31
0.0000
  0
LINE
  8
48
 10
68.0000
 20
62.5000
 30
0.0000
 11
69.3000
 21
62.5000
 31
0.0000
  0
LINE
  8
48
 10
63.0000
 20
65.6420
 30
0.0000
 11
64.0000
 21
65.6420
 31
0.0000
  0
LINE
  8
48
 10
68.0000
 20
65.6420
 30
0.0000
 11
69.3000
 21
65.6420
 31
0.0000
  0
LINE
  8
48
 10
59.3000
 20
16.0000
 30
0.0000
 11
59.3000
 21
54.5000
 31
0.0000
  0
LINE
  8
48
 10
59.3000
 20
8.5000
 30
0.0000
 11
59.3000
 21
12.0000
 31
0.0000
  0
LINE
  8
48
 10
83.3000
 20
8.0000
 30
0.0000
 11
59.8000
 21
8.0000
 31
0.0000
  0
LINE
  8
48
 10
110.8000
 20
8.0000
 30
0.0000
 11
87.3000
 21
8.0000
 31
0.0000
  0
LINE
  8
48
 10
111.3000
 20
12.0000
 30
0.0000
 11
111.3000
 21
8.5000
 31
0.0000
  0
LINE
  8
48
 10
111.3000
 20
43.8000
 30
0.0000
 11
111.3000
 21
16.0000
 31
0.0000
  0
LINE
  8
48
 10
111.3000
 20
54.7000
 30
0.0000
 11
111.3000
 21
47.8000
 31
0.0000
  0
LINE
  8
48
 10
111.3000
 20
77.9000
 30
0.0000
 11
111.3000
 21
69.2000
 31
0.0000
  0
LINE
  8
48
 10
59.3000
 20
58.5000
 30
0.0000
 11
59.3000
 21
62.0000
 31
0.0000
  0
LINE
  8
48
 10
51.0000
 20
97.9000
 30
0.0000
 11
54.5000
 21
97.9000
 31
0.0000
  0
LINE
  8
48
 10
59.3000
 20
100.6000
 30
0.0000
 11
59.3000
 21
102.3000
 31
0.0000
  0
LINE
  8
48
 10
59.8000
 20
100.1000
 30
0.0000
 11
64.0000
 21
100.1000
 31
0.0000
  0
LINE
  8
48
 10
63.0000
 20
96.1580
 30
0.0000
 11
64.0000
 21
96.1580
 31
0.0000
  0
LINE
  8
48
 10
68.0000
 20
96.1580
 30
0.0000
 11
69.3000
 21
96.1580
 31
0.0000
  0
LINE
  8
48
 10
68.0000
 20
100.1000
 30
0.0000
 11
69.3000
 21
100.1000
 31
0.0000
  0
LINE
  8
48
 10
111.3000
 20
92.6000
 30
0.0000
 11
111.3000
 21
83.9000
 31
0.0000
  0
LINE
  8
48
 10
111.3000
 20
106.6000
 30
0.0000
 11
111.3000
 21
103.1000
 31
0.0000
  0
LINE
  8
48
 10
111.3000
 20
150.6000
 30
0.0000
 11
111.3000
 21
110.6000
 31
0.0000
  0
LINE
  8
48
 10
108.3000
 20
151.6000
 30
0.0000
 11
110.3000
 21
151.6000
 31
0.0000
  0
LINE
  8
48
 10
93.2000
 20
151.6000
 30
0.0000
 11
104.3000
 21
151.6000
 31
0.0000
  0
LINE
  8
48
 10
98.3500
 20
161.5000
 30
0.0000
 11
98.3500
 21
162.2000
 31
0.0000
  0
LINE
  8
48
 10
59.3000
 20
106.1000
 30
0.0000
 11
59.3000
 21
135.2000
 31
0.0000
  0
LINE
  8
48
 10
59.3000
 20
139.2000
 30
0.0000
 11
59.3000
 21
154.1000
 31
0.0000
  0
LINE
  8
48
 10
57.5580
 20
158.4420
 30
0.0000
 11
57.5580
 21
158.9420
 31
0.0000
  0
LINE
  8
48
 10
57.5580
 20
162.9420
 30
0.0000
 11
57.5580
 21
173.4580
 31
0.0000
  0
LINE
  8
48
 10
57.5580
 20
177.4580
 30
0.0000
 11
57.5580
 21
187.9580
 31
0.0000
  0
LINE
  8
48
 10
98.3500
 20
187.9580
 30
0.0000
 11
98.3500
 21
187.6000
 31
0.0000
  0
LINE
  8
48
 10
124.7000
 20
185.5000
 30
0.0000
 11
131.0000
 21
185.5000
 31
0.0000
  0
LINE
  8
48
 10
135.0000
 20
185.5000
 30
0.0000
 11
138.7000
 21
185.5000
 31
0.0000
  0
LINE
  8
48
 10
144.2000
 20
185.5000
 30
0.0000
 11
153.0000
 21
185.5000
 31
0.0000
  0
LINE
  8
48
 10
157.0000
 20
185.5000
 30
0.0000
 11
165.1000
 21
185.5000
 31
0.0000
  0
LINE
  8
48
 10
131.0000
 20
160.9000
 30
0.0000
 11
124.7000
 21
160.9000
 31
0.0000
  0
LINE
  8
48
 10
138.7000
 20
160.9000
 30
0.0000
 11
135.0000
 21
160.9000
 31
0.0000
  0
LINE
  8
48
 10
153.0000
 20
160.9000
 30
0.0000
 11
144.2000
 21
160.9000
 31
0.0000
  0
LINE
  8
48
 10
162.1000
 20
160.9000
 30
0.0000
 11
157.0000
 21
160.9000
 31
0.0000
  0
LINE
  8
48
 10
0.0000
 20
196.4580
 30
0.0000
 11
173.6000
 21
196.4580
 31
0.0000
  0
ARC
  8
48
 10
81.7000
 20
189.4580
 30
0.0000
 40
1.0000
 50
90.0000
 51
270.0000
  0
ARC
  8
48
 10
77.7000
 20
189.4580
 30
0.0000
 40
1.0000
 50
270.0000
 51
90.0000
  0
LINE
  8
48
 10
99.3500
 20
190.4580
 30
0.0000
 11
81.7000
 21
190.4580
 31
0.0000
  0
LINE
  8
48
 10
97.8500
 20
188.4580
 30
0.0000
 11
81.7000
 21
188.4580
 31
0.0000
  0
LINE
  8
48
 10
77.7000
 20
190.4580
 30
0.0000
 11
56.5580
 21
190.4580
 31
0.0000
  0
LINE
  8
48
 10
77.7000
 20
188.4580
 30
0.0000
 11
58.0580
 21
188.4580
 31
0.0000
  0
CIRCLE
  8
48
 10
168.6000
 20
191.4580
 30
0.0000
 40
1.6500
  0
CIRCLE
  8
48
 10
5.0000
 20
191.4580
 30
0.0000
 40
1.6500
  0
CIRCLE
  8
48
 10
5.0000
 20
5.0000
 30
0.0000
 40
1.6500
  0
CIRCLE
  8
48
 10
168.6000
 20
5.0000
 30
0.0000
 40
1.6500
  0
CIRCLE
  8
48
 10
30.0000
 20
30.0000
 30
0.0000
 40
2.8000
  0
CIRCLE
  8
48
 10
143.6000
 20
30.0000
 30
0.0000
 40
2.8000
  0
CIRCLE
  8
48
 10
143.6000
 20
85.0000
 30
0.0000
 40
2.8000
  0
CIRCLE
  8
48
 10
30.0000
 20
120.0000
 30
0.0000
 40
2.8000
  0
CIRCLE
  8
48
 10
143.6000
 20
140.0000
 30
0.0000
 40
2.8000
  0
CIRCLE
  8
48
 10
30.0000
 20
180.0000
 30
0.0000
 40
2.8000
  0
ENDSEC
  0
EOF
