  0
SECTION
  2
HEADER
  9
$ACADVER
  1
AC1018
  9
$ACADMAINTVER
 70
     0
  9
$DWGCODEPAGE
  3
ANSI_1252
  9
$INSBASE
 10
0.0
 20
0.0
 30
0.0
  9
$EXTMIN
 10
1.000000000000000E+20
 20
1.000000000000000E+20
 30
1.000000000000000E+20
  9
$EXTMAX
 10
-1.000000000000000E+20
 20
-1.000000000000000E+20
 30
-1.000000000000000E+20
  9
$LIMMIN
 10
0.0
 20
0.0
  9
$LIMMAX
 10
12.0
 20
9.0
  9
$ORTHOMODE
 70
     0
  9
$REGENMODE
 70
     1
  9
$FILLMODE
 70
     1
  9
$QTEXTMODE
 70
     0
  9
$MIRRTEXT
 70
     1
  9
$LTSCALE
 40
1.0
  9
$ATTMODE
 70
     1
  9
$TEXTSIZE
 40
0.2
  9
$TRACEWID
 40
0.05
  9
$TEXTSTYLE
  7
Standard
  9
$CLAYER
  8
0
  9
$CELTYPE
  6
ByLayer
  9
$CECOLOR
 62
   256
  9
$CELTSCALE
 40
1.0
  9
$DISPSILH
 70
     0
  9
$DIMSCALE
 40
1.0
  9
$DIMASZ
 40
0.18
  9
$DIMEXO
 40
0.0625
  9
$DIMDLI
 40
0.38
  9
$DIMRND
 40
0.0
  9
$DIMDLE
 40
0.0
  9
$DIMEXE
 40
0.18
  9
$DIMTP
 40
0.0
  9
$DIMTM
 40
0.0
  9
$DIMTXT
 40
0.18
  9
$DIMCEN
 40
0.09
  9
$DIMTSZ
 40
0.0
  9
$DIMTOL
 70
     0
  9
$DIMLIM
 70
     0
  9
$DIMTIH
 70
     1
  9
$DIMTOH
 70
     1
  9
$DIMSE1
 70
     0
  9
$DIMSE2
 70
     0
  9
$DIMTAD
 70
     0
  9
$DIMZIN
 70
     0
  9
$DIMBLK
  1

  9
$DIMASO
 70
     1
  9
$DIMSHO
 70
     1
  9
$DIMPOST
  1

  9
$DIMAPOST
  1

  9
$DIMALT
 70
     0
  9
$DIMALTD
 70
     2
  9
$DIMALTF
 40
25.4
  9
$DIMLFAC
 40
1.0
  9
$DIMTOFL
 70
     0
  9
$DIMTVP
 40
0.0
  9
$DIMTIX
 70
     0
  9
$DIMSOXD
 70
     0
  9
$DIMSAH
 70
     0
  9
$DIMBLK1
  1

  9
$DIMBLK2
  1

  9
$DIMSTYLE
  2
Standard
  9
$DIMCLRD
 70
     0
  9
$DIMCLRE
 70
     0
  9
$DIMCLRT
 70
     0
  9
$DIMTFAC
 40
1.0
  9
$DIMGAP
 40
0.09
  9
$DIMJUST
 70
     0
  9
$DIMSD1
 70
     0
  9
$DIMSD2
 70
     0
  9
$DIMTOLJ
 70
     1
  9
$DIMTZIN
 70
     0
  9
$DIMALTZ
 70
     0
  9
$DIMALTTZ
 70
     0
  9
$DIMUPT
 70
     0
  9
$DIMDEC
 70
     4
  9
$DIMTDEC
 70
     4
  9
$DIMALTU
 70
     2
  9
$DIMALTTD
 70
     2
  9
$DIMTXSTY
  7
Standard
  9
$DIMAUNIT
 70
     0
  9
$DIMADEC
 70
     0
  9
$DIMALTRND
 40
0.0
  9
$DIMAZIN
 70
     0
  9
$DIMDSEP
 70
    46
  9
$DIMATFIT
 70
     3
  9
$DIMFRAC
 70
     0
  9
$DIMLDRBLK
  1

  9
$DIMLUNIT
 70
     2
  9
$DIMLWD
 70
    -2
  9
$DIMLWE
 70
    -2
  9
$DIMTMOVE
 70
     0
  9
$LUNITS
 70
     2
  9
$LUPREC
 70
     4
  9
$SKETCHINC
 40
0.1
  9
$FILLETRAD
 40
0.5
  9
$AUNITS
 70
     0
  9
$AUPREC
 70
     0
  9
$MENU
  1
.
  9
$ELEVATION
 40
0.0
  9
$PELEVATION
 40
0.0
  9
$THICKNESS
 40
0.0
  9
$LIMCHECK
 70
     0
  9
$CHAMFERA
 40
0.5
  9
$CHAMFERB
 40
0.5
  9
$CHAMFERC
 40
1.0
  9
$CHAMFERD
 40
0.0
  9
$SKPOLY
 70
     0
  9
$TDCREATE
 40
2461005.748406273
  9
$TDUCREATE
 40
2461005.706739606
  9
$TDUPDATE
 40
2461005.748406343
  9
$TDUUPDATE
 40
2461005.706739676
  9
$TDINDWG
 40
0.0000000116
  9
$TDUSRTIMER
 40
0.0000000116
  9
$USRTIMER
 70
     1
  9
$ANGBASE
 50
0.0
  9
$ANGDIR
 70
     0
  9
$PDMODE
 70
     0
  9
$PDSIZE
 40
0.0
  9
$PLINEWID
 40
0.0
  9
$SPLFRAME
 70
     0
  9
$SPLINETYPE
 70
     6
  9
$SPLINESEGS
 70
     8
  9
$HANDSEED
  5
D7
  9
$SURFTAB1
 70
     6
  9
$SURFTAB2
 70
     6
  9
$SURFTYPE
 70
     6
  9
$SURFU
 70
     6
  9
$SURFV
 70
     6
  9
$UCSBASE
  2

  9
$UCSNAME
  2

  9
$UCSORG
 10
0.0
 20
0.0
 30
0.0
  9
$UCSXDIR
 10
1.0
 20
0.0
 30
0.0
  9
$UCSYDIR
 10
0.0
 20
1.0
 30
0.0
  9
$UCSORTHOREF
  2

  9
$UCSORTHOVIEW
 70
     0
  9
$UCSORGTOP
 10
0.0
 20
0.0
 30
0.0
  9
$UCSORGBOTTOM
 10
0.0
 20
0.0
 30
0.0
  9
$UCSORGLEFT
 10
0.0
 20
0.0
 30
0.0
  9
$UCSORGRIGHT
 10
0.0
 20
0.0
 30
0.0
  9
$UCSORGFRONT
 10
0.0
 20
0.0
 30
0.0
  9
$UCSORGBACK
 10
0.0
 20
0.0
 30
0.0
  9
$PUCSBASE
  2

  9
$PUCSNAME
  2

  9
$PUCSORG
 10
0.0
 20
0.0
 30
0.0
  9
$PUCSXDIR
 10
1.0
 20
0.0
 30
0.0
  9
$PUCSYDIR
 10
0.0
 20
1.0
 30
0.0
  9
$PUCSORTHOREF
  2

  9
$PUCSORTHOVIEW
 70
     0
  9
$PUCSORGTOP
 10
0.0
 20
0.0
 30
0.0
  9
$PUCSORGBOTTOM
 10
0.0
 20
0.0
 30
0.0
  9
$PUCSORGLEFT
 10
0.0
 20
0.0
 30
0.0
  9
$PUCSORGRIGHT
 10
0.0
 20
0.0
 30
0.0
  9
$PUCSORGFRONT
 10
0.0
 20
0.0
 30
0.0
  9
$PUCSORGBACK
 10
0.0
 20
0.0
 30
0.0
  9
$USERI1
 70
     0
  9
$USERI2
 70
     0
  9
$USERI3
 70
     0
  9
$USERI4
 70
     0
  9
$USERI5
 70
     0
  9
$USERR1
 40
0.0
  9
$USERR2
 40
0.0
  9
$USERR3
 40
0.0
  9
$USERR4
 40
0.0
  9
$USERR5
 40
0.0
  9
$WORLDVIEW
 70
     1
  9
$SHADEDGE
 70
     3
  9
$SHADEDIF
 70
    70
  9
$TILEMODE
 70
     1
  9
$MAXACTVP
 70
    64
  9
$PINSBASE
 10
0.0
 20
0.0
 30
0.0
  9
$PLIMCHECK
 70
     0
  9
$PEXTMIN
 10
1.000000000000000E+20
 20
1.000000000000000E+20
 30
1.000000000000000E+20
  9
$PEXTMAX
 10
-1.000000000000000E+20
 20
-1.000000000000000E+20
 30
-1.000000000000000E+20
  9
$PLIMMIN
 10
0.0
 20
0.0
  9
$PLIMMAX
 10
12.0
 20
9.0
  9
$UNITMODE
 70
     0
  9
$VISRETAIN
 70
     1
  9
$PLINEGEN
 70
     0
  9
$PSLTSCALE
 70
     1
  9
$TREEDEPTH
 70
  3020
  9
$CMLSTYLE
  2
Standard
  9
$CMLJUST
 70
     0
  9
$CMLSCALE
 40
1.0
  9
$PROXYGRAPHICS
 70
     1
  9
$MEASUREMENT
 70
     0
  9
$CELWEIGHT
370
    -1
  9
$ENDCAPS
280
     0
  9
$JOINSTYLE
280
     0
  9
$LWDISPLAY
290
     1
  9
$INSUNITS
 70
     4
  9
$HYPERLINKBASE
  1

  9
$STYLESHEET
  1

  9
$XEDIT
290
     1
  9
$CEPSNTYPE
380
     0
  9
$PSTYLEMODE
290
     1
  9
$FINGERPRINTGUID
  2
{7C5A9447-8C5A-4632-AAFB-6D3784B0665E}
  9
$VERSIONGUID
  2
{FAEB1C32-E019-11D5-929B-00C0DF256EC4}
  9
$EXTNAMES
290
     1
  9
$PSVPSCALE
 40
0.0
  9
$OLESTARTUP
290
     0
  9
$SORTENTS
280
   127
  9
$INDEXCTL
280
     0
  9
$HIDETEXT
280
     1
  9
$XCLIPFRAME
290
     0
  9
$HALOGAP
280
     0
  9
$OBSCOLOR
 70
   257
  9
$OBSLTYPE
280
     0
  9
$INTERSECTIONDISPLAY
280
     0
  9
$INTERSECTIONCOLOR
 70
   257
  9
$DIMASSOC
280
     2
  9
$PROJECTNAME
  1

  0
ENDSEC
  0
SECTION
  2
CLASSES
  0
CLASS
  1
ACDBDICTIONARYWDFLT
  2
AcDbDictionaryWithDefault
  3
ObjectDBX Classes
 90
        0
 91
        4
280
     0
281
     0
  0
CLASS
  1
VISUALSTYLE
  2
AcDbVisualStyle
  3
ObjectDBX Classes
 90
     4095
 91
        4
280
     0
281
     0
  0
CLASS
  1
MATERIAL
  2
AcDbMaterial
  3
ObjectDBX Classes
 90
     1153
 91
        4
280
     0
281
     0
  0
CLASS
  1
SUN
  2
AcDbSun
  3
SCENEOE
 90
     1024
 91
        4
280
     0
281
     0
  0
ENDSEC
  0
SECTION
  2
TABLES
  0
TABLE
  2
VPORT
  5
8
330
0
100
AcDbSymbolTable
 70
     1
  0
VPORT
  5
29
330
8
100
AcDbSymbolTableRecord
100
AcDbViewportTableRecord
  2
*Active
 70
     0
 10
0.0
 20
0.0
 11
1.0
 21
1.0
 12
0.0
 22
0.0
 13
0.0
 23
0.0
 14
0.5
 24
0.5
 15
0.5
 25
0.5
 16
0.0
 26
0.0
 36
1.0
 17
148.4999999628701
 27
-104.9999999737534
 37
0.0
 40
209.9999999475068
 41
1.414285714285622
 42
50.0
 43
0.0
 44
0.0
 50
0.0
 51
0.0
 71
     0
 72
   100
 73
     1
 74
     3
 75
     0
 76
     0
 77
     0
 78
     0
281
     0
 65
     1
110
0.0
120
0.0
130
0.0
111
1.0
121
0.0
131
0.0
112
0.0
122
1.0
132
0.0
 79
     0
146
0.0
  0
ENDTAB
  0
TABLE
  2
LTYPE
  5
5
330
0
100
AcDbSymbolTable
 70
     1
  0
LTYPE
  5
14
330
5
100
AcDbSymbolTableRecord
100
AcDbLinetypeTableRecord
  2
ByBlock
 70
     0
  3

 72
    65
 73
     0
 40
0.0
  0
LTYPE
  5
15
330
5
100
AcDbSymbolTableRecord
100
AcDbLinetypeTableRecord
  2
ByLayer
 70
     0
  3

 72
    65
 73
     0
 40
0.0
  0
LTYPE
  5
16
330
5
100
AcDbSymbolTableRecord
100
AcDbLinetypeTableRecord
  2
Continuous
 70
     0
  3
Solid line
 72
    65
 73
     0
 40
0.0
  0
ENDTAB
  0
TABLE
  2
LAYER
  5
2
330
0
100
AcDbSymbolTable
 70
     2
  0
LAYER
  5
10
330
2
100
AcDbSymbolTableRecord
100
AcDbLayerTableRecord
  2
0
 70
     0
 62
     7
  6
Continuous
370
    -3
390
F
  0
LAYER
  5
40
330
2
100
AcDbSymbolTableRecord
100
AcDbLayerTableRecord
  2
Capa 1
 70
     0
 62
     7
  6
Continuous
370
    -3
390
F
  0
ENDTAB
  0
TABLE
  2
STYLE
  5
3
330
0
100
AcDbSymbolTable
 70
     1
  0
STYLE
  5
11
330
3
100
AcDbSymbolTableRecord
100
AcDbTextStyleTableRecord
  2
Standard
 70
     0
 40
0.0
 41
1.0
 50
0.0
 71
     0
 42
0.2
  3
txt
  4

  0
ENDTAB
  0
TABLE
  2
VIEW
  5
6
330
0
100
AcDbSymbolTable
 70
     0
  0
ENDTAB
  0
TABLE
  2
UCS
  5
7
330
0
100
AcDbSymbolTable
 70
     0
  0
ENDTAB
  0
TABLE
  2
APPID
  5
9
330
0
100
AcDbSymbolTable
 70
     1
  0
APPID
  5
12
330
9
100
AcDbSymbolTableRecord
100
AcDbRegAppTableRecord
  2
ACAD
 70
     0
  0
ENDTAB
  0
TABLE
  2
DIMSTYLE
  5
A
330
0
100
AcDbSymbolTable
 70
     1
100
AcDbDimStyleTable
  0
DIMSTYLE
105
27
330
A
100
AcDbSymbolTableRecord
100
AcDbDimStyleTableRecord
  2
Standard
 70
     0
178
     0
340
11
  0
ENDTAB
  0
TABLE
  2
BLOCK_RECORD
  5
1
330
0
100
AcDbSymbolTable
 70
     4
  0
BLOCK_RECORD
  5
1F
330
1
100
AcDbSymbolTableRecord
100
AcDbBlockTableRecord
  2
*Model_Space
340
22
  0
BLOCK_RECORD
  5
1B
330
1
100
AcDbSymbolTableRecord
100
AcDbBlockTableRecord
  2
*Paper_Space
340
1E
  0
BLOCK_RECORD
  5
23
330
1
100
AcDbSymbolTableRecord
100
AcDbBlockTableRecord
  2
*Paper_Space0
340
26
  0
BLOCK_RECORD
  5
41
330
1
100
AcDbSymbolTableRecord
100
AcDbBlockTableRecord
  2
block 2
340
0
102
{BLKREFS
331
42
102
}
  0
BLOCK_RECORD
  5
97
330
1
100
AcDbSymbolTableRecord
100
AcDbBlockTableRecord
  2
block 3
340
0
102
{BLKREFS
331
98
102
}
  0
BLOCK_RECORD
  5
A2
330
1
100
AcDbSymbolTableRecord
100
AcDbBlockTableRecord
  2
block 4
340
0
102
{BLKREFS
331
A3
102
}
  0
ENDTAB
  0
ENDSEC
  0
SECTION
  2
BLOCKS
  0
BLOCK
  5
20
330
1F
100
AcDbEntity
  8
0
100
AcDbBlockBegin
  2
*Model_Space
 70
     0
 10
0.0
 20
0.0
 30
0.0
  3
*Model_Space
  1

  0
ENDBLK
  5
21
330
1F
100
AcDbEntity
  8
0
100
AcDbBlockEnd
  0
BLOCK
  5
1C
330
1B
100
AcDbEntity
 67
     1
  8
0
100
AcDbBlockBegin
  2
*Paper_Space
 70
     0
 10
0.0
 20
0.0
 30
0.0
  3
*Paper_Space
  1

  0
ENDBLK
  5
1D
330
1B
100
AcDbEntity
 67
     1
  8
0
100
AcDbBlockEnd
  0
BLOCK
  5
24
330
23
100
AcDbEntity
  8
0
100
AcDbBlockBegin
  2
*Paper_Space0
 70
     0
 10
0.0
 20
0.0
 30
0.0
  3
*Paper_Space0
  1

  0
ENDBLK
  5
25
330
23
100
AcDbEntity
  8
0
100
AcDbBlockEnd
  0
BLOCK
  5
43
330
41
100
AcDbEntity
  8
0
100
AcDbBlockBegin
  2
block 2
 70
     0
 10
0.0
 20
0.0
 30
0.0
  3
block 2
  1

  0
SPLINE
  5
45
330
41
100
AcDbEntity
  8
Capa 1
 62
   255
370
    35
100
AcDbSpline
210
0.0
220
0.0
230
1.0
 70
    11
 71
     3
 72
    53
 73
    49
 74
     0
 42
0.0000000001
 43
0.0000000001
 12
1.0
 22
0.0
 32
0.0
 13
1.0
 23
0.0
 33
0.0
 40
0.0
 40
0.0
 40
0.0
 40
0.0
 40
1.0
 40
1.0
 40
1.0
 40
2.0
 40
2.0
 40
2.0
 40
3.0
 40
3.0
 40
3.0
 40
4.0
 40
4.0
 40
4.0
 40
5.0
 40
5.0
 40
5.0
 40
6.0
 40
6.0
 40
6.0
 40
7.0
 40
7.0
 40
7.0
 40
8.0
 40
8.0
 40
8.0
 40
9.0
 40
9.0
 40
9.0
 40
10.0
 40
10.0
 40
10.0
 40
11.0
 40
11.0
 40
11.0
 40
12.0
 40
12.0
 40
12.0
 40
13.0
 40
13.0
 40
13.0
 40
14.0
 40
14.0
 40
14.0
 40
15.0
 40
15.0
 40
15.0
 40
16.0
 40
16.0
 40
16.0
 40
16.0
 10
168.7128816919019
 20
-105.119091832746
 30
0.0
 10
168.7128816919019
 20
-105.119091832746
 30
0.0
 10
171.1309547162676
 20
-105.119091832746
 30
0.0
 10
171.1309547162676
 20
-105.119091832746
 30
0.0
 10
171.1309547162676
 20
-105.119091832746
 30
0.0
 10
171.1309547162676
 20
-104.5611030996402
 30
0.0
 10
171.1309547162676
 20
-104.5611030996402
 30
0.0
 10
171.1309547162676
 20
-104.5611030996402
 30
0.0
 10
168.7128816919019
 20
-104.5611030996402
 30
0.0
 10
168.7128816919019
 20
-104.5611030996402
 30
0.0
 10
168.5888165025621
 20
-104.5611030996402
 30
0.0
 10
168.5267798463094
 20
-104.4991476750923
 30
0.0
 10
168.5267798463094
 20
-104.3750743625832
 30
0.0
 10
168.5267798463094
 20
-104.3750743625832
 30
0.0
 10
168.5267798463094
 20
-104.2820234397909
 30
0.0
 10
168.5267798463094
 20
-104.2820234397909
 30
0.0
 10
168.5267798463094
 20
-104.2820234397909
 30
0.0
 10
170.4799881688997
 20
-104.2820234397909
 30
0.0
 10
170.4799881688997
 20
-104.2820234397909
 30
0.0
 10
170.4799881688997
 20
-104.2820234397909
 30
0.0
 10
170.4799881688997
 20
-103.7240347066793
 30
0.0
 10
170.4799881688997
 20
-103.7240347066793
 30
0.0
 10
170.4799881688997
 20
-103.7240347066793
 30
0.0
 10
168.5267798463094
 20
-103.7240347066793
 30
0.0
 10
168.5267798463094
 20
-103.7240347066793
 30
0.0
 10
168.5267798463094
 20
-103.7240347066793
 30
0.0
 10
168.5267798463094
 20
-103.630983783887
 30
0.0
 10
168.5267798463094
 20
-103.630983783887
 30
0.0
 10
168.5267798463094
 20
-103.5069917030884
 30
0.0
 10
168.5888165025621
 20
-103.4450362785405
 30
0.0
 10
168.7128816919019
 20
-103.4450362785405
 30
0.0
 10
168.7128816919019
 20
-103.4450362785405
 30
0.0
 10
171.1309547162676
 20
-103.4450362785405
 30
0.0
 10
171.1309547162676
 20
-103.4450362785405
 30
0.0
 10
171.1309547162676
 20
-103.4450362785405
 30
0.0
 10
171.1309547162676
 20
-102.8870475454321
 30
0.0
 10
171.1309547162676
 20
-102.8870475454321
 30
0.0
 10
171.1309547162676
 20
-102.8870475454321
 30
0.0
 10
168.7128816919019
 20
-102.8870475454321
 30
0.0
 10
168.7128816919019
 20
-102.8870475454321
 30
0.0
 10
168.0926938391224
 20
-102.8870475454321
 30
0.0
 10
167.7826811444342
 20
-103.1350235838619
 30
0.0
 10
167.7826811444342
 20
-103.630983783887
 30
0.0
 10
167.7826811444342
 20
-103.630983783887
 30
0.0
 10
167.7826811444342
 20
-104.3750743625832
 30
0.0
 10
167.7826811444342
 20
-104.3750743625832
 30
0.0
 10
167.7826811444342
 20
-104.871197026028
 30
0.0
 10
168.0926938391224
 20
-105.119091832746
 30
0.0
 10
168.7128816919019
 20
-105.119091832746
 30
0.0
  0
POLYLINE
  5
46
330
41
100
AcDbEntity
  8
Capa 1
 62
   255
370
    35
100
AcDb2dPolyline
 66
     1
 10
0.0
 20
0.0
 30
0.0
  0
VERTEX
  5
47
330
46
100
AcDbEntity
  8
Capa 1
 62
   255
370
    35
100
AcDbVertex
100
AcDb2dVertex
 10
165.3980918305688
 20
-103.4450362785405
 30
0.0
  0
VERTEX
  5
48
330
46
100
AcDbEntity
  8
Capa 1
 62
   255
370
    35
100
AcDbVertex
100
AcDb2dVertex
 10
165.3980918305688
 20
-105.119091832746
 30
0.0
  0
VERTEX
  5
49
330
46
100
AcDbEntity
  8
Capa 1
 62
   255
370
    35
100
AcDbVertex
100
AcDb2dVertex
 10
166.1421824092759
 20
-105.119091832746
 30
0.0
  0
VERTEX
  5
4A
330
46
100
AcDbEntity
  8
Capa 1
 62
   255
370
    35
100
AcDbVertex
100
AcDb2dVertex
 10
166.1421824092759
 20
-103.4450362785405
 30
0.0
  0
VERTEX
  5
4B
330
46
100
AcDbEntity
  8
Capa 1
 62
   255
370
    35
100
AcDbVertex
100
AcDb2dVertex
 10
167.2583304620765
 20
-103.4450362785405
 30
0.0
  0
VERTEX
  5
4C
330
46
100
AcDbEntity
  8
Capa 1
 62
   255
370
    35
100
AcDbVertex
100
AcDb2dVertex
 10
167.2583304620765
 20
-102.8870475454321
 30
0.0
  0
VERTEX
  5
4D
330
46
100
AcDbEntity
  8
Capa 1
 62
   255
370
    35
100
AcDbVertex
100
AcDb2dVertex
 10
164.2821048602464
 20
-102.8870475454321
 30
0.0
  0
VERTEX
  5
4E
330
46
100
AcDbEntity
  8
Capa 1
 62
   255
370
    35
100
AcDbVertex
100
AcDb2dVertex
 10
164.2821048602464
 20
-103.4450362785405
 30
0.0
  0
VERTEX
  5
4F
330
46
100
AcDbEntity
  8
Capa 1
 62
   255
370
    35
100
AcDbVertex
100
AcDb2dVertex
 10
165.3980918305688
 20
-103.4450362785405
 30
0.0
  0
SEQEND
  5
50
330
46
100
AcDbEntity
  8
Capa 1
 62
   255
370
    35
  0
SPLINE
  5
51
330
41
100
AcDbEntity
  8
Capa 1
 62
   255
370
    35
100
AcDbSpline
210
0.0
220
0.0
230
1.0
 70
    11
 71
     3
 72
    35
 73
    31
 74
     0
 42
0.0000000001
 43
0.0000000001
 12
1.0
 22
0.0
 32
0.0
 13
1.0
 23
0.0
 33
0.0
 40
0.0
 40
0.0
 40
0.0
 40
0.0
 40
1.0
 40
1.0
 40
1.0
 40
2.0
 40
2.0
 40
2.0
 40
3.0
 40
3.0
 40
3.0
 40
4.0
 40
4.0
 40
4.0
 40
5.0
 40
5.0
 40
5.0
 40
6.0
 40
6.0
 40
6.0
 40
7.0
 40
7.0
 40
7.0
 40
8.0
 40
8.0
 40
8.0
 40
9.0
 40
9.0
 40
9.0
 40
10.0
 40
10.0
 40
10.0
 40
10.0
 10
163.7577474356519
 20
-103.630983783887
 30
0.0
 10
163.7577474356519
 20
-103.1350235838619
 30
0.0
 10
163.4475763391383
 20
-102.8870475454321
 30
0.0
 10
162.8275468881907
 20
-102.8870475454321
 30
0.0
 10
162.8275468881907
 20
-102.8870475454321
 30
0.0
 10
160.4094819869969
 20
-102.8870475454321
 30
0.0
 10
160.4094819869969
 20
-102.8870475454321
 30
0.0
 10
160.4094819869969
 20
-102.8870475454321
 30
0.0
 10
160.4094819869969
 20
-105.119091832746
 30
0.0
 10
160.4094819869969
 20
-105.119091832746
 30
0.0
 10
160.4094819869969
 20
-105.119091832746
 30
0.0
 10
161.1535725656925
 20
-105.119091832746
 30
0.0
 10
161.1535725656925
 20
-105.119091832746
 30
0.0
 10
161.1535725656925
 20
-105.119091832746
 30
0.0
 10
161.1535725656925
 20
-103.4450362785405
 30
0.0
 10
161.1535725656925
 20
-103.4450362785405
 30
0.0
 10
161.1535725656925
 20
-103.4450362785405
 30
0.0
 10
162.8275468881907
 20
-103.4450362785405
 30
0.0
 10
162.8275468881907
 20
-103.4450362785405
 30
0.0
 10
162.9516202006972
 20
-103.4450362785405
 30
0.0
 10
163.0136487337844
 20
-103.5069917030884
 30
0.0
 10
163.0136487337844
 20
-103.630983783887
 30
0.0
 10
163.0136487337844
 20
-103.630983783887
 30
0.0
 10
163.0136487337844
 20
-105.119091832746
 30
0.0
 10
163.0136487337844
 20
-105.119091832746
 30
0.0
 10
163.0136487337844
 20
-105.119091832746
 30
0.0
 10
163.7577474356519
 20
-105.119091832746
 30
0.0
 10
163.7577474356519
 20
-105.119091832746
 30
0.0
 10
163.7577474356519
 20
-105.119091832746
 30
0.0
 10
163.7577474356519
 20
-103.630983783887
 30
0.0
 10
163.7577474356519
 20
-103.630983783887
 30
0.0
  0
SPLINE
  5
52
330
41
100
AcDbEntity
  8
Capa 1
 62
   255
370
    35
100
AcDbSpline
210
0.0
220
0.0
230
1.0
 70
    11
 71
     3
 72
    29
 73
    25
 74
     0
 42
0.0000000001
 43
0.0000000001
 12
1.0
 22
0.0
 32
0.0
 13
1.0
 23
0.0
 33
0.0
 40
0.0
 40
0.0
 40
0.0
 40
0.0
 40
1.0
 40
1.0
 40
1.0
 40
2.0
 40
2.0
 40
2.0
 40
3.0
 40
3.0
 40
3.0
 40
4.0
 40
4.0
 40
4.0
 40
5.0
 40
5.0
 40
5.0
 40
6.0
 40
6.0
 40
6.0
 40
7.0
 40
7.0
 40
7.0
 40
8.0
 40
8.0
 40
8.0
 40
8.0
 10
158.9539482344233
 20
-102.8883521769632
 30
0.0
 10
158.9539482344233
 20
-102.8883521769632
 30
0.0
 10
156.3495925820472
 20
-102.8883521769632
 30
0.0
 10
156.3495925820472
 20
-102.8883521769632
 30
0.0
 10
155.7315123364401
 20
-102.8883521769632
 30
0.0
 10
155.4198363566739
 20
-103.1339947002967
 30
0.0
 10
155.4198363566739
 20
-103.630567582353
 30
0.0
 10
155.4198363566739
 20
-103.630567582353
 30
0.0
 10
155.4198363566739
 20
-104.3754269054362
 30
0.0
 10
155.4198363566739
 20
-104.3754269054362
 30
0.0
 10
155.4198363566739
 20
-104.8719997874971
 30
0.0
 10
155.7315123364401
 20
-105.1202701070728
 30
0.0
 10
156.3495925820472
 20
-105.1202701070728
 30
0.0
 10
156.3495925820472
 20
-105.1202701070728
 30
0.0
 10
158.9539482344233
 20
-105.1202701070728
 30
0.0
 10
158.9539482344233
 20
-105.1202701070728
 30
0.0
 10
159.5746723977194
 20
-105.1202701070728
 30
0.0
 10
159.8837044597928
 20
-104.8719997874971
 30
0.0
 10
159.8837044597928
 20
-104.3754269054362
 30
0.0
 10
159.8837044597928
 20
-104.3754269054362
 30
0.0
 10
159.8837044597928
 20
-103.630567582353
 30
0.0
 10
159.8837044597928
 20
-103.630567582353
 30
0.0
 10
159.8837044597928
 20
-103.1339947002967
 30
0.0
 10
159.5746723977194
 20
-102.8883521769632
 30
0.0
 10
158.9539482344233
 20
-102.8883521769632
 30
0.0
  0
SPLINE
  5
53
330
41
100
AcDbEntity
  8
Capa 1
 62
   255
370
    35
100
AcDbSpline
210
0.0
220
0.0
230
1.0
 70
    11
 71
     3
 72
    29
 73
    25
 74
     0
 42
0.0000000001
 43
0.0000000001
 12
1.0
 22
0.0
 32
0.0
 13
1.0
 23
0.0
 33
0.0
 40
0.0
 40
0.0
 40
0.0
 40
0.0
 40
1.0
 40
1.0
 40
1.0
 40
2.0
 40
2.0
 40
2.0
 40
3.0
 40
3.0
 40
3.0
 40
4.0
 40
4.0
 40
4.0
 40
5.0
 40
5.0
 40
5.0
 40
6.0
 40
6.0
 40
6.0
 40
7.0
 40
7.0
 40
7.0
 40
8.0
 40
8.0
 40
8.0
 40
8.0
 10
159.1414890543985
 20
-104.3754269054362
 30
0.0
 10
159.1414890543985
 20
-104.4995620652248
 30
0.0
 10
159.078099515663
 20
-104.5603076862752
 30
0.0
 10
158.9539482344233
 20
-104.5603076862752
 30
0.0
 10
158.9539482344233
 20
-104.5603076862752
 30
0.0
 10
156.3495925820472
 20
-104.5603076862752
 30
0.0
 10
156.3495925820472
 20
-104.5603076862752
 30
0.0
 10
156.2254574222613
 20
-104.5603076862752
 30
0.0
 10
156.164695679761
 20
-104.4995620652248
 30
0.0
 10
156.164695679761
 20
-104.3754269054362
 30
0.0
 10
156.164695679761
 20
-104.3754269054362
 30
0.0
 10
156.164695679761
 20
-103.630567582353
 30
0.0
 10
156.164695679761
 20
-103.630567582353
 30
0.0
 10
156.162051762072
 20
-103.5064163011185
 30
0.0
 10
156.2228135045685
 20
-103.4456706800693
 30
0.0
 10
156.3469486643608
 20
-103.4456706800693
 30
0.0
 10
156.3469486643608
 20
-103.4456706800693
 30
0.0
 10
158.9539482344233
 20
-103.4456706800693
 30
0.0
 10
158.9539482344233
 20
-103.4456706800693
 30
0.0
 10
159.078099515663
 20
-103.4456706800693
 30
0.0
 10
159.1414890543985
 20
-103.5064163011185
 30
0.0
 10
159.1414890543985
 20
-103.630567582353
 30
0.0
 10
159.1414890543985
 20
-103.630567582353
 30
0.0
 10
159.1414890543985
 20
-104.3754269054362
 30
0.0
 10
159.1414890543985
 20
-104.3754269054362
 30
0.0
  0
SPLINE
  5
54
330
41
100
AcDbEntity
  8
Capa 1
 62
   255
370
    35
100
AcDbSpline
210
0.0
220
0.0
230
1.0
 70
    11
 71
     3
 72
    44
 73
    40
 74
     0
 42
0.0000000001
 43
0.0000000001
 12
1.0
 22
0.0
 32
0.0
 13
1.0
 23
0.0
 33
0.0
 40
0.0
 40
0.0
 40
0.0
 40
0.0
 40
1.0
 40
1.0
 40
1.0
 40
2.0
 40
2.0
 40
2.0
 40
3.0
 40
3.0
 40
3.0
 40
4.0
 40
4.0
 40
4.0
 40
5.0
 40
5.0
 40
5.0
 40
6.0
 40
6.0
 40
6.0
 40
7.0
 40
7.0
 40
7.0
 40
8.0
 40
8.0
 40
8.0
 40
9.0
 40
9.0
 40
9.0
 40
10.0
 40
10.0
 40
10.0
 40
11.0
 40
11.0
 40
11.0
 40
12.0
 40
12.0
 40
12.0
 40
13.0
 40
13.0
 40
13.0
 40
13.0
 10
154.8968565406277
 20
-103.5381110704894
 30
0.0
 10
154.8334670018922
 20
-103.1049438486233
 30
0.0
 10
154.524434939811
 20
-102.8883521769632
 30
0.0
 10
153.9671003152583
 20
-102.8883521769632
 30
0.0
 10
153.9671003152583
 20
-102.8883521769632
 30
0.0
 10
151.5476415651709
 20
-102.8883521769632
 30
0.0
 10
151.5476415651709
 20
-102.8883521769632
 30
0.0
 10
151.5476415651709
 20
-102.8883521769632
 30
0.0
 10
151.5476415651709
 20
-105.1202701070728
 30
0.0
 10
151.5476415651709
 20
-105.1202701070728
 30
0.0
 10
151.5476415651709
 20
-105.1202701070728
 30
0.0
 10
152.292500888258
 20
-105.1202701070728
 30
0.0
 10
152.292500888258
 20
-105.1202701070728
 30
0.0
 10
152.292500888258
 20
-105.1202701070728
 30
0.0
 10
152.292500888258
 20
-104.2829703935707
 30
0.0
 10
152.292500888258
 20
-104.2829703935707
 30
0.0
 10
152.292500888258
 20
-104.2829703935707
 30
0.0
 10
153.9671003152583
 20
-104.2829703935707
 30
0.0
 10
153.9671003152583
 20
-104.2829703935707
 30
0.0
 10
154.0912515964979
 20
-104.2829703935707
 30
0.0
 10
154.1519972175445
 20
-104.3437321360698
 30
0.0
 10
154.1519972175445
 20
-104.4678672958589
 30
0.0
 10
154.1519972175445
 20
-104.4678672958589
 30
0.0
 10
154.1519972175445
 20
-105.1202701070728
 30
0.0
 10
154.1519972175445
 20
-105.1202701070728
 30
0.0
 10
154.1519972175445
 20
-105.1202701070728
 30
0.0
 10
154.8968565406277
 20
-105.1202701070728
 30
0.0
 10
154.8968565406277
 20
-105.1202701070728
 30
0.0
 10
154.8968565406277
 20
-105.1202701070728
 30
0.0
 10
154.8968565406277
 20
-104.3754269054362
 30
0.0
 10
154.8968565406277
 20
-104.3754269054362
 30
0.0
 10
154.8968565406277
 20
-104.187886085463
 30
0.0
 10
154.8466704688858
 20
-104.0637348042233
 30
0.0
 10
154.7462983254033
 20
-104.0029891831742
 30
0.0
 10
154.8229074525824
 20
-103.9052609573742
 30
0.0
 10
154.8704496066392
 20
-103.7784818798955
 30
0.0
 10
154.8968565406277
 20
-103.630567582353
 30
0.0
 10
154.8968565406277
 20
-103.630567582353
 30
0.0
 10
154.8968565406277
 20
-103.5381110704894
 30
0.0
 10
154.8968565406277
 20
-103.5381110704894
 30
0.0
  0
SPLINE
  5
55
330
41
100
AcDbEntity
  8
Capa 1
 62
   255
370
    35
100
AcDbSpline
210
0.0
220
0.0
230
1.0
 70
    11
 71
     3
 72
    20
 73
    16
 74
     0
 42
0.0000000001
 43
0.0000000001
 12
1.0
 22
0.0
 32
0.0
 13
1.0
 23
0.0
 33
0.0
 40
0.0
 40
0.0
 40
0.0
 40
0.0
 40
1.0
 40
1.0
 40
1.0
 40
2.0
 40
2.0
 40
2.0
 40
3.0
 40
3.0
 40
3.0
 40
4.0
 40
4.0
 40
4.0
 40
5.0
 40
5.0
 40
5.0
 40
5.0
 10
153.9671003152583
 20
-103.7230079727789
 30
0.0
 10
153.9671003152583
 20
-103.7230079727789
 30
0.0
 10
152.292500888258
 20
-103.7230079727789
 30
0.0
 10
152.292500888258
 20
-103.7230079727789
 30
0.0
 10
152.292500888258
 20
-103.7230079727789
 30
0.0
 10
152.292500888258
 20
-103.4456706800693
 30
0.0
 10
152.292500888258
 20
-103.4456706800693
 30
0.0
 10
152.292500888258
 20
-103.4456706800693
 30
0.0
 10
153.9671003152583
 20
-103.4456706800693
 30
0.0
 10
153.9671003152583
 20
-103.4456706800693
 30
0.0
 10
154.0912515964979
 20
-103.4456706800693
 30
0.0
 10
154.1519972175445
 20
-103.4932128341229
 30
0.0
 10
154.1519972175445
 20
-103.5856532245424
 30
0.0
 10
154.1519972175445
 20
-103.6781097364124
 30
0.0
 10
154.0912515964979
 20
-103.7230079727789
 30
0.0
 10
153.9671003152583
 20
-103.7230079727789
 30
0.0
  0
SPLINE
  5
56
330
41
100
AcDbEntity
  8
Capa 1
 62
   255
370
    35
100
AcDbSpline
210
0.0
220
0.0
230
1.0
 70
    11
 71
     3
 72
    53
 73
    49
 74
     0
 42
0.0000000001
 43
0.0000000001
 12
1.0
 22
0.0
 32
0.0
 13
1.0
 23
0.0
 33
0.0
 40
0.0
 40
0.0
 40
0.0
 40
0.0
 40
1.0
 40
1.0
 40
1.0
 40
2.0
 40
2.0
 40
2.0
 40
3.0
 40
3.0
 40
3.0
 40
4.0
 40
4.0
 40
4.0
 40
5.0
 40
5.0
 40
5.0
 40
6.0
 40
6.0
 40
6.0
 40
7.0
 40
7.0
 40
7.0
 40
8.0
 40
8.0
 40
8.0
 40
9.0
 40
9.0
 40
9.0
 40
10.0
 40
10.0
 40
10.0
 40
11.0
 40
11.0
 40
11.0
 40
12.0
 40
12.0
 40
12.0
 40
13.0
 40
13.0
 40
13.0
 40
14.0
 40
14.0
 40
14.0
 40
15.0
 40
15.0
 40
15.0
 40
16.0
 40
16.0
 40
16.0
 40
16.0
 10
148.605336792246
 20
-105.119091832746
 30
0.0
 10
148.605336792246
 20
-105.119091832746
 30
0.0
 10
151.0234098166107
 20
-105.119091832746
 30
0.0
 10
151.0234098166107
 20
-105.119091832746
 30
0.0
 10
151.0234098166107
 20
-105.119091832746
 30
0.0
 10
151.0234098166107
 20
-104.5611030996402
 30
0.0
 10
151.0234098166107
 20
-104.5611030996402
 30
0.0
 10
151.0234098166107
 20
-104.5611030996402
 30
0.0
 10
148.605336792246
 20
-104.5611030996402
 30
0.0
 10
148.605336792246
 20
-104.5611030996402
 30
0.0
 10
148.4811091394935
 20
-104.5611030996402
 30
0.0
 10
148.4192349466568
 20
-104.4991476750923
 30
0.0
 10
148.4192349466568
 20
-104.3750743625832
 30
0.0
 10
148.4192349466568
 20
-104.3750743625832
 30
0.0
 10
148.4192349466568
 20
-104.2820234397909
 30
0.0
 10
148.4192349466568
 20
-104.2820234397909
 30
0.0
 10
148.4192349466568
 20
-104.2820234397909
 30
0.0
 10
150.372443269248
 20
-104.2820234397909
 30
0.0
 10
150.372443269248
 20
-104.2820234397909
 30
0.0
 10
150.372443269248
 20
-104.2820234397909
 30
0.0
 10
150.372443269248
 20
-103.7240347066793
 30
0.0
 10
150.372443269248
 20
-103.7240347066793
 30
0.0
 10
150.372443269248
 20
-103.7240347066793
 30
0.0
 10
148.4192349466568
 20
-103.7240347066793
 30
0.0
 10
148.4192349466568
 20
-103.7240347066793
 30
0.0
 10
148.4192349466568
 20
-103.7240347066793
 30
0.0
 10
148.4192349466568
 20
-103.630983783887
 30
0.0
 10
148.4192349466568
 20
-103.630983783887
 30
0.0
 10
148.4192349466568
 20
-103.5069917030884
 30
0.0
 10
148.4811091394935
 20
-103.4450362785405
 30
0.0
 10
148.605336792246
 20
-103.4450362785405
 30
0.0
 10
148.605336792246
 20
-103.4450362785405
 30
0.0
 10
151.0234098166107
 20
-103.4450362785405
 30
0.0
 10
151.0234098166107
 20
-103.4450362785405
 30
0.0
 10
151.0234098166107
 20
-103.4450362785405
 30
0.0
 10
151.0234098166107
 20
-102.8870475454321
 30
0.0
 10
151.0234098166107
 20
-102.8870475454321
 30
0.0
 10
151.0234098166107
 20
-102.8870475454321
 30
0.0
 10
148.605336792246
 20
-102.8870475454321
 30
0.0
 10
148.605336792246
 20
-102.8870475454321
 30
0.0
 10
147.9851489394659
 20
-102.8870475454321
 30
0.0
 10
147.6752987082058
 20
-103.1350235838619
 30
0.0
 10
147.6752987082058
 20
-103.630983783887
 30
0.0
 10
147.6752987082058
 20
-103.630983783887
 30
0.0
 10
147.6752987082058
 20
-104.3750743625832
 30
0.0
 10
147.6752987082058
 20
-104.3750743625832
 30
0.0
 10
147.6752987082058
 20
-104.871197026028
 30
0.0
 10
147.9851489394659
 20
-105.119091832746
 30
0.0
 10
148.605336792246
 20
-105.119091832746
 30
0.0
  0
SPLINE
  5
57
330
41
100
AcDbEntity
  8
Capa 1
 62
   255
370
    35
100
AcDbSpline
210
0.0
220
0.0
230
1.0
 70
    11
 71
     3
 72
    35
 73
    31
 74
     0
 42
0.0000000001
 43
0.0000000001
 12
1.0
 22
0.0
 32
0.0
 13
1.0
 23
0.0
 33
0.0
 40
0.0
 40
0.0
 40
0.0
 40
0.0
 40
1.0
 40
1.0
 40
1.0
 40
2.0
 40
2.0
 40
2.0
 40
3.0
 40
3.0
 40
3.0
 40
4.0
 40
4.0
 40
4.0
 40
5.0
 40
5.0
 40
5.0
 40
6.0
 40
6.0
 40
6.0
 40
7.0
 40
7.0
 40
7.0
 40
8.0
 40
8.0
 40
8.0
 40
9.0
 40
9.0
 40
9.0
 40
10.0
 40
10.0
 40
10.0
 40
10.0
 10
146.4068412007991
 20
-102.8870475454321
 30
0.0
 10
146.4068412007991
 20
-102.8870475454321
 30
0.0
 10
146.4068412007991
 20
-104.3750743625832
 30
0.0
 10
146.4068412007991
 20
-104.3750743625832
 30
0.0
 10
146.4068412007991
 20
-104.4991476750923
 30
0.0
 10
146.344650204296
 20
-104.5611030996402
 30
0.0
 10
146.2207393552092
 20
-104.5611030996402
 30
0.0
 10
146.2207393552092
 20
-104.5611030996402
 30
0.0
 10
144.5466106924651
 20
-104.5611030996402
 30
0.0
 10
144.5466106924651
 20
-104.5611030996402
 30
0.0
 10
144.5466106924651
 20
-104.5611030996402
 30
0.0
 10
144.5466106924651
 20
-102.8870475454321
 30
0.0
 10
144.5466106924651
 20
-102.8870475454321
 30
0.0
 10
144.5466106924651
 20
-102.8870475454321
 30
0.0
 10
143.8024713747459
 20
-102.8870475454321
 30
0.0
 10
143.8024713747459
 20
-102.8870475454321
 30
0.0
 10
143.8024713747459
 20
-102.8870475454321
 30
0.0
 10
143.8024713747459
 20
-105.119091832746
 30
0.0
 10
143.8024713747459
 20
-105.119091832746
 30
0.0
 10
143.8024713747459
 20
-105.119091832746
 30
0.0
 10
146.2207393552092
 20
-105.119091832746
 30
0.0
 10
146.2207393552092
 20
-105.119091832746
 30
0.0
 10
146.8409272079861
 20
-105.119091832746
 30
0.0
 10
147.1507855624239
 20
-104.871197026028
 30
0.0
 10
147.1507855624239
 20
-104.3750743625832
 30
0.0
 10
147.1507855624239
 20
-104.3750743625832
 30
0.0
 10
147.1507855624239
 20
-102.8870475454321
 30
0.0
 10
147.1507855624239
 20
-102.8870475454321
 30
0.0
 10
147.1507855624239
 20
-102.8870475454321
 30
0.0
 10
146.4068412007991
 20
-102.8870475454321
 30
0.0
 10
146.4068412007991
 20
-102.8870475454321
 30
0.0
  0
POLYLINE
  5
58
330
41
100
AcDbEntity
  8
Capa 1
 62
   255
370
    35
100
AcDb2dPolyline
 66
     1
 10
0.0
 20
0.0
 30
0.0
  0
VERTEX
  5
59
330
58
100
AcDbEntity
  8
Capa 1
 62
   255
370
    35
100
AcDbVertex
100
AcDb2dVertex
 10
147.1888187752909
 20
-106.9257553257943
 30
0.0
  0
VERTEX
  5
5A
330
58
100
AcDbEntity
  8
Capa 1
 62
   255
370
    35
100
AcDbVertex
100
AcDb2dVertex
 10
146.8537755011484
 20
-106.9257553257943
 30
0.0
  0
VERTEX
  5
5B
330
58
100
AcDbEntity
  8
Capa 1
 62
   255
370
    35
100
AcDbVertex
100
AcDb2dVertex
 10
147.3708927969975
 20
-105.9273940543688
 30
0.0
  0
VERTEX
  5
5C
330
58
100
AcDbEntity
  8
Capa 1
 62
   255
370
    35
100
AcDbVertex
100
AcDb2dVertex
 10
147.7418093913983
 20
-105.9273940543688
 30
0.0
  0
VERTEX
  5
5D
330
58
100
AcDbEntity
  8
Capa 1
 62
   255
370
    35
100
AcDbVertex
100
AcDb2dVertex
 10
148.2352367587633
 20
-106.9257553257943
 30
0.0
  0
VERTEX
  5
5E
330
58
100
AcDbEntity
  8
Capa 1
 62
   255
370
    35
100
AcDbVertex
100
AcDb2dVertex
 10
147.8629664541642
 20
-106.9257553257943
 30
0.0
  0
VERTEX
  5
5F
330
58
100
AcDbEntity
  8
Capa 1
 62
   255
370
    35
100
AcDbVertex
100
AcDb2dVertex
 10
147.7878355381442
 20
-106.74571186939
 30
0.0
  0
VERTEX
  5
60
330
58
100
AcDbEntity
  8
Capa 1
 62
   255
370
    35
100
AcDbVertex
100
AcDb2dVertex
 10
147.2693645321046
 20
-106.74571186939
 30
0.0
  0
VERTEX
  5
61
330
58
100
AcDbEntity
  8
Capa 1
 62
   255
370
    35
100
AcDbVertex
100
AcDb2dVertex
 10
147.1888187752909
 20
-106.9257553257943
 30
0.0
  0
SEQEND
  5
62
330
58
100
AcDbEntity
  8
Capa 1
 62
   255
370
    35
  0
POLYLINE
  5
63
330
41
100
AcDbEntity
  8
Capa 1
 62
   255
370
    35
100
AcDb2dPolyline
 66
     1
 10
0.0
 20
0.0
 30
0.0
  0
VERTEX
  5
64
330
63
100
AcDbEntity
  8
Capa 1
 62
   255
370
    35
100
AcDbVertex
100
AcDb2dVertex
 10
147.6978138099398
 20
-106.5277645274198
 30
0.0
  0
VERTEX
  5
65
330
63
100
AcDbEntity
  8
Capa 1
 62
   255
370
    35
100
AcDbVertex
100
AcDb2dVertex
 10
147.5380760065125
 20
-106.1649701942152
 30
0.0
  0
VERTEX
  5
66
330
63
100
AcDbEntity
  8
Capa 1
 62
   255
370
    35
100
AcDbVertex
100
AcDb2dVertex
 10
147.3688622316958
 20
-106.5277645274198
 30
0.0
  0
VERTEX
  5
67
330
63
100
AcDbEntity
  8
Capa 1
 62
   255
370
    35
100
AcDbVertex
100
AcDb2dVertex
 10
147.6978138099398
 20
-106.5277645274198
 30
0.0
  0
SEQEND
  5
68
330
63
100
AcDbEntity
  8
Capa 1
 62
   255
370
    35
  0
SPLINE
  5
69
330
41
100
AcDbEntity
  8
Capa 1
 62
   255
370
    35
100
AcDbSpline
210
0.0
220
0.0
230
1.0
 70
    11
 71
     3
 72
    47
 73
    43
 74
     0
 42
0.0000000001
 43
0.0000000001
 12
1.0
 22
0.0
 32
0.0
 13
1.0
 23
0.0
 33
0.0
 40
0.0
 40
0.0
 40
0.0
 40
0.0
 40
1.0
 40
1.0
 40
1.0
 40
2.0
 40
2.0
 40
2.0
 40
3.0
 40
3.0
 40
3.0
 40
4.0
 40
4.0
 40
4.0
 40
5.0
 40
5.0
 40
5.0
 40
6.0
 40
6.0
 40
6.0
 40
7.0
 40
7.0
 40
7.0
 40
8.0
 40
8.0
 40
8.0
 40
9.0
 40
9.0
 40
9.0
 40
10.0
 40
10.0
 40
10.0
 40
11.0
 40
11.0
 40
11.0
 40
12.0
 40
12.0
 40
12.0
 40
13.0
 40
13.0
 40
13.0
 40
14.0
 40
14.0
 40
14.0
 40
14.0
 10
149.3421956705699
 20
-105.9273940543688
 30
0.0
 10
149.3421956705699
 20
-105.9273940543688
 30
0.0
 10
149.6731778141085
 20
-105.9273940543688
 30
0.0
 10
149.6731778141085
 20
-105.9273940543688
 30
0.0
 10
149.6731778141085
 20
-105.9273940543688
 30
0.0
 10
149.6731778141085
 20
-106.4959523377589
 30
0.0
 10
149.6731778141085
 20
-106.4959523377589
 30
0.0
 10
149.6731778141085
 20
-106.5789798966023
 30
0.0
 10
149.6922049630149
 20
-106.6404985045116
 30
0.0
 10
149.730334466936
 20
-106.6804329553707
 30
0.0
 10
149.7684639708649
 20
-106.7203674062253
 30
0.0
 10
149.8272751583738
 20
-106.7402970285949
 30
0.0
 10
149.9066928233581
 20
-106.7402970285949
 30
0.0
 10
149.9843055414096
 20
-106.7402970285949
 30
0.0
 10
150.0422894615823
 20
-106.7199913756172
 30
0.0
 10
150.0806445838685
 20
-106.679380069658
 30
0.0
 10
150.1189997061649
 20
-106.6387687637033
 30
0.0
 10
150.1381772673138
 20
-106.5776261864015
 30
0.0
 10
150.1381772673138
 20
-106.4959523377589
 30
0.0
 10
150.1381772673138
 20
-106.4959523377589
 30
0.0
 10
150.1381772673138
 20
-105.9273940543688
 30
0.0
 10
150.1381772673138
 20
-105.9273940543688
 30
0.0
 10
150.1381772673138
 20
-105.9273940543688
 30
0.0
 10
150.4596834394661
 20
-105.9273940543688
 30
0.0
 10
150.4596834394661
 20
-105.9273940543688
 30
0.0
 10
150.4596834394661
 20
-105.9273940543688
 30
0.0
 10
150.4596834394661
 20
-106.491891207164
 30
0.0
 10
150.4596834394661
 20
-106.491891207164
 30
0.0
 10
150.4596834394661
 20
-106.6475678799932
 30
0.0
 10
150.4144093539402
 20
-106.7616555672801
 30
0.0
 10
150.3240115951258
 20
-106.8340790629047
 30
0.0
 10
150.2334634240663
 20
-106.9065025585242
 30
0.0
 10
150.0905717919949
 20
-106.9426767032753
 30
0.0
 10
149.8951862866767
 20
-106.9426767032753
 30
0.0
 10
149.7011544915498
 20
-106.9426767032753
 30
0.0
 10
149.5605190431411
 20
-106.9069537952574
 30
0.0
 10
149.4731295292159
 20
-106.8354327731011
 30
0.0
 10
149.3858904275332
 20
-106.7639117509474
 30
0.0
 10
149.3421956705699
 20
-106.6493728269253
 30
0.0
 10
149.3421956705699
 20
-106.491891207164
 30
0.0
 10
149.3421956705699
 20
-106.491891207164
 30
0.0
 10
149.3421956705699
 20
-105.9273940543688
 30
0.0
 10
149.3421956705699
 20
-105.9273940543688
 30
0.0
  0
POLYLINE
  5
6A
330
41
100
AcDbEntity
  8
Capa 1
 62
   255
370
    35
100
AcDb2dPolyline
 66
     1
 10
0.0
 20
0.0
 30
0.0
  0
VERTEX
  5
6B
330
6A
100
AcDbEntity
  8
Capa 1
 62
   255
370
    35
100
AcDbVertex
100
AcDb2dVertex
 10
152.0498416860274
 20
-106.9257553257943
 30
0.0
  0
VERTEX
  5
6C
330
6A
100
AcDbEntity
  8
Capa 1
 62
   255
370
    35
100
AcDbVertex
100
AcDb2dVertex
 10
152.0498416860274
 20
-106.1466951065289
 30
0.0
  0
VERTEX
  5
6D
330
6A
100
AcDbEntity
  8
Capa 1
 62
   255
370
    35
100
AcDbVertex
100
AcDb2dVertex
 10
151.678248236522
 20
-106.1466951065289
 30
0.0
  0
VERTEX
  5
6E
330
6A
100
AcDbEntity
  8
Capa 1
 62
   255
370
    35
100
AcDbVertex
100
AcDb2dVertex
 10
151.678248236522
 20
-105.9273940543688
 30
0.0
  0
VERTEX
  5
6F
330
6A
100
AcDbEntity
  8
Capa 1
 62
   255
370
    35
100
AcDbVertex
100
AcDb2dVertex
 10
152.7618932504575
 20
-105.9273940543688
 30
0.0
  0
VERTEX
  5
70
330
6A
100
AcDbEntity
  8
Capa 1
 62
   255
370
    35
100
AcDbVertex
100
AcDb2dVertex
 10
152.7618932504575
 20
-106.1466951065289
 30
0.0
  0
VERTEX
  5
71
330
6A
100
AcDbEntity
  8
Capa 1
 62
   255
370
    35
100
AcDbVertex
100
AcDb2dVertex
 10
152.3902998009598
 20
-106.1466951065289
 30
0.0
  0
VERTEX
  5
72
330
6A
100
AcDbEntity
  8
Capa 1
 62
   255
370
    35
100
AcDbVertex
100
AcDb2dVertex
 10
152.3902998009598
 20
-106.9257553257943
 30
0.0
  0
VERTEX
  5
73
330
6A
100
AcDbEntity
  8
Capa 1
 62
   255
370
    35
100
AcDbVertex
100
AcDb2dVertex
 10
152.0498416860274
 20
-106.9257553257943
 30
0.0
  0
SEQEND
  5
74
330
6A
100
AcDbEntity
  8
Capa 1
 62
   255
370
    35
  0
SPLINE
  5
75
330
41
100
AcDbEntity
  8
Capa 1
 62
   255
370
    35
100
AcDbSpline
210
0.0
220
0.0
230
1.0
 70
    11
 71
     3
 72
    29
 73
    25
 74
     0
 42
0.0000000001
 43
0.0000000001
 12
1.0
 22
0.0
 32
0.0
 13
1.0
 23
0.0
 33
0.0
 40
0.0
 40
0.0
 40
0.0
 40
0.0
 40
1.0
 40
1.0
 40
1.0
 40
2.0
 40
2.0
 40
2.0
 40
3.0
 40
3.0
 40
3.0
 40
4.0
 40
4.0
 40
4.0
 40
5.0
 40
5.0
 40
5.0
 40
6.0
 40
6.0
 40
6.0
 40
7.0
 40
7.0
 40
7.0
 40
8.0
 40
8.0
 40
8.0
 40
8.0
 10
154.5504452472262
 20
-106.9426767032753
 30
0.0
 10
154.3528035582388
 20
-106.9426767032753
 30
0.0
 10
154.2026169323215
 20
-106.8984555034576
 30
0.0
 10
154.1000357817217
 20
-106.8100131038184
 30
0.0
 10
153.9973042188731
 20
-106.7215707041786
 30
0.0
 10
153.946013643579
 20
-106.5925169985872
 30
0.0
 10
153.946013643579
 20
-106.4228519870348
 30
0.0
 10
153.946013643579
 20
-106.2576993428162
 30
0.0
 10
154.0002372576436
 20
-106.1309018208883
 30
0.0
 10
154.1087596918917
 20
-106.0424594212472
 30
0.0
 10
154.217282126141
 20
-105.9540170216086
 30
0.0
 10
154.372883592849
 20
-105.9097958217877
 30
0.0
 10
154.5754888859008
 20
-105.9097958217877
 30
0.0
 10
154.776289232016
 20
-105.9097958217877
 30
0.0
 10
154.929258484455
 20
-105.9544682583418
 30
0.0
 10
155.034396643205
 20
-106.0438131314378
 30
0.0
 10
155.1395348019615
 20
-106.1331580045479
 30
0.0
 10
155.1921038813371
 20
-106.2631141836088
 30
0.0
 10
155.1921038813371
 20
-106.433681668618
 30
0.0
 10
155.1921038813371
 20
-106.6006392597744
 30
0.0
 10
155.1379554733988
 20
-106.7272111633444
 30
0.0
 10
155.029658657512
 20
-106.8133973793151
 30
0.0
 10
154.9213618416315
 20
-106.8995835952909
 30
0.0
 10
154.7616240382003
 20
-106.9426767032753
 30
0.0
 10
154.5504452472262
 20
-106.9426767032753
 30
0.0
  0
SPLINE
  5
76
330
41
100
AcDbEntity
  8
Capa 1
 62
   255
370
    35
100
AcDbSpline
210
0.0
220
0.0
230
1.0
 70
    11
 71
     3
 72
    29
 73
    25
 74
     0
 42
0.0000000001
 43
0.0000000001
 12
1.0
 22
0.0
 32
0.0
 13
1.0
 23
0.0
 33
0.0
 40
0.0
 40
0.0
 40
0.0
 40
0.0
 40
1.0
 40
1.0
 40
1.0
 40
2.0
 40
2.0
 40
2.0
 40
3.0
 40
3.0
 40
3.0
 40
4.0
 40
4.0
 40
4.0
 40
5.0
 40
5.0
 40
5.0
 40
6.0
 40
6.0
 40
6.0
 40
7.0
 40
7.0
 40
7.0
 40
8.0
 40
8.0
 40
8.0
 40
8.0
 10
154.292563454406
 20
-106.4350353788188
 30
0.0
 10
154.292563454406
 20
-106.5365636437149
 30
0.0
 10
154.3154261155339
 20
-106.612822651563
 30
0.0
 10
154.3613018500451
 20
-106.6638124023773
 30
0.0
 10
154.4070271723035
 20
-106.7148021531928
 30
0.0
 10
154.4755399495712
 20
-106.7402970285949
 30
0.0
 10
154.5666897696122
 20
-106.7402970285949
 30
0.0
 10
154.6591932998431
 20
-106.7402970285949
 30
0.0
 10
154.7287589628235
 20
-106.7152533899209
 30
0.0
 10
154.7755371707972
 20
-106.6651661125775
 30
0.0
 10
154.8221649665207
 20
-106.6150788352309
 30
0.0
 10
154.8455540705102
 20
-106.5406247743098
 30
0.0
 10
154.8455540705102
 20
-106.4418039298129
 30
0.0
 10
154.8455540705102
 20
-106.3344095874007
 30
0.0
 10
154.8216385236682
 20
-106.2526605326331
 30
0.0
 10
154.7738074299857
 20
-106.1964815593931
 30
0.0
 10
154.7259763363031
 20
-106.1403025861494
 30
0.0
 10
154.6560346427152
 20
-106.1121754964675
 30
0.0
 10
154.563982349213
 20
-106.1121754964675
 30
0.0
 10
154.4782473699691
 20
-106.1121754964675
 30
0.0
 10
154.4115395396329
 20
-106.1403777922751
 30
0.0
 10
154.3640092704404
 20
-106.1967823838768
 30
0.0
 10
154.3163285890028
 20
-106.2531869754875
 30
0.0
 10
154.292563454406
 20
-106.3326046404667
 30
0.0
 10
154.292563454406
 20
-106.4350353788188
 30
0.0
  0
SPLINE
  5
77
330
41
100
AcDbEntity
  8
Capa 1
 62
   255
370
    35
100
AcDbSpline
210
0.0
220
0.0
230
1.0
 70
    11
 71
     3
 72
    32
 73
    28
 74
     0
 42
0.0000000001
 43
0.0000000001
 12
1.0
 22
0.0
 32
0.0
 13
1.0
 23
0.0
 33
0.0
 40
0.0
 40
0.0
 40
0.0
 40
0.0
 40
1.0
 40
1.0
 40
1.0
 40
2.0
 40
2.0
 40
2.0
 40
3.0
 40
3.0
 40
3.0
 40
4.0
 40
4.0
 40
4.0
 40
5.0
 40
5.0
 40
5.0
 40
6.0
 40
6.0
 40
6.0
 40
7.0
 40
7.0
 40
7.0
 40
8.0
 40
8.0
 40
8.0
 40
9.0
 40
9.0
 40
9.0
 40
9.0
 10
156.4424808680635
 20
-106.9257553257943
 30
0.0
 10
156.4424808680635
 20
-106.9257553257943
 30
0.0
 10
156.4424808680635
 20
-105.9273940543688
 30
0.0
 10
156.4424808680635
 20
-105.9273940543688
 30
0.0
 10
156.4424808680635
 20
-105.9273940543688
 30
0.0
 10
157.0550347329031
 20
-105.9273940543688
 30
0.0
 10
157.0550347329031
 20
-105.9273940543688
 30
0.0
 10
157.1895032792908
 20
-105.9273940543688
 30
0.0
 10
157.2871960319486
 20
-105.9514600134545
 30
0.0
 10
157.348112990888
 20
-105.9995167255021
 30
0.0
 10
157.4090299498223
 20
-106.0475734375528
 30
0.0
 10
157.4394884292863
 20
-106.1239076515228
 30
0.0
 10
157.4394884292863
 20
-106.2285945735474
 30
0.0
 10
157.4394884292863
 20
-106.3337327322993
 30
0.0
 10
157.4075258273784
 20
-106.4156321993076
 30
0.0
 10
157.3436758296786
 20
-106.4742929745765
 30
0.0
 10
157.2798258319827
 20
-106.5329537498512
 30
0.0
 10
157.1906313711274
 20
-106.5622841374838
 30
0.0
 10
157.0760172409771
 20
-106.5622841374838
 30
0.0
 10
157.0760172409771
 20
-106.5622841374838
 30
0.0
 10
156.778200997299
 20
-106.5622841374838
 30
0.0
 10
156.778200997299
 20
-106.5622841374838
 30
0.0
 10
156.778200997299
 20
-106.5622841374838
 30
0.0
 10
156.778200997299
 20
-106.9257553257943
 30
0.0
 10
156.778200997299
 20
-106.9257553257943
 30
0.0
 10
156.778200997299
 20
-106.9257553257943
 30
0.0
 10
156.4424808680635
 20
-106.9257553257943
 30
0.0
 10
156.4424808680635
 20
-106.9257553257943
 30
0.0
  0
SPLINE
  5
78
330
41
100
AcDbEntity
  8
Capa 1
 62
   255
370
    35
100
AcDbSpline
210
0.0
220
0.0
230
1.0
 70
    11
 71
     3
 72
    26
 73
    22
 74
     0
 42
0.0000000001
 43
0.0000000001
 12
1.0
 22
0.0
 32
0.0
 13
1.0
 23
0.0
 33
0.0
 40
0.0
 40
0.0
 40
0.0
 40
0.0
 40
1.0
 40
1.0
 40
1.0
 40
2.0
 40
2.0
 40
2.0
 40
3.0
 40
3.0
 40
3.0
 40
4.0
 40
4.0
 40
4.0
 40
5.0
 40
5.0
 40
5.0
 40
6.0
 40
6.0
 40
6.0
 40
7.0
 40
7.0
 40
7.0
 40
7.0
 10
156.778200997299
 20
-106.1358654249444
 30
0.0
 10
156.778200997299
 20
-106.1358654249444
 30
0.0
 10
156.778200997299
 20
-106.3450136506163
 30
0.0
 10
156.778200997299
 20
-106.3450136506163
 30
0.0
 10
156.778200997299
 20
-106.3450136506163
 30
0.0
 10
156.9677204250902
 20
-106.3450136506163
 30
0.0
 10
156.9677204250902
 20
-106.3450136506163
 30
0.0
 10
157.0123928616487
 20
-106.3450136506163
 30
0.0
 10
157.0455587615093
 20
-106.3363649465753
 30
0.0
 10
157.0672181246884
 20
-106.3189923323573
 30
0.0
 10
157.0888774878638
 20
-106.3016197181419
 30
0.0
 10
157.0997071694553
 20
-106.2750719570259
 30
0.0
 10
157.0997071694553
 20
-106.239424255137
 30
0.0
 10
157.0997071694553
 20
-106.2051302634406
 30
0.0
 10
157.0886518694988
 20
-106.1793345635421
 30
0.0
 10
157.0665412695909
 20
-106.1619619493272
 30
0.0
 10
157.0444306696791
 20
-106.1445893351125
 30
0.0
 10
157.0114903881875
 20
-106.1358654249444
 30
0.0
 10
156.9677204250902
 20
-106.1358654249444
 30
0.0
 10
156.9677204250902
 20
-106.1358654249444
 30
0.0
 10
156.778200997299
 20
-106.1358654249444
 30
0.0
 10
156.778200997299
 20
-106.1358654249444
 30
0.0
  0
POLYLINE
  5
79
330
41
100
AcDbEntity
  8
Capa 1
 62
   255
370
    35
100
AcDb2dPolyline
 66
     1
 10
0.0
 20
0.0
 30
0.0
  0
VERTEX
  5
7A
330
79
100
AcDbEntity
  8
Capa 1
 62
   255
370
    35
100
AcDbVertex
100
AcDb2dVertex
 10
158.6689581140574
 20
-106.9257553257943
 30
0.0
  0
VERTEX
  5
7B
330
79
100
AcDbEntity
  8
Capa 1
 62
   255
370
    35
100
AcDbVertex
100
AcDb2dVertex
 10
158.6689581140574
 20
-105.9273940543688
 30
0.0
  0
VERTEX
  5
7C
330
79
100
AcDbEntity
  8
Capa 1
 62
   255
370
    35
100
AcDbVertex
100
AcDb2dVertex
 10
159.0100930840899
 20
-105.9273940543688
 30
0.0
  0
VERTEX
  5
7D
330
79
100
AcDbEntity
  8
Capa 1
 62
   255
370
    35
100
AcDbVertex
100
AcDb2dVertex
 10
159.0100930840899
 20
-106.9257553257943
 30
0.0
  0
VERTEX
  5
7E
330
79
100
AcDbEntity
  8
Capa 1
 62
   255
370
    35
100
AcDbVertex
100
AcDb2dVertex
 10
158.6689581140574
 20
-106.9257553257943
 30
0.0
  0
SEQEND
  5
7F
330
79
100
AcDbEntity
  8
Capa 1
 62
   255
370
    35
  0
POLYLINE
  5
80
330
41
100
AcDbEntity
  8
Capa 1
 62
   255
370
    35
100
AcDb2dPolyline
 66
     1
 10
0.0
 20
0.0
 30
0.0
  0
VERTEX
  5
81
330
80
100
AcDbEntity
  8
Capa 1
 62
   255
370
    35
100
AcDbVertex
100
AcDb2dVertex
 10
161.1627931242641
 20
-106.7078079838274
 30
0.0
  0
VERTEX
  5
82
330
80
100
AcDbEntity
  8
Capa 1
 62
   255
370
    35
100
AcDbVertex
100
AcDb2dVertex
 10
161.1627931242641
 20
-106.9257553257943
 30
0.0
  0
VERTEX
  5
83
330
80
100
AcDbEntity
  8
Capa 1
 62
   255
370
    35
100
AcDbVertex
100
AcDb2dVertex
 10
160.3004797277966
 20
-106.9257553257943
 30
0.0
  0
VERTEX
  5
84
330
80
100
AcDbEntity
  8
Capa 1
 62
   255
370
    35
100
AcDbVertex
100
AcDb2dVertex
 10
160.3004797277966
 20
-105.9273940543688
 30
0.0
  0
VERTEX
  5
85
330
80
100
AcDbEntity
  8
Capa 1
 62
   255
370
    35
100
AcDbVertex
100
AcDb2dVertex
 10
160.6416146978266
 20
-105.9273940543688
 30
0.0
  0
VERTEX
  5
86
330
80
100
AcDbEntity
  8
Capa 1
 62
   255
370
    35
100
AcDbVertex
100
AcDb2dVertex
 10
160.6416146978266
 20
-106.7078079838274
 30
0.0
  0
VERTEX
  5
87
330
80
100
AcDbEntity
  8
Capa 1
 62
   255
370
    35
100
AcDbVertex
100
AcDb2dVertex
 10
161.1627931242641
 20
-106.7078079838274
 30
0.0
  0
SEQEND
  5
88
330
80
100
AcDbEntity
  8
Capa 1
 62
   255
370
    35
  0
SPLINE
  5
89
330
41
100
AcDbEntity
  8
Capa 1
 62
   255
370
    35
100
AcDbSpline
210
0.0
220
0.0
230
1.0
 70
    11
 71
     3
 72
    29
 73
    25
 74
     0
 42
0.0000000001
 43
0.0000000001
 12
1.0
 22
0.0
 32
0.0
 13
1.0
 23
0.0
 33
0.0
 40
0.0
 40
0.0
 40
0.0
 40
0.0
 40
1.0
 40
1.0
 40
1.0
 40
2.0
 40
2.0
 40
2.0
 40
3.0
 40
3.0
 40
3.0
 40
4.0
 40
4.0
 40
4.0
 40
5.0
 40
5.0
 40
5.0
 40
6.0
 40
6.0
 40
6.0
 40
7.0
 40
7.0
 40
7.0
 40
8.0
 40
8.0
 40
8.0
 40
8.0
 10
162.9397633782263
 20
-106.9426767032753
 30
0.0
 10
162.7421216892313
 20
-106.9426767032753
 30
0.0
 10
162.5919350633165
 20
-106.8984555034576
 30
0.0
 10
162.489353912718
 20
-106.8100131038184
 30
0.0
 10
162.3866223498693
 20
-106.7215707041786
 30
0.0
 10
162.3353317745714
 20
-106.5925169985872
 30
0.0
 10
162.3353317745714
 20
-106.4228519870348
 30
0.0
 10
162.3353317745714
 20
-106.2576993428162
 30
0.0
 10
162.3895553886399
 20
-106.1309018208883
 30
0.0
 10
162.4980778228879
 20
-106.0424594212472
 30
0.0
 10
162.6066002571398
 20
-105.9540170216086
 30
0.0
 10
162.7622017238478
 20
-105.9097958217877
 30
0.0
 10
162.9648070169009
 20
-105.9097958217877
 30
0.0
 10
163.1656073630122
 20
-105.9097958217877
 30
0.0
 10
163.3185766154513
 20
-105.9544682583418
 30
0.0
 10
163.4237147742039
 20
-106.0438131314378
 30
0.0
 10
163.5288529329603
 20
-106.1331580045479
 30
0.0
 10
163.5814220123334
 20
-106.2631141836088
 30
0.0
 10
163.5814220123334
 20
-106.433681668618
 30
0.0
 10
163.5814220123334
 20
-106.6006392597744
 30
0.0
 10
163.5272736043951
 20
-106.7272111633444
 30
0.0
 10
163.4189767885108
 20
-106.8133973793151
 30
0.0
 10
163.3106799726303
 20
-106.8995835952909
 30
0.0
 10
163.1509421691927
 20
-106.9426767032753
 30
0.0
 10
162.9397633782263
 20
-106.9426767032753
 30
0.0
  0
SPLINE
  5
8A
330
41
100
AcDbEntity
  8
Capa 1
 62
   255
370
    35
100
AcDbSpline
210
0.0
220
0.0
230
1.0
 70
    11
 71
     3
 72
    29
 73
    25
 74
     0
 42
0.0000000001
 43
0.0000000001
 12
1.0
 22
0.0
 32
0.0
 13
1.0
 23
0.0
 33
0.0
 40
0.0
 40
0.0
 40
0.0
 40
0.0
 40
1.0
 40
1.0
 40
1.0
 40
2.0
 40
2.0
 40
2.0
 40
3.0
 40
3.0
 40
3.0
 40
4.0
 40
4.0
 40
4.0
 40
5.0
 40
5.0
 40
5.0
 40
6.0
 40
6.0
 40
6.0
 40
7.0
 40
7.0
 40
7.0
 40
8.0
 40
8.0
 40
8.0
 40
8.0
 10
162.6818815853984
 20
-106.4350353788188
 30
0.0
 10
162.6818815853984
 20
-106.5365636437149
 30
0.0
 10
162.7047442465327
 20
-106.612822651563
 30
0.0
 10
162.7506199810375
 20
-106.6638124023773
 30
0.0
 10
162.7963453033036
 20
-106.7148021531928
 30
0.0
 10
162.8648580805662
 20
-106.7402970285949
 30
0.0
 10
162.9560079006071
 20
-106.7402970285949
 30
0.0
 10
163.0485114308419
 20
-106.7402970285949
 30
0.0
 10
163.1180770938197
 20
-106.7152533899209
 30
0.0
 10
163.1648553017896
 20
-106.6651661125775
 30
0.0
 10
163.2114830975234
 20
-106.6150788352309
 30
0.0
 10
163.2348722015064
 20
-106.5406247743098
 30
0.0
 10
163.2348722015064
 20
-106.4418039298129
 30
0.0
 10
163.2348722015064
 20
-106.3344095874007
 30
0.0
 10
163.2109566546683
 20
-106.2526605326331
 30
0.0
 10
163.1631255609819
 20
-106.1964815593931
 30
0.0
 10
163.1152944673019
 20
-106.1403025861494
 30
0.0
 10
163.0453527737114
 20
-106.1121754964675
 30
0.0
 10
162.9533004802093
 20
-106.1121754964675
 30
0.0
 10
162.8675655009654
 20
-106.1121754964675
 30
0.0
 10
162.8008576706253
 20
-106.1403777922751
 30
0.0
 10
162.7533274014328
 20
-106.1967823838768
 30
0.0
 10
162.7056467200017
 20
-106.2531869754875
 30
0.0
 10
162.6818815853984
 20
-106.3326046404667
 30
0.0
 10
162.6818815853984
 20
-106.4350353788188
 30
0.0
  0
POLYLINE
  5
8B
330
41
100
AcDbEntity
  8
Capa 1
 62
   255
370
    35
100
AcDb2dPolyline
 66
     1
 10
0.0
 20
0.0
 30
0.0
  0
VERTEX
  5
8C
330
8B
100
AcDbEntity
  8
Capa 1
 62
   255
370
    35
100
AcDbVertex
100
AcDb2dVertex
 10
165.1371358549526
 20
-106.9257553257943
 30
0.0
  0
VERTEX
  5
8D
330
8B
100
AcDbEntity
  8
Capa 1
 62
   255
370
    35
100
AcDbVertex
100
AcDb2dVertex
 10
165.1371358549526
 20
-106.1466951065289
 30
0.0
  0
VERTEX
  5
8E
330
8B
100
AcDbEntity
  8
Capa 1
 62
   255
370
    35
100
AcDbVertex
100
AcDb2dVertex
 10
164.765542405451
 20
-106.1466951065289
 30
0.0
  0
VERTEX
  5
8F
330
8B
100
AcDbEntity
  8
Capa 1
 62
   255
370
    35
100
AcDbVertex
100
AcDb2dVertex
 10
164.765542405451
 20
-105.9273940543688
 30
0.0
  0
VERTEX
  5
90
330
8B
100
AcDbEntity
  8
Capa 1
 62
   255
370
    35
100
AcDbVertex
100
AcDb2dVertex
 10
165.8491874193866
 20
-105.9273940543688
 30
0.0
  0
VERTEX
  5
91
330
8B
100
AcDbEntity
  8
Capa 1
 62
   255
370
    35
100
AcDbVertex
100
AcDb2dVertex
 10
165.8491874193866
 20
-106.1466951065289
 30
0.0
  0
VERTEX
  5
92
330
8B
100
AcDbEntity
  8
Capa 1
 62
   255
370
    35
100
AcDbVertex
100
AcDb2dVertex
 10
165.477593969885
 20
-106.1466951065289
 30
0.0
  0
VERTEX
  5
93
330
8B
100
AcDbEntity
  8
Capa 1
 62
   255
370
    35
100
AcDbVertex
100
AcDb2dVertex
 10
165.477593969885
 20
-106.9257553257943
 30
0.0
  0
VERTEX
  5
94
330
8B
100
AcDbEntity
  8
Capa 1
 62
   255
370
    35
100
AcDbVertex
100
AcDb2dVertex
 10
165.1371358549526
 20
-106.9257553257943
 30
0.0
  0
SEQEND
  5
95
330
8B
100
AcDbEntity
  8
Capa 1
 62
   255
370
    35
  0
SPLINE
  5
96
330
41
100
AcDbEntity
  8
Capa 1
 62
   255
370
    35
100
AcDbSpline
210
0.0
220
0.0
230
1.0
 70
    11
 71
     3
 72
   110
 73
   106
 74
     0
 42
0.0000000001
 43
0.0000000001
 12
1.0
 22
0.0
 32
0.0
 13
1.0
 23
0.0
 33
0.0
 40
0.0
 40
0.0
 40
0.0
 40
0.0
 40
1.0
 40
1.0
 40
1.0
 40
2.0
 40
2.0
 40
2.0
 40
3.0
 40
3.0
 40
3.0
 40
4.0
 40
4.0
 40
4.0
 40
5.0
 40
5.0
 40
5.0
 40
6.0
 40
6.0
 40
6.0
 40
7.0
 40
7.0
 40
7.0
 40
8.0
 40
8.0
 40
8.0
 40
9.0
 40
9.0
 40
9.0
 40
10.0
 40
10.0
 40
10.0
 40
11.0
 40
11.0
 40
11.0
 40
12.0
 40
12.0
 40
12.0
 40
13.0
 40
13.0
 40
13.0
 40
14.0
 40
14.0
 40
14.0
 40
15.0
 40
15.0
 40
15.0
 40
16.0
 40
16.0
 40
16.0
 40
17.0
 40
17.0
 40
17.0
 40
18.0
 40
18.0
 40
18.0
 40
19.0
 40
19.0
 40
19.0
 40
20.0
 40
20.0
 40
20.0
 40
21.0
 40
21.0
 40
21.0
 40
22.0
 40
22.0
 40
22.0
 40
23.0
 40
23.0
 40
23.0
 40
24.0
 40
24.0
 40
24.0
 40
25.0
 40
25.0
 40
25.0
 40
26.0
 40
26.0
 40
26.0
 40
27.0
 40
27.0
 40
27.0
 40
28.0
 40
28.0
 40
28.0
 40
29.0
 40
29.0
 40
29.0
 40
30.0
 40
30.0
 40
30.0
 40
31.0
 40
31.0
 40
31.0
 40
32.0
 40
32.0
 40
32.0
 40
33.0
 40
33.0
 40
33.0
 40
34.0
 40
34.0
 40
34.0
 40
35.0
 40
35.0
 40
35.0
 40
35.0
 10
167.3615073295326
 20
-106.5961268924541
 30
0.0
 10
167.3615073295326
 20
-106.596578129177
 30
0.0
 10
167.3615073295326
 20
-106.5974806026504
 30
0.0
 10
167.3615073295326
 20
-106.5988343128442
 30
0.0
 10
167.3597023825959
 20
-106.6114689413627
 30
0.0
 10
167.3587999091334
 20
-106.6207192943897
 30
0.0
 10
167.3587999091334
 20
-106.6265853719148
 30
0.0
 10
167.3587999091334
 20
-106.6653917309393
 30
0.0
 10
167.3754204621256
 20
-106.6942708818418
 30
0.0
 10
167.40851115587
 20
-106.7132228246199
 30
0.0
 10
167.4417522618531
 20
-106.7321747674051
 30
0.0
 10
167.4930428371536
 20
-106.7416507387944
 30
0.0
 10
167.5625332940153
 20
-106.7416507387944
 30
0.0
 10
167.6153279917534
 20
-106.7416507387944
 30
0.0
 10
167.6566913589352
 20
-106.7339045082095
 30
0.0
 10
167.6867738077904
 20
-106.718336840925
 30
0.0
 10
167.7167058444031
 20
-106.7027691736442
 30
0.0
 10
167.7317470688301
 20
-106.6814106349526
 30
0.0
 10
167.7317470688301
 20
-106.654336430984
 30
0.0
 10
167.7317470688301
 20
-106.6132738882962
 30
0.0
 10
167.6724094384584
 20
-106.5798823700681
 30
0.0
 10
167.5537341777229
 20
-106.5541618762947
 30
0.0
 10
167.5397458390035
 20
-106.5510032191661
 30
0.0
 10
167.5293673941484
 20
-106.5487470354983
 30
0.0
 10
167.5225988431575
 20
-106.5473933252968
 30
0.0
 10
167.5149278186977
 20
-106.5455883783685
 30
0.0
 10
167.5038725187412
 20
-106.5431065763401
 30
0.0
 10
167.4894329432906
 20
-106.5399479192096
 30
0.0
 10
167.3008159889607
 20
-106.4988853765218
 30
0.0
 10
167.179658926191
 20
-106.4542129399677
 30
0.0
 10
167.1259617549852
 20
-106.4059306095487
 30
0.0
 10
167.0997900244767
 20
-106.3824662994483
 30
0.0
 10
167.0800108143541
 20
-106.3547152403784
 30
0.0
 10
167.0667745368586
 20
-106.3226774323454
 30
0.0
 10
167.0533878471143
 20
-106.2906396243118
 30
0.0
 10
167.0467697083685
 20
-106.2545406856832
 30
0.0
 10
167.0467697083685
 20
-106.214380616463
 30
0.0
 10
167.0467697083685
 20
-106.1160110086974
 30
0.0
 10
167.090088434723
 20
-106.0411057110476
 30
0.0
 10
167.1767258874268
 20
-105.9896647235052
 30
0.0
 10
167.2633633401358
 20
-105.9382237359571
 30
0.0
 10
167.3901608620676
 20
-105.912503242185
 30
0.0
 10
167.5571184532183
 20
-105.912503242185
 30
0.0
 10
167.7218198607101
 20
-105.912503242185
 30
0.0
 10
167.8438793969449
 20
-105.9366444073945
 30
0.0
 10
167.9232970619267
 20
-105.9849267378077
 30
0.0
 10
168.0027147269033
 20
-106.0332090682222
 30
0.0
 10
168.0424235594012
 20
-106.1074375107751
 30
0.0
 10
168.0424235594012
 20
-106.2076120654702
 30
0.0
 10
168.0424235594012
 20
-106.2076120654702
 30
0.0
 10
168.0424235594012
 20
-106.2191186021599
 30
0.0
 10
168.0424235594012
 20
-106.2191186021599
 30
0.0
 10
168.0424235594012
 20
-106.2191186021599
 30
0.0
 10
167.7303933586286
 20
-106.2191186021599
 30
0.0
 10
167.7303933586286
 20
-106.2191186021599
 30
0.0
 10
167.7303933586286
 20
-106.2191186021599
 30
0.0
 10
167.7303933586286
 20
-106.214380616463
 30
0.0
 10
167.7303933586286
 20
-106.214380616463
 30
0.0
 10
167.7303933586286
 20
-106.1800866247672
 30
0.0
 10
167.7146000729828
 20
-106.1540653065012
 30
0.0
 10
167.6830135016888
 20
-106.136241455559
 30
0.0
 10
167.6514269303832
 20
-106.1184176046052
 30
0.0
 10
167.6051751652659
 20
-106.109468076076
 30
0.0
 10
167.5442582063329
 20
-106.109468076076
 30
0.0
 10
167.4968783493815
 20
-106.109468076076
 30
0.0
 10
167.4603281740192
 20
-106.1157853903356
 30
0.0
 10
167.4346076802509
 20
-106.1284200188528
 30
0.0
 10
167.4088871864723
 20
-106.1410546473707
 30
0.0
 10
167.3960269395933
 20
-106.1591041166856
 30
0.0
 10
167.3960269395933
 20
-106.1825684267911
 30
0.0
 10
167.3960269395933
 20
-106.2240822062174
 30
0.0
 10
167.464163686251
 20
-106.2595042897464
 30
0.0
 10
167.6004371795728
 20
-106.2888346773771
 30
0.0
 10
167.6266089100736
 20
-106.2942495181702
 30
0.0
 10
167.6471401814188
 20
-106.298536267134
 30
0.0
 10
167.6620309936033
 20
-106.301694924267
 30
0.0
 10
167.7590468911636
 20
-106.3233542874397
 30
0.0
 10
167.8280861112928
 20
-106.3420054057342
 30
0.0
 10
167.8691486539807
 20
-106.35757307302
 30
0.0
 10
167.9102111966686
 20
-106.3731407403014
 30
0.0
 10
167.9456332802021
 20
-106.3914910341019
 30
0.0
 10
167.9754149045698
 20
-106.4126991605472
 30
0.0
 10
168.0088064227979
 20
-106.4370659441198
 30
0.0
 10
168.03452691657
 20
-106.4677500419526
 30
0.0
 10
168.0525763858849
 20
-106.5047514540481
 30
0.0
 10
168.0706258551998
 20
-106.5417528661386
 30
0.0
 10
168.0796505898534
 20
-106.5823641720971
 30
0.0
 10
168.0796505898534
 20
-106.6265853719148
 30
0.0
 10
168.0796505898534
 20
-106.7281136368057
 30
0.0
 10
168.0324963512748
 20
-106.8061775915891
 30
0.0
 10
167.9381878741099
 20
-106.86077723626
 30
0.0
 10
167.8438793969449
 20
-106.9153768809424
 30
0.0
 10
167.7080571403557
 20
-106.9426767032753
 30
0.0
 10
167.5307211043499
 20
-106.9426767032753
 30
0.0
 10
167.3556412519991
 20
-106.9426767032753
 30
0.0
 10
167.2289189361976
 20
-106.9164297666519
 30
0.0
 10
167.1507045691685
 20
-106.8638606872698
 30
0.0
 10
167.0723397898943
 20
-106.8112916078929
 30
0.0
 10
167.0332326063816
 20
-106.7269855449762
 30
0.0
 10
167.0332326063816
 20
-106.6110177046283
 30
0.0
 10
167.0332326063816
 20
-106.6110177046283
 30
0.0
 10
167.0332326063816
 20
-106.5961268924541
 30
0.0
 10
167.0332326063816
 20
-106.5961268924541
 30
0.0
 10
167.0332326063816
 20
-106.5961268924541
 30
0.0
 10
167.3615073295326
 20
-106.5961268924541
 30
0.0
 10
167.3615073295326
 20
-106.5961268924541
 30
0.0
  0
INSERT
  5
98
330
41
100
AcDbEntity
  8
Capa 1
100
AcDbBlockReference
  2
block 3
 10
0.0
 20
0.0
 30
0.0
  0
ENDBLK
  5
44
330
41
100
AcDbEntity
  8
0
100
AcDbBlockEnd
  0
BLOCK
  5
99
330
97
100
AcDbEntity
  8
0
100
AcDbBlockBegin
  2
block 3
 70
     0
 10
0.0
 20
0.0
 30
0.0
  3
block 3
  1

  0
POLYLINE
  5
9B
330
97
100
AcDbEntity
  8
Capa 1
 62
   255
370
    35
100
AcDb2dPolyline
 66
     1
 10
0.0
 20
0.0
 30
0.0
  0
VERTEX
  5
9C
330
9B
100
AcDbEntity
  8
Capa 1
 62
   255
370
    35
100
AcDbVertex
100
AcDb2dVertex
 10
142.7263049716906
 20
-106.9257553257943
 30
0.0
  0
VERTEX
  5
9D
330
9B
100
AcDbEntity
  8
Capa 1
 62
   255
370
    35
100
AcDbVertex
100
AcDb2dVertex
 10
142.6384544575948
 20
-106.9257553257943
 30
0.0
  0
VERTEX
  5
9E
330
9B
100
AcDbEntity
  8
Capa 1
 62
   255
370
    35
100
AcDbVertex
100
AcDb2dVertex
 10
142.6384544575948
 20
-102.8870172265919
 30
0.0
  0
VERTEX
  5
9F
330
9B
100
AcDbEntity
  8
Capa 1
 62
   255
370
    35
100
AcDbVertex
100
AcDb2dVertex
 10
142.7263049716906
 20
-102.8870172265919
 30
0.0
  0
VERTEX
  5
A0
330
9B
100
AcDbEntity
  8
Capa 1
 62
   255
370
    35
100
AcDbVertex
100
AcDb2dVertex
 10
142.7263049716906
 20
-106.9257553257943
 30
0.0
  0
SEQEND
  5
A1
330
9B
100
AcDbEntity
  8
Capa 1
 62
   255
370
    35
  0
ENDBLK
  5
9A
330
97
100
AcDbEntity
  8
0
100
AcDbBlockEnd
  0
BLOCK
  5
A4
330
A2
100
AcDbEntity
  8
0
100
AcDbBlockBegin
  2
block 4
 70
     0
 10
0.0
 20
0.0
 30
0.0
  3
block 4
  1

  0
SPLINE
  5
A6
330
A2
100
AcDbEntity
  8
Capa 1
 62
   255
370
    35
100
AcDbSpline
210
0.0
220
0.0
230
1.0
 70
    11
 71
     3
 72
    32
 73
    28
 74
     0
 42
0.0000000001
 43
0.0000000001
 12
1.0
 22
0.0
 32
0.0
 13
1.0
 23
0.0
 33
0.0
 40
0.0
 40
0.0
 40
0.0
 40
0.0
 40
1.0
 40
1.0
 40
1.0
 40
2.0
 40
2.0
 40
2.0
 40
3.0
 40
3.0
 40
3.0
 40
4.0
 40
4.0
 40
4.0
 40
5.0
 40
5.0
 40
5.0
 40
6.0
 40
6.0
 40
6.0
 40
7.0
 40
7.0
 40
7.0
 40
8.0
 40
8.0
 40
8.0
 40
9.0
 40
9.0
 40
9.0
 40
9.0
 10
131.0297620721196
 20
-102.8861548998965
 30
0.0
 10
131.0297620721196
 20
-102.8861548998965
 30
0.0
 10
131.0297620721196
 20
-105.9377114390622
 30
0.0
 10
131.0297620721196
 20
-105.9377114390622
 30
0.0
 10
131.0297620721196
 20
-105.9377114390622
 30
0.0
 10
133.1156486226011
 20
-105.9377114390622
 30
0.0
 10
133.1156486226011
 20
-105.9377114390622
 30
0.0
 10
133.629983555412
 20
-105.9377114390622
 30
0.0
 10
133.9555649506797
 20
-105.7373915178622
 30
0.0
 10
134.0928849949421
 20
-105.3372438620007
 30
0.0
 10
134.0928849949421
 20
-105.3372438620007
 30
0.0
 10
135.0986681865201
 20
-105.3372438620007
 30
0.0
 10
135.0986681865201
 20
-105.3372438620007
 30
0.0
 10
135.0108128893845
 20
-105.8515787948115
 30
0.0
 10
134.7976961181815
 20
-106.2384374141315
 30
0.0
 10
134.4585795931033
 20
-106.4973275334226
 30
0.0
 10
134.1194630680251
 20
-106.7567098392516
 30
0.0
 10
133.6774795563845
 20
-106.8861548988969
 30
0.0
 10
133.1328751514512
 20
-106.8861548988969
 30
0.0
 10
133.1328751514512
 20
-106.8861548988969
 30
0.0
 10
130.0581858449725
 20
-106.8861548988969
 30
0.0
 10
130.0581858449725
 20
-106.8861548988969
 30
0.0
 10
130.0581858449725
 20
-106.8861548988969
 30
0.0
 10
130.0581858449725
 20
-102.8861548998965
 30
0.0
 10
130.0581858449725
 20
-102.8861548998965
 30
0.0
 10
130.0581858449725
 20
-102.8861548998965
 30
0.0
 10
131.0297620721196
 20
-102.8861548998965
 30
0.0
 10
131.0297620721196
 20
-102.8861548998965
 30
0.0
  0
SPLINE
  5
A7
330
A2
100
AcDbEntity
  8
Capa 1
 62
   255
370
    35
100
AcDbSpline
210
0.0
220
0.0
230
1.0
 70
    11
 71
     3
 72
    44
 73
    40
 74
     0
 42
0.0000000001
 43
0.0000000001
 12
1.0
 22
0.0
 32
0.0
 13
1.0
 23
0.0
 33
0.0
 40
0.0
 40
0.0
 40
0.0
 40
0.0
 40
1.0
 40
1.0
 40
1.0
 40
2.0
 40
2.0
 40
2.0
 40
3.0
 40
3.0
 40
3.0
 40
4.0
 40
4.0
 40
4.0
 40
5.0
 40
5.0
 40
5.0
 40
6.0
 40
6.0
 40
6.0
 40
7.0
 40
7.0
 40
7.0
 40
8.0
 40
8.0
 40
8.0
 40
9.0
 40
9.0
 40
9.0
 40
10.0
 40
10.0
 40
10.0
 40
11.0
 40
11.0
 40
11.0
 40
12.0
 40
12.0
 40
12.0
 40
13.0
 40
13.0
 40
13.0
 40
13.0
 10
135.5500032423937
 20
-102.8861548998965
 30
0.0
 10
135.5500032423937
 20
-102.8861548998965
 30
0.0
 10
139.5618157183196
 20
-102.8861548998965
 30
0.0
 10
139.5618157183196
 20
-102.8861548998965
 30
0.0
 10
139.8588502943496
 20
-102.8861548998965
 30
0.0
 10
140.1302911703737
 20
-102.9309438749068
 30
0.0
 10
140.3761383463919
 20
-103.0200296383889
 30
0.0
 10
140.6217394291409
 20
-103.1096075884095
 30
0.0
 10
140.832149174382
 20
-103.2356073422847
 30
0.0
 10
141.007613675384
 20
-103.3975367134759
 30
0.0
 10
141.1828320831167
 20
-103.5594660846677
 30
0.0
 10
141.3189216610327
 20
-103.7528953943277
 30
0.0
 10
141.4161285024012
 20
-103.9773324559179
 30
0.0
 10
141.5133353437698
 20
-104.2022617040467
 30
0.0
 10
141.5618157178195
 20
-104.4498315329499
 30
0.0
 10
141.5618157178195
 20
-104.7205341291662
 30
0.0
 10
141.5618157178195
 20
-104.7205341291662
 30
0.0
 10
141.5618157178195
 20
-106.8861548988969
 30
0.0
 10
141.5618157178195
 20
-106.8861548988969
 30
0.0
 10
141.5618157178195
 20
-106.8861548988969
 30
0.0
 10
140.5904855839413
 20
-106.8861548988969
 30
0.0
 10
140.5904855839413
 20
-106.8861548988969
 30
0.0
 10
140.5904855839413
 20
-106.8861548988969
 30
0.0
 10
140.5904855839413
 20
-104.8859088061274
 30
0.0
 10
140.5904855839413
 20
-104.8859088061274
 30
0.0
 10
140.5904855839413
 20
-104.181097682888
 30
0.0
 10
140.2474315665546
 20
-103.8286921212683
 30
0.0
 10
139.5618157183196
 20
-103.8286921212683
 30
0.0
 10
139.5618157183196
 20
-103.8286921212683
 30
0.0
 10
136.5159193243472
 20
-103.8286921212683
 30
0.0
 10
136.5159193243472
 20
-103.8286921212683
 30
0.0
 10
136.5159193243472
 20
-103.8286921212683
 30
0.0
 10
136.5159193243472
 20
-106.8861548988969
 30
0.0
 10
136.5159193243472
 20
-106.8861548988969
 30
0.0
 10
136.5159193243472
 20
-106.8861548988969
 30
0.0
 10
135.5500032423937
 20
-106.8861548988969
 30
0.0
 10
135.5500032423937
 20
-106.8861548988969
 30
0.0
 10
135.5500032423937
 20
-106.8861548988969
 30
0.0
 10
135.5500032423937
 20
-102.8861548998965
 30
0.0
 10
135.5500032423937
 20
-102.8861548998965
 30
0.0
  0
POLYLINE
  5
A8
330
A2
100
AcDbEntity
  8
Capa 1
 62
   255
370
    35
100
AcDb2dPolyline
 66
     1
 10
0.0
 20
0.0
 30
0.0
  0
VERTEX
  5
A9
330
A8
100
AcDbEntity
  8
Capa 1
 62
   255
370
    35
100
AcDbVertex
100
AcDb2dVertex
 10
138.0015843910365
 20
-104.3203864733047
 30
0.0
  0
VERTEX
  5
AA
330
A8
100
AcDbEntity
  8
Capa 1
 62
   255
370
    35
100
AcDbVertex
100
AcDb2dVertex
 10
138.9788207633772
 20
-104.3203864733047
 30
0.0
  0
VERTEX
  5
AB
330
A8
100
AcDbEntity
  8
Capa 1
 62
   255
370
    35
100
AcDbVertex
100
AcDb2dVertex
 10
138.9788207633772
 20
-106.8861548988969
 30
0.0
  0
VERTEX
  5
AC
330
A8
100
AcDbEntity
  8
Capa 1
 62
   255
370
    35
100
AcDbVertex
100
AcDb2dVertex
 10
138.0015843910365
 20
-106.8861548988969
 30
0.0
  0
VERTEX
  5
AD
330
A8
100
AcDbEntity
  8
Capa 1
 62
   255
370
    35
100
AcDbVertex
100
AcDb2dVertex
 10
138.0015843910365
 20
-104.3203864733047
 30
0.0
  0
SEQEND
  5
AE
330
A8
100
AcDbEntity
  8
Capa 1
 62
   255
370
    35
  0
ENDBLK
  5
A5
330
A2
100
AcDbEntity
  8
0
100
AcDbBlockEnd
  0
ENDSEC
  0
SECTION
  2
ENTITIES
  0
INSERT
  5
42
330
1F
100
AcDbEntity
  8
Capa 1
100
AcDbBlockReference
  2
block 2
 10
0.0
 20
0.0
 30
0.0
  0
INSERT
  5
A3
330
1F
100
AcDbEntity
  8
Capa 1
100
AcDbBlockReference
  2
block 4
 10
0.0
 20
0.0
 30
0.0
  0
ENDSEC
  0
SECTION
  2
OBJECTS
  0
DICTIONARY
  5
C
330
0
100
AcDbDictionary
281
     1
  3
ACAD_GROUP
350
D
  3
ACAD_LAYOUT
350
1A
  3
ACAD_MATERIAL
350
3B
  3
ACAD_MLEADERSTYLE
350
D6
  3
ACAD_MLINESTYLE
350
17
  3
ACAD_PLOTSETTINGS
350
19
  3
ACAD_PLOTSTYLENAME
350
E
  3
ACAD_TABLESTYLE
350
D5
  3
ACAD_VISUALSTYLE
350
2A
  0
DICTIONARY
  5
D
102
{ACAD_REACTORS
330
C
102
}
330
C
100
AcDbDictionary
281
     1
  0
DICTIONARY
  5
1A
102
{ACAD_REACTORS
330
C
102
}
330
C
100
AcDbDictionary
281
     1
  3
Layout1
350
1E
  3
Layout2
350
26
  3
Model
350
22
  0
DICTIONARY
  5
3B
102
{ACAD_REACTORS
330
C
102
}
330
C
100
AcDbDictionary
281
     1
  3
ByBlock
350
3D
  3
ByLayer
350
3C
  3
Global
350
3E
  0
DICTIONARY
  5
D6
102
{ACAD_REACTORS
330
C
102
}
330
C
100
AcDbDictionary
281
     1
  0
DICTIONARY
  5
17
102
{ACAD_REACTORS
330
C
102
}
330
C
100
AcDbDictionary
281
     1
  3
Standard
350
18
  0
DICTIONARY
  5
19
102
{ACAD_REACTORS
330
C
102
}
330
C
100
AcDbDictionary
281
     1
  0
ACDBDICTIONARYWDFLT
  5
E
102
{ACAD_REACTORS
330
C
102
}
330
C
100
AcDbDictionary
281
     1
  3
Normal
350
F
100
AcDbDictionaryWithDefault
340
F
  0
DICTIONARY
  5
D5
102
{ACAD_REACTORS
330
C
102
}
330
C
100
AcDbDictionary
281
     1
  0
DICTIONARY
  5
2A
102
{ACAD_REACTORS
330
C
102
}
330
C
100
AcDbDictionary
281
     1
  3
2dWireframe
350
2F
  3
3D Hidden
350
31
  3
3dWireframe
350
30
  3
Basic
350
32
  3
Brighten
350
36
  3
ColorChange
350
3A
  3
Conceptual
350
34
  3
Dim
350
35
  3
Facepattern
350
39
  3
Flat
350
2B
  3
FlatWithEdges
350
2C
  3
Gouraud
350
2D
  3
GouraudWithEdges
350
2E
  3
Linepattern
350
38
  3
Realistic
350
33
  3
Thicken
350
37
  0
LAYOUT
  5
1E
102
{ACAD_REACTORS
330
1A
102
}
330
1A
100
AcDbPlotSettings
  1

  2
none_device
  4

  6

 40
0.0
 41
0.0
 42
0.0
 43
0.0
 44
0.0
 45
0.0
 46
0.0
 47
0.0
 48
0.0
 49
0.0
140
0.0
141
0.0
142
1.0
143
1.0
 70
   688
 72
     0
 73
     0
 74
     5
  7

 75
    16
 76
     0
 77
     2
 78
   300
147
1.0
148
0.0
149
0.0
100
AcDbLayout
  1
Layout1
 70
     1
 71
     1
 10
0.0
 20
0.0
 11
12.0
 21
9.0
 12
0.0
 22
0.0
 32
0.0
 14
1.000000000000000E+20
 24
1.000000000000000E+20
 34
1.000000000000000E+20
 15
-1.000000000000000E+20
 25
-1.000000000000000E+20
 35
-1.000000000000000E+20
146
0.0
 13
0.0
 23
0.0
 33
0.0
 16
1.0
 26
0.0
 36
0.0
 17
0.0
 27
1.0
 37
0.0
 76
     0
330
1B
  0
LAYOUT
  5
26
102
{ACAD_REACTORS
330
1A
102
}
330
1A
100
AcDbPlotSettings
  1

  2
none_device
  4

  6

 40
0.0
 41
0.0
 42
0.0
 43
0.0
 44
0.0
 45
0.0
 46
0.0
 47
0.0
 48
0.0
 49
0.0
140
0.0
141
0.0
142
1.0
143
1.0
 70
   688
 72
     0
 73
     0
 74
     5
  7

 75
    16
 76
     0
 77
     2
 78
   300
147
1.0
148
0.0
149
0.0
100
AcDbLayout
  1
Layout2
 70
     1
 71
     2
 10
0.0
 20
0.0
 11
0.0
 21
0.0
 12
0.0
 22
0.0
 32
0.0
 14
0.0
 24
0.0
 34
0.0
 15
0.0
 25
0.0
 35
0.0
146
0.0
 13
0.0
 23
0.0
 33
0.0
 16
1.0
 26
0.0
 36
0.0
 17
0.0
 27
1.0
 37
0.0
 76
     0
330
23
  0
LAYOUT
  5
22
102
{ACAD_REACTORS
330
1A
102
}
330
1A
100
AcDbPlotSettings
  1

  2
none_device
  4

  6

 40
0.0
 41
0.0
 42
0.0
 43
0.0
 44
0.0
 45
0.0
 46
0.0
 47
0.0
 48
0.0
 49
0.0
140
0.0
141
0.0
142
1.0
143
1.0
 70
  1712
 72
     0
 73
     0
 74
     0
  7

 75
     0
 76
     0
 77
     2
 78
   300
147
1.0
148
0.0
149
0.0
100
AcDbLayout
  1
Model
 70
     1
 71
     0
 10
0.0
 20
0.0
 11
12.0
 21
9.0
 12
0.0
 22
0.0
 32
0.0
 14
1.000000000000000E+20
 24
1.000000000000000E+20
 34
1.000000000000000E+20
 15
-1.000000000000000E+20
 25
-1.000000000000000E+20
 35
-1.000000000000000E+20
146
0.0
 13
0.0
 23
0.0
 33
0.0
 16
1.0
 26
0.0
 36
0.0
 17
0.0
 27
1.0
 37
0.0
 76
     0
330
1F
331
29
  0
MATERIAL
  5
3D
102
{ACAD_REACTORS
330
3B
102
}
102
{ACAD_XDICTIONARY
360
D1
102
}
330
3B
100
AcDbMaterial
  1
ByBlock
  0
MATERIAL
  5
3C
102
{ACAD_REACTORS
330
3B
102
}
102
{ACAD_XDICTIONARY
360
CF
102
}
330
3B
100
AcDbMaterial
  1
ByLayer
  0
MATERIAL
  5
3E
102
{ACAD_REACTORS
330
3B
102
}
102
{ACAD_XDICTIONARY
360
D3
102
}
330
3B
100
AcDbMaterial
  1
Global
  0
MLINESTYLE
  5
18
102
{ACAD_REACTORS
330
17
102
}
330
17
100
AcDbMlineStyle
  2
Standard
 70
     0
  3

 62
   256
 51
90.0
 52
90.0
 71
     2
 49
0.5
 62
   256
  6
BYLAYER
 49
-0.5
 62
   256
  6
BYLAYER
  0
ACDBPLACEHOLDER
  5
F
102
{ACAD_REACTORS
330
E
102
}
330
E
  0
VISUALSTYLE
  5
2F
102
{ACAD_REACTORS
330
2A
102
}
102
{ACAD_XDICTIONARY
360
B7
102
}
330
2A
100
AcDbVisualStyle
  2
2dWireframe
 70
     4
 71
     0
 72
     2
 73
     0
 90
        0
 40
-0.6
 41
-30.0
 62
     5
 63
     7
421
 16777215
 74
     1
 91
        4
 64
     7
 65
   257
 75
     1
175
     1
 42
1.0
 92
        0
 66
   257
 43
1.0
 76
     1
 77
     6
 78
     2
 67
     7
 79
     5
170
     0
171
     0
290
     0
174
     0
 93
        1
 44
0.0
173
     0
291
     0
 45
0.0
1001
ACAD
1000
AcDbSavedByObjectVersion
1070
     0
  0
VISUALSTYLE
  5
31
102
{ACAD_REACTORS
330
2A
102
}
102
{ACAD_XDICTIONARY
360
BB
102
}
330
2A
100
AcDbVisualStyle
  2
3D Hidden
 70
     6
 71
     1
 72
     2
 73
     2
 90
        0
 40
-0.6
 41
-30.0
 62
     5
 63
     7
421
 16777215
 74
     2
 91
        2
 64
     7
 65
   257
 75
     2
175
     1
 42
40.0
 92
        0
 66
   257
 43
1.0
 76
     1
 77
     6
 78
     2
 67
     7
 79
     3
170
     0
171
     0
290
     0
174
     0
 93
        1
 44
0.0
173
     0
291
     0
 45
0.0
1001
ACAD
1000
AcDbSavedByObjectVersion
1070
     0
  0
VISUALSTYLE
  5
30
102
{ACAD_REACTORS
330
2A
102
}
102
{ACAD_XDICTIONARY
360
B9
102
}
330
2A
100
AcDbVisualStyle
  2
3dWireframe
 70
     5
 71
     0
 72
     2
 73
     0
 90
        0
 40
-0.6
 41
-30.0
 62
     5
 63
     7
421
 16777215
 74
     1
 91
        4
 64
     7
 65
   257
 75
     1
175
     1
 42
1.0
 92
        0
 66
   257
 43
1.0
 76
     1
 77
     6
 78
     2
 67
     7
 79
     5
170
     0
171
     0
290
     0
174
     0
 93
        1
 44
0.0
173
     0
291
     0
 45
0.0
1001
ACAD
1000
AcDbSavedByObjectVersion
1070
     0
  0
VISUALSTYLE
  5
32
102
{ACAD_REACTORS
330
2A
102
}
102
{ACAD_XDICTIONARY
360
BD
102
}
330
2A
100
AcDbVisualStyle
  2
Basic
 70
     7
 71
     1
 72
     0
 73
     1
 90
        0
 40
-0.6
 41
-30.0
 62
     5
 63
     7
421
 16777215
 74
     0
 91
        4
 64
     7
 65
   257
 75
     1
175
     1
 42
1.0
 92
        8
 66
     7
 43
1.0
 76
     1
 77
     6
 78
     2
 67
     7
 79
     5
170
     0
171
     0
290
     0
174
     0
 93
        1
 44
0.0
173
     0
291
     1
 45
0.0
1001
ACAD
1000
AcDbSavedByObjectVersion
1070
     0
  0
VISUALSTYLE
  5
36
102
{ACAD_REACTORS
330
2A
102
}
102
{ACAD_XDICTIONARY
360
C5
102
}
330
2A
100
AcDbVisualStyle
  2
Brighten
 70
    12
 71
     2
 72
     2
 73
     0
 90
        0
 40
-0.6
 41
-30.0
 62
     5
 63
     7
421
 16777215
 74
     1
 91
        4
 64
     7
 65
   257
 75
     1
175
     1
 42
1.0
 92
        8
 66
     7
 43
1.0
 76
     1
 77
     6
 78
     2
 67
     7
 79
     5
170
     0
171
     0
290
     0
174
     0
 93
        1
 44
50.0
173
     0
291
     1
 45
0.0
1001
ACAD
1000
AcDbSavedByObjectVersion
1070
     0
  0
VISUALSTYLE
  5
3A
102
{ACAD_REACTORS
330
2A
102
}
102
{ACAD_XDICTIONARY
360
CD
102
}
330
2A
100
AcDbVisualStyle
  2
ColorChange
 70
    16
 71
     2
 72
     2
 73
     3
 90
        0
 40
-0.6
 41
-30.0
 62
     5
 63
     8
421
  8421504
 74
     1
 91
        4
 64
     7
 65
   257
 75
     1
175
     1
 42
1.0
 92
        8
 66
     8
424
  8421504
 43
1.0
 76
     1
 77
     6
 78
     2
 67
     7
 79
     5
170
     0
171
     0
290
     0
174
     0
 93
        1
 44
0.0
173
     0
291
     1
 45
0.0
1001
ACAD
1000
AcDbSavedByObjectVersion
1070
     0
  0
VISUALSTYLE
  5
34
102
{ACAD_REACTORS
330
2A
102
}
102
{ACAD_XDICTIONARY
360
C1
102
}
330
2A
100
AcDbVisualStyle
  2
Conceptual
 70
     9
 71
     3
 72
     2
 73
     0
 90
        0
 40
-0.6
 41
-30.0
 62
     5
 63
     7
421
 16777215
 74
     2
 91
        2
 64
     7
 65
   257
 75
     1
175
     1
 42
40.0
 92
        8
 66
     7
 43
1.0
 76
     1
 77
     6
 78
     2
 67
     7
 79
     3
170
     0
171
     0
290
     0
174
     0
 93
        1
 44
0.0
173
     0
291
     0
 45
0.0
1001
ACAD
1000
AcDbSavedByObjectVersion
1070
     0
  0
VISUALSTYLE
  5
35
102
{ACAD_REACTORS
330
2A
102
}
102
{ACAD_XDICTIONARY
360
C3
102
}
330
2A
100
AcDbVisualStyle
  2
Dim
 70
    11
 71
     2
 72
     2
 73
     0
 90
        0
 40
-0.6
 41
-30.0
 62
     5
 63
     7
421
 16777215
 74
     1
 91
        4
 64
     7
 65
   257
 75
     1
175
     1
 42
1.0
 92
        8
 66
     7
 43
1.0
 76
     1
 77
     6
 78
     2
 67
     7
 79
     5
170
     0
171
     0
290
     0
174
     0
 93
        1
 44
-50.0
173
     0
291
     1
 45
0.0
1001
ACAD
1000
AcDbSavedByObjectVersion
1070
     0
  0
VISUALSTYLE
  5
39
102
{ACAD_REACTORS
330
2A
102
}
102
{ACAD_XDICTIONARY
360
CB
102
}
330
2A
100
AcDbVisualStyle
  2
Facepattern
 70
    15
 71
     2
 72
     2
 73
     0
 90
        0
 40
-0.6
 41
-30.0
 62
     5
 63
     7
421
 16777215
 74
     1
 91
        4
 64
     7
 65
   257
 75
     1
175
     1
 42
1.0
 92
        8
 66
     7
 43
1.0
 76
     1
 77
     6
 78
     2
 67
     7
 79
     5
170
     0
171
     0
290
     0
174
     0
 93
        1
 44
0.0
173
     0
291
     1
 45
0.0
1001
ACAD
1000
AcDbSavedByObjectVersion
1070
     0
  0
VISUALSTYLE
  5
2B
102
{ACAD_REACTORS
330
2A
102
}
102
{ACAD_XDICTIONARY
360
AF
102
}
330
2A
100
AcDbVisualStyle
  2
Flat
 70
     0
 71
     2
 72
     1
 73
     1
 90
        2
 40
-0.6
 41
30.0
 62
     5
 63
     7
421
 16777215
 74
     0
 91
        4
 64
     7
 65
   257
 75
     1
175
     1
 42
1.0
 92
        8
 66
     7
 43
1.0
 76
     1
 77
     6
 78
     2
 67
     7
 79
     5
170
     0
171
     0
290
     0
174
     0
 93
       13
 44
0.0
173
     0
291
     1
 45
0.0
1001
ACAD
1000
AcDbSavedByObjectVersion
1070
     0
  0
VISUALSTYLE
  5
2C
102
{ACAD_REACTORS
330
2A
102
}
102
{ACAD_XDICTIONARY
360
B1
102
}
330
2A
100
AcDbVisualStyle
  2
FlatWithEdges
 70
     1
 71
     2
 72
     1
 73
     1
 90
        2
 40
-0.6
 41
30.0
 62
     5
 63
     7
421
 16777215
 74
     1
 91
        4
 64
     7
 65
   257
 75
     1
175
     1
 42
1.0
 92
        0
 66
   257
 43
1.0
 76
     1
 77
     6
 78
     2
 67
     7
 79
     5
170
     0
171
     0
290
     0
174
     0
 93
       13
 44
0.0
173
     0
291
     1
 45
0.0
1001
ACAD
1000
AcDbSavedByObjectVersion
1070
     0
  0
VISUALSTYLE
  5
2D
102
{ACAD_REACTORS
330
2A
102
}
102
{ACAD_XDICTIONARY
360
B3
102
}
330
2A
100
AcDbVisualStyle
  2
Gouraud
 70
     2
 71
     2
 72
     2
 73
     1
 90
        2
 40
-0.6
 41
30.0
 62
     5
 63
     7
421
 16777215
 74
     0
 91
        4
 64
     7
 65
   257
 75
     1
175
     1
 42
1.0
 92
        0
 66
     7
 43
1.0
 76
     1
 77
     6
 78
     2
 67
     7
 79
     5
170
     0
171
     0
290
     0
174
     0
 93
       13
 44
0.0
173
     0
291
     1
 45
0.0
1001
ACAD
1000
AcDbSavedByObjectVersion
1070
     0
  0
VISUALSTYLE
  5
2E
102
{ACAD_REACTORS
330
2A
102
}
102
{ACAD_XDICTIONARY
360
B5
102
}
330
2A
100
AcDbVisualStyle
  2
GouraudWithEdges
 70
     3
 71
     2
 72
     2
 73
     1
 90
        2
 40
-0.6
 41
30.0
 62
     5
 63
     7
421
 16777215
 74
     1
 91
        4
 64
     7
 65
   257
 75
     1
175
     1
 42
1.0
 92
        0
 66
   257
 43
1.0
 76
     1
 77
     6
 78
     2
 67
     7
 79
     5
170
     0
171
     0
290
     0
174
     0
 93
       13
 44
0.0
173
     0
291
     1
 45
0.0
1001
ACAD
1000
AcDbSavedByObjectVersion
1070
     0
  0
VISUALSTYLE
  5
38
102
{ACAD_REACTORS
330
2A
102
}
102
{ACAD_XDICTIONARY
360
C9
102
}
330
2A
100
AcDbVisualStyle
  2
Linepattern
 70
    14
 71
     2
 72
     2
 73
     0
 90
        0
 40
-0.6
 41
-30.0
 62
     5
 63
     7
421
 16777215
 74
     1
 91
        4
 64
     7
 65
   257
 75
     7
175
     7
 42
1.0
 92
        8
 66
     7
 43
1.0
 76
     1
 77
     6
 78
     2
 67
     7
 79
     5
170
     0
171
     0
290
     0
174
     0
 93
        1
 44
0.0
173
     0
291
     1
 45
0.0
1001
ACAD
1000
AcDbSavedByObjectVersion
1070
     0
  0
VISUALSTYLE
  5
33
102
{ACAD_REACTORS
330
2A
102
}
102
{ACAD_XDICTIONARY
360
BF
102
}
330
2A
100
AcDbVisualStyle
  2
Realistic
 70
     8
 71
     2
 72
     2
 73
     0
 90
        0
 40
-0.6
 41
-30.0
 62
     5
 63
     7
421
 16777215
 74
     1
 91
        0
 64
     7
 65
   257
 75
     1
175
     1
 42
1.0
 92
        8
 66
     8
424
  7895160
 43
1.0
 76
     1
 77
     6
 78
     2
 67
     7
 79
     5
170
     0
171
     0
290
     0
174
     0
 93
       13
 44
0.0
173
     0
291
     0
 45
0.0
1001
ACAD
1000
AcDbSavedByObjectVersion
1070
     0
  0
VISUALSTYLE
  5
37
102
{ACAD_REACTORS
330
2A
102
}
102
{ACAD_XDICTIONARY
360
C7
102
}
330
2A
100
AcDbVisualStyle
  2
Thicken
 70
    13
 71
     2
 72
     2
 73
     0
 90
        0
 40
-0.6
 41
-30.0
 62
     5
 63
     7
421
 16777215
 74
     1
 91
        4
 64
     7
 65
   257
 75
     1
175
     1
 42
1.0
 92
       12
 66
     7
 43
1.0
 76
     1
 77
     6
 78
     2
 67
     7
 79
     5
170
     0
171
     0
290
     0
174
     0
 93
        1
 44
0.0
173
     0
291
     1
 45
0.0
1001
ACAD
1000
AcDbSavedByObjectVersion
1070
     0
  0
DICTIONARY
  5
D1
330
3D
100
AcDbDictionary
280
     1
281
     1
  3
ACAD_XREC_ROUNDTRIP
360
D2
  0
DICTIONARY
  5
CF
330
3C
100
AcDbDictionary
280
     1
281
     1
  3
ACAD_XREC_ROUNDTRIP
360
D0
  0
DICTIONARY
  5
D3
330
3E
100
AcDbDictionary
280
     1
281
     1
  3
ACAD_XREC_ROUNDTRIP
360
D4
  0
DICTIONARY
  5
B7
330
2F
100
AcDbDictionary
280
     1
281
     1
  3
ACAD_XREC_ROUNDTRIP
360
B8
  0
DICTIONARY
  5
BB
330
31
100
AcDbDictionary
280
     1
281
     1
  3
ACAD_XREC_ROUNDTRIP
360
BC
  0
DICTIONARY
  5
B9
330
30
100
AcDbDictionary
280
     1
281
     1
  3
ACAD_XREC_ROUNDTRIP
360
BA
  0
DICTIONARY
  5
BD
330
32
100
AcDbDictionary
280
     1
281
     1
  3
ACAD_XREC_ROUNDTRIP
360
BE
  0
DICTIONARY
  5
C5
330
36
100
AcDbDictionary
280
     1
281
     1
  3
ACAD_XREC_ROUNDTRIP
360
C6
  0
DICTIONARY
  5
CD
330
3A
100
AcDbDictionary
280
     1
281
     1
  3
ACAD_XREC_ROUNDTRIP
360
CE
  0
DICTIONARY
  5
C1
330
34
100
AcDbDictionary
280
     1
281
     1
  3
ACAD_XREC_ROUNDTRIP
360
C2
  0
DICTIONARY
  5
C3
330
35
100
AcDbDictionary
280
     1
281
     1
  3
ACAD_XREC_ROUNDTRIP
360
C4
  0
DICTIONARY
  5
CB
330
39
100
AcDbDictionary
280
     1
281
     1
  3
ACAD_XREC_ROUNDTRIP
360
CC
  0
DICTIONARY
  5
AF
330
2B
100
AcDbDictionary
280
     1
281
     1
  3
ACAD_XREC_ROUNDTRIP
360
B0
  0
DICTIONARY
  5
B1
330
2C
100
AcDbDictionary
280
     1
281
     1
  3
ACAD_XREC_ROUNDTRIP
360
B2
  0
DICTIONARY
  5
B3
330
2D
100
AcDbDictionary
280
     1
281
     1
  3
ACAD_XREC_ROUNDTRIP
360
B4
  0
DICTIONARY
  5
B5
330
2E
100
AcDbDictionary
280
     1
281
     1
  3
ACAD_XREC_ROUNDTRIP
360
B6
  0
DICTIONARY
  5
C9
330
38
100
AcDbDictionary
280
     1
281
     1
  3
ACAD_XREC_ROUNDTRIP
360
CA
  0
DICTIONARY
  5
BF
330
33
100
AcDbDictionary
280
     1
281
     1
  3
ACAD_XREC_ROUNDTRIP
360
C0
  0
DICTIONARY
  5
C7
330
37
100
AcDbDictionary
280
     1
281
     1
  3
ACAD_XREC_ROUNDTRIP
360
C8
  0
XRECORD
  5
D2
102
{ACAD_REACTORS
330
D1
102
}
330
D1
100
AcDbXrecord
280
     1
102
MATERIAL
148
0.0
149
0.0
149
0.0
 93
        0
 94
      127
282
     0
 72
     1
 77
     1
171
     1
175
     1
179
     1
273
     0
  0
XRECORD
  5
D0
102
{ACAD_REACTORS
330
CF
102
}
330
CF
100
AcDbXrecord
280
     1
102
MATERIAL
148
0.0
149
0.0
149
0.0
 93
        0
 94
      127
282
     0
 72
     1
 77
     1
171
     1
175
     1
179
     1
273
     0
  0
XRECORD
  5
D4
102
{ACAD_REACTORS
330
D3
102
}
330
D3
100
AcDbXrecord
280
     1
102
MATERIAL
148
0.0
149
0.0
149
0.0
 93
        0
 94
      127
282
     0
 72
     1
 77
     1
171
     1
175
     1
179
     1
273
     0
  0
XRECORD
  5
B8
102
{ACAD_REACTORS
330
B7
102
}
330
B7
100
AcDbXrecord
280
     1
102
RTVSPropertyOp0
 70
     1
102
RTVSPropertyOp1
 70
     1
102
RTVSPropertyOp2
 70
     1
102
RTVSPropertyOp3
 70
     1
102
RTVSPropertyOp4
 70
     1
102
RTVSPropertyOp5
 70
     1
102
RTVSPropertyOp6
 70
     1
102
RTVSPropertyOp7
 70
     1
102
RTVSPropertyOp8
 70
     1
102
RTVSPropertyOp9
 70
     1
102
RTVSPropertyOp10
 70
     1
102
RTVSPropertyOp11
 70
     1
102
RTVSPropertyOp12
 70
     1
102
RTVSPropertyOp13
 70
     1
102
RTVSPropertyOp14
 70
     1
102
RTVSPropertyOp15
 70
     1
102
RTVSPropertyOp16
 70
     1
102
RTVSPropertyOp17
 70
     1
102
RTVSPropertyOp18
 70
     1
102
RTVSPropertyOp19
 70
     1
102
RTVSPropertyOp20
 70
     1
102
RTVSPropertyOp21
 70
     1
102
RTVSPropertyOp22
 70
     1
102
RTVSPropertyOp23
 70
     1
102
RTVSPropertyOp24
 70
     1
102
RTVSPropertyOp25
 70
     1
102
RTVSPropertyOp26
 70
     1
102
RTVSPropertyOp27
 70
     1
102
RTVSPropertyOp28
 70
     1
102
RTVSPropertyOp29
 70
     1
102
RTVSPropertyOp30
 70
     1
102
RTVSPropertyOp31
 70
     1
102
RTVSPropertyOp32
 70
     1
  0
XRECORD
  5
BC
102
{ACAD_REACTORS
330
BB
102
}
330
BB
100
AcDbXrecord
280
     1
102
RTVSPropertyOp0
 70
     1
102
RTVSPropertyOp1
 70
     1
102
RTVSPropertyOp2
 70
     1
102
RTVSPropertyOp3
 70
     1
102
RTVSPropertyOp4
 70
     1
102
RTVSPropertyOp5
 70
     1
102
RTVSPropertyOp6
 70
     1
102
RTVSPropertyOp7
 70
     1
102
RTVSPropertyOp8
 70
     1
102
RTVSPropertyOp9
 70
     1
102
RTVSPropertyOp10
 70
     1
102
RTVSPropertyOp11
 70
     1
102
RTVSPropertyOp12
 70
     1
102
RTVSPropertyOp13
 70
     1
102
RTVSPropertyOp14
 70
     1
102
RTVSPropertyOp15
 70
     1
102
RTVSPropertyOp16
 70
     1
102
RTVSPropertyOp17
 70
     1
102
RTVSPropertyOp18
 70
     1
102
RTVSPropertyOp19
 70
     1
102
RTVSPropertyOp20
 70
     1
102
RTVSPropertyOp21
 70
     1
102
RTVSPropertyOp22
 70
     1
102
RTVSPropertyOp23
 70
     1
102
RTVSPropertyOp24
 70
     1
102
RTVSPropertyOp25
 70
     1
102
RTVSPropertyOp26
 70
     1
102
RTVSPropertyOp27
 70
     1
102
RTVSPropertyOp28
 70
     1
102
RTVSPropertyOp29
 70
     1
102
RTVSPropertyOp30
 70
     1
102
RTVSPropertyOp31
 70
     1
102
RTVSPropertyOp32
 70
     1
  0
XRECORD
  5
BA
102
{ACAD_REACTORS
330
B9
102
}
330
B9
100
AcDbXrecord
280
     1
102
RTVSPropertyOp0
 70
     1
102
RTVSPropertyOp1
 70
     1
102
RTVSPropertyOp2
 70
     1
102
RTVSPropertyOp3
 70
     1
102
RTVSPropertyOp4
 70
     1
102
RTVSPropertyOp5
 70
     1
102
RTVSPropertyOp6
 70
     1
102
RTVSPropertyOp7
 70
     1
102
RTVSPropertyOp8
 70
     1
102
RTVSPropertyOp9
 70
     1
102
RTVSPropertyOp10
 70
     1
102
RTVSPropertyOp11
 70
     1
102
RTVSPropertyOp12
 70
     1
102
RTVSPropertyOp13
 70
     1
102
RTVSPropertyOp14
 70
     1
102
RTVSPropertyOp15
 70
     1
102
RTVSPropertyOp16
 70
     1
102
RTVSPropertyOp17
 70
     1
102
RTVSPropertyOp18
 70
     1
102
RTVSPropertyOp19
 70
     1
102
RTVSPropertyOp20
 70
     1
102
RTVSPropertyOp21
 70
     1
102
RTVSPropertyOp22
 70
     1
102
RTVSPropertyOp23
 70
     1
102
RTVSPropertyOp24
 70
     1
102
RTVSPropertyOp25
 70
     1
102
RTVSPropertyOp26
 70
     1
102
RTVSPropertyOp27
 70
     1
102
RTVSPropertyOp28
 70
     1
102
RTVSPropertyOp29
 70
     1
102
RTVSPropertyOp30
 70
     1
102
RTVSPropertyOp31
 70
     1
102
RTVSPropertyOp32
 70
     1
  0
XRECORD
  5
BE
102
{ACAD_REACTORS
330
BD
102
}
330
BD
100
AcDbXrecord
280
     1
102
RTVSPropertyOp0
 70
     1
102
RTVSPropertyOp1
 70
     1
102
RTVSPropertyOp2
 70
     1
102
RTVSPropertyOp3
 70
     1
102
RTVSPropertyOp4
 70
     1
102
RTVSPropertyOp5
 70
     1
102
RTVSPropertyOp6
 70
     1
102
RTVSPropertyOp7
 70
     1
102
RTVSPropertyOp8
 70
     1
102
RTVSPropertyOp9
 70
     1
102
RTVSPropertyOp10
 70
     1
102
RTVSPropertyOp11
 70
     1
102
RTVSPropertyOp12
 70
     1
102
RTVSPropertyOp13
 70
     1
102
RTVSPropertyOp14
 70
     1
102
RTVSPropertyOp15
 70
     1
102
RTVSPropertyOp16
 70
     1
102
RTVSPropertyOp17
 70
     1
102
RTVSPropertyOp18
 70
     1
102
RTVSPropertyOp19
 70
     1
102
RTVSPropertyOp20
 70
     1
102
RTVSPropertyOp21
 70
     1
102
RTVSPropertyOp22
 70
     1
102
RTVSPropertyOp23
 70
     1
102
RTVSPropertyOp24
 70
     1
102
RTVSPropertyOp25
 70
     1
102
RTVSPropertyOp26
 70
     1
102
RTVSPropertyOp27
 70
     1
102
RTVSPropertyOp28
 70
     1
102
RTVSPropertyOp29
 70
     1
102
RTVSPropertyOp30
 70
     1
102
RTVSPropertyOp31
 70
     1
102
RTVSPropertyOp32
 70
     1
  0
XRECORD
  5
C6
102
{ACAD_REACTORS
330
C5
102
}
330
C5
100
AcDbXrecord
280
     1
102
RTVSPropertyOp0
 70
     1
102
RTVSPropertyOp1
 70
     1
102
RTVSPropertyOp2
 70
     1
102
RTVSPropertyOp3
 70
     1
102
RTVSPropertyOp4
 70
     1
102
RTVSPropertyOp5
 70
     1
102
RTVSPropertyOp6
 70
     1
102
RTVSPropertyOp7
 70
     1
102
RTVSPropertyOp8
 70
     1
102
RTVSPropertyOp9
 70
     1
102
RTVSPropertyOp10
 70
     1
102
RTVSPropertyOp11
 70
     1
102
RTVSPropertyOp12
 70
     1
102
RTVSPropertyOp13
 70
     1
102
RTVSPropertyOp14
 70
     1
102
RTVSPropertyOp15
 70
     1
102
RTVSPropertyOp16
 70
     1
102
RTVSPropertyOp17
 70
     1
102
RTVSPropertyOp18
 70
     1
102
RTVSPropertyOp19
 70
     1
102
RTVSPropertyOp20
 70
     1
102
RTVSPropertyOp21
 70
     1
102
RTVSPropertyOp22
 70
     1
102
RTVSPropertyOp23
 70
     1
102
RTVSPropertyOp24
 70
     1
102
RTVSPropertyOp25
 70
     1
102
RTVSPropertyOp26
 70
     1
102
RTVSPropertyOp27
 70
     1
102
RTVSPropertyOp28
 70
     1
102
RTVSPropertyOp29
 70
     1
102
RTVSPropertyOp30
 70
     1
102
RTVSPropertyOp31
 70
     1
102
RTVSPropertyOp32
 70
     1
  0
XRECORD
  5
CE
102
{ACAD_REACTORS
330
CD
102
}
330
CD
100
AcDbXrecord
280
     1
102
RTVSPropertyOp0
 70
     1
102
RTVSPropertyOp1
 70
     1
102
RTVSPropertyOp2
 70
     1
102
RTVSPropertyOp3
 70
     1
102
RTVSPropertyOp4
 70
     1
102
RTVSPropertyOp5
 70
     1
102
RTVSPropertyOp6
 70
     1
102
RTVSPropertyOp7
 70
     1
102
RTVSPropertyOp8
 70
     1
102
RTVSPropertyOp9
 70
     1
102
RTVSPropertyOp10
 70
     1
102
RTVSPropertyOp11
 70
     1
102
RTVSPropertyOp12
 70
     1
102
RTVSPropertyOp13
 70
     1
102
RTVSPropertyOp14
 70
     1
102
RTVSPropertyOp15
 70
     1
102
RTVSPropertyOp16
 70
     1
102
RTVSPropertyOp17
 70
     1
102
RTVSPropertyOp18
 70
     1
102
RTVSPropertyOp19
 70
     1
102
RTVSPropertyOp20
 70
     1
102
RTVSPropertyOp21
 70
     1
102
RTVSPropertyOp22
 70
     1
102
RTVSPropertyOp23
 70
     1
102
RTVSPropertyOp24
 70
     1
102
RTVSPropertyOp25
 70
     1
102
RTVSPropertyOp26
 70
     1
102
RTVSPropertyOp27
 70
     1
102
RTVSPropertyOp28
 70
     1
102
RTVSPropertyOp29
 70
     1
102
RTVSPropertyOp30
 70
     1
102
RTVSPropertyOp31
 70
     1
102
RTVSPropertyOp32
 70
     1
  0
XRECORD
  5
C2
102
{ACAD_REACTORS
330
C1
102
}
330
C1
100
AcDbXrecord
280
     1
102
RTVSPropertyOp0
 70
     1
102
RTVSPropertyOp1
 70
     1
102
RTVSPropertyOp2
 70
     1
102
RTVSPropertyOp3
 70
     1
102
RTVSPropertyOp4
 70
     1
102
RTVSPropertyOp5
 70
     1
102
RTVSPropertyOp6
 70
     1
102
RTVSPropertyOp7
 70
     1
102
RTVSPropertyOp8
 70
     1
102
RTVSPropertyOp9
 70
     1
102
RTVSPropertyOp10
 70
     1
102
RTVSPropertyOp11
 70
     1
102
RTVSPropertyOp12
 70
     1
102
RTVSPropertyOp13
 70
     1
102
RTVSPropertyOp14
 70
     1
102
RTVSPropertyOp15
 70
     1
102
RTVSPropertyOp16
 70
     1
102
RTVSPropertyOp17
 70
     1
102
RTVSPropertyOp18
 70
     1
102
RTVSPropertyOp19
 70
     1
102
RTVSPropertyOp20
 70
     1
102
RTVSPropertyOp21
 70
     1
102
RTVSPropertyOp22
 70
     1
102
RTVSPropertyOp23
 70
     1
102
RTVSPropertyOp24
 70
     1
102
RTVSPropertyOp25
 70
     1
102
RTVSPropertyOp26
 70
     1
102
RTVSPropertyOp27
 70
     1
102
RTVSPropertyOp28
 70
     1
102
RTVSPropertyOp29
 70
     1
102
RTVSPropertyOp30
 70
     1
102
RTVSPropertyOp31
 70
     1
102
RTVSPropertyOp32
 70
     1
  0
XRECORD
  5
C4
102
{ACAD_REACTORS
330
C3
102
}
330
C3
100
AcDbXrecord
280
     1
102
RTVSPropertyOp0
 70
     1
102
RTVSPropertyOp1
 70
     1
102
RTVSPropertyOp2
 70
     1
102
RTVSPropertyOp3
 70
     1
102
RTVSPropertyOp4
 70
     1
102
RTVSPropertyOp5
 70
     1
102
RTVSPropertyOp6
 70
     1
102
RTVSPropertyOp7
 70
     1
102
RTVSPropertyOp8
 70
     1
102
RTVSPropertyOp9
 70
     1
102
RTVSPropertyOp10
 70
     1
102
RTVSPropertyOp11
 70
     1
102
RTVSPropertyOp12
 70
     1
102
RTVSPropertyOp13
 70
     1
102
RTVSPropertyOp14
 70
     1
102
RTVSPropertyOp15
 70
     1
102
RTVSPropertyOp16
 70
     1
102
RTVSPropertyOp17
 70
     1
102
RTVSPropertyOp18
 70
     1
102
RTVSPropertyOp19
 70
     1
102
RTVSPropertyOp20
 70
     1
102
RTVSPropertyOp21
 70
     1
102
RTVSPropertyOp22
 70
     1
102
RTVSPropertyOp23
 70
     1
102
RTVSPropertyOp24
 70
     1
102
RTVSPropertyOp25
 70
     1
102
RTVSPropertyOp26
 70
     1
102
RTVSPropertyOp27
 70
     1
102
RTVSPropertyOp28
 70
     1
102
RTVSPropertyOp29
 70
     1
102
RTVSPropertyOp30
 70
     1
102
RTVSPropertyOp31
 70
     1
102
RTVSPropertyOp32
 70
     1
  0
XRECORD
  5
CC
102
{ACAD_REACTORS
330
CB
102
}
330
CB
100
AcDbXrecord
280
     1
102
RTVSPropertyOp0
 70
     1
102
RTVSPropertyOp1
 70
     1
102
RTVSPropertyOp2
 70
     1
102
RTVSPropertyOp3
 70
     1
102
RTVSPropertyOp4
 70
     1
102
RTVSPropertyOp5
 70
     1
102
RTVSPropertyOp6
 70
     1
102
RTVSPropertyOp7
 70
     1
102
RTVSPropertyOp8
 70
     1
102
RTVSPropertyOp9
 70
     1
102
RTVSPropertyOp10
 70
     1
102
RTVSPropertyOp11
 70
     1
102
RTVSPropertyOp12
 70
     1
102
RTVSPropertyOp13
 70
     1
102
RTVSPropertyOp14
 70
     1
102
RTVSPropertyOp15
 70
     1
102
RTVSPropertyOp16
 70
     1
102
RTVSPropertyOp17
 70
     1
102
RTVSPropertyOp18
 70
     1
102
RTVSPropertyOp19
 70
     1
102
RTVSPropertyOp20
 70
     1
102
RTVSPropertyOp21
 70
     1
102
RTVSPropertyOp22
 70
     1
102
RTVSPropertyOp23
 70
     1
102
RTVSPropertyOp24
 70
     1
102
RTVSPropertyOp25
 70
     1
102
RTVSPropertyOp26
 70
     1
102
RTVSPropertyOp27
 70
     1
102
RTVSPropertyOp28
 70
     1
102
RTVSPropertyOp29
 70
     1
102
RTVSPropertyOp30
 70
     1
102
RTVSPropertyOp31
 70
     1
102
RTVSPropertyOp32
 70
     1
  0
XRECORD
  5
B0
102
{ACAD_REACTORS
330
AF
102
}
330
AF
100
AcDbXrecord
280
     1
102
RTVSPropertyOp0
 70
     1
102
RTVSPropertyOp1
 70
     1
102
RTVSPropertyOp2
 70
     1
102
RTVSPropertyOp3
 70
     1
102
RTVSPropertyOp4
 70
     1
102
RTVSPropertyOp5
 70
     1
102
RTVSPropertyOp6
 70
     1
102
RTVSPropertyOp7
 70
     1
102
RTVSPropertyOp8
 70
     1
102
RTVSPropertyOp9
 70
     1
102
RTVSPropertyOp10
 70
     1
102
RTVSPropertyOp11
 70
     1
102
RTVSPropertyOp12
 70
     1
102
RTVSPropertyOp13
 70
     1
102
RTVSPropertyOp14
 70
     1
102
RTVSPropertyOp15
 70
     1
102
RTVSPropertyOp16
 70
     1
102
RTVSPropertyOp17
 70
     1
102
RTVSPropertyOp18
 70
     1
102
RTVSPropertyOp19
 70
     1
102
RTVSPropertyOp20
 70
     1
102
RTVSPropertyOp21
 70
     1
102
RTVSPropertyOp22
 70
     1
102
RTVSPropertyOp23
 70
     1
102
RTVSPropertyOp24
 70
     1
102
RTVSPropertyOp25
 70
     1
102
RTVSPropertyOp26
 70
     1
102
RTVSPropertyOp27
 70
     1
102
RTVSPropertyOp28
 70
     1
102
RTVSPropertyOp29
 70
     1
102
RTVSPropertyOp30
 70
     1
102
RTVSPropertyOp31
 70
     1
102
RTVSPropertyOp32
 70
     1
  0
XRECORD
  5
B2
102
{ACAD_REACTORS
330
B1
102
}
330
B1
100
AcDbXrecord
280
     1
102
RTVSPropertyOp0
 70
     1
102
RTVSPropertyOp1
 70
     1
102
RTVSPropertyOp2
 70
     1
102
RTVSPropertyOp3
 70
     1
102
RTVSPropertyOp4
 70
     1
102
RTVSPropertyOp5
 70
     1
102
RTVSPropertyOp6
 70
     1
102
RTVSPropertyOp7
 70
     1
102
RTVSPropertyOp8
 70
     1
102
RTVSPropertyOp9
 70
     1
102
RTVSPropertyOp10
 70
     1
102
RTVSPropertyOp11
 70
     1
102
RTVSPropertyOp12
 70
     1
102
RTVSPropertyOp13
 70
     1
102
RTVSPropertyOp14
 70
     1
102
RTVSPropertyOp15
 70
     1
102
RTVSPropertyOp16
 70
     1
102
RTVSPropertyOp17
 70
     1
102
RTVSPropertyOp18
 70
     1
102
RTVSPropertyOp19
 70
     1
102
RTVSPropertyOp20
 70
     1
102
RTVSPropertyOp21
 70
     1
102
RTVSPropertyOp22
 70
     1
102
RTVSPropertyOp23
 70
     1
102
RTVSPropertyOp24
 70
     1
102
RTVSPropertyOp25
 70
     1
102
RTVSPropertyOp26
 70
     1
102
RTVSPropertyOp27
 70
     1
102
RTVSPropertyOp28
 70
     1
102
RTVSPropertyOp29
 70
     1
102
RTVSPropertyOp30
 70
     1
102
RTVSPropertyOp31
 70
     1
102
RTVSPropertyOp32
 70
     1
  0
XRECORD
  5
B4
102
{ACAD_REACTORS
330
B3
102
}
330
B3
100
AcDbXrecord
280
     1
102
RTVSPropertyOp0
 70
     1
102
RTVSPropertyOp1
 70
     1
102
RTVSPropertyOp2
 70
     1
102
RTVSPropertyOp3
 70
     1
102
RTVSPropertyOp4
 70
     1
102
RTVSPropertyOp5
 70
     1
102
RTVSPropertyOp6
 70
     1
102
RTVSPropertyOp7
 70
     1
102
RTVSPropertyOp8
 70
     1
102
RTVSPropertyOp9
 70
     1
102
RTVSPropertyOp10
 70
     1
102
RTVSPropertyOp11
 70
     1
102
RTVSPropertyOp12
 70
     1
102
RTVSPropertyOp13
 70
     1
102
RTVSPropertyOp14
 70
     1
102
RTVSPropertyOp15
 70
     1
102
RTVSPropertyOp16
 70
     1
102
RTVSPropertyOp17
 70
     1
102
RTVSPropertyOp18
 70
     1
102
RTVSPropertyOp19
 70
     1
102
RTVSPropertyOp20
 70
     1
102
RTVSPropertyOp21
 70
     1
102
RTVSPropertyOp22
 70
     1
102
RTVSPropertyOp23
 70
     1
102
RTVSPropertyOp24
 70
     1
102
RTVSPropertyOp25
 70
     1
102
RTVSPropertyOp26
 70
     1
102
RTVSPropertyOp27
 70
     1
102
RTVSPropertyOp28
 70
     1
102
RTVSPropertyOp29
 70
     1
102
RTVSPropertyOp30
 70
     1
102
RTVSPropertyOp31
 70
     1
102
RTVSPropertyOp32
 70
     1
  0
XRECORD
  5
B6
102
{ACAD_REACTORS
330
B5
102
}
330
B5
100
AcDbXrecord
280
     1
102
RTVSPropertyOp0
 70
     1
102
RTVSPropertyOp1
 70
     1
102
RTVSPropertyOp2
 70
     1
102
RTVSPropertyOp3
 70
     1
102
RTVSPropertyOp4
 70
     1
102
RTVSPropertyOp5
 70
     1
102
RTVSPropertyOp6
 70
     1
102
RTVSPropertyOp7
 70
     1
102
RTVSPropertyOp8
 70
     1
102
RTVSPropertyOp9
 70
     1
102
RTVSPropertyOp10
 70
     1
102
RTVSPropertyOp11
 70
     1
102
RTVSPropertyOp12
 70
     1
102
RTVSPropertyOp13
 70
     1
102
RTVSPropertyOp14
 70
     1
102
RTVSPropertyOp15
 70
     1
102
RTVSPropertyOp16
 70
     1
102
RTVSPropertyOp17
 70
     1
102
RTVSPropertyOp18
 70
     1
102
RTVSPropertyOp19
 70
     1
102
RTVSPropertyOp20
 70
     1
102
RTVSPropertyOp21
 70
     1
102
RTVSPropertyOp22
 70
     1
102
RTVSPropertyOp23
 70
     1
102
RTVSPropertyOp24
 70
     1
102
RTVSPropertyOp25
 70
     1
102
RTVSPropertyOp26
 70
     1
102
RTVSPropertyOp27
 70
     1
102
RTVSPropertyOp28
 70
     1
102
RTVSPropertyOp29
 70
     1
102
RTVSPropertyOp30
 70
     1
102
RTVSPropertyOp31
 70
     1
102
RTVSPropertyOp32
 70
     1
  0
XRECORD
  5
CA
102
{ACAD_REACTORS
330
C9
102
}
330
C9
100
AcDbXrecord
280
     1
102
RTVSPropertyOp0
 70
     1
102
RTVSPropertyOp1
 70
     1
102
RTVSPropertyOp2
 70
     1
102
RTVSPropertyOp3
 70
     1
102
RTVSPropertyOp4
 70
     1
102
RTVSPropertyOp5
 70
     1
102
RTVSPropertyOp6
 70
     1
102
RTVSPropertyOp7
 70
     1
102
RTVSPropertyOp8
 70
     1
102
RTVSPropertyOp9
 70
     1
102
RTVSPropertyOp10
 70
     1
102
RTVSPropertyOp11
 70
     1
102
RTVSPropertyOp12
 70
     1
102
RTVSPropertyOp13
 70
     1
102
RTVSPropertyOp14
 70
     1
102
RTVSPropertyOp15
 70
     1
102
RTVSPropertyOp16
 70
     1
102
RTVSPropertyOp17
 70
     1
102
RTVSPropertyOp18
 70
     1
102
RTVSPropertyOp19
 70
     1
102
RTVSPropertyOp20
 70
     1
102
RTVSPropertyOp21
 70
     1
102
RTVSPropertyOp22
 70
     1
102
RTVSPropertyOp23
 70
     1
102
RTVSPropertyOp24
 70
     1
102
RTVSPropertyOp25
 70
     1
102
RTVSPropertyOp26
 70
     1
102
RTVSPropertyOp27
 70
     1
102
RTVSPropertyOp28
 70
     1
102
RTVSPropertyOp29
 70
     1
102
RTVSPropertyOp30
 70
     1
102
RTVSPropertyOp31
 70
     1
102
RTVSPropertyOp32
 70
     1
  0
XRECORD
  5
C0
102
{ACAD_REACTORS
330
BF
102
}
330
BF
100
AcDbXrecord
280
     1
102
RTVSPropertyOp0
 70
     1
102
RTVSPropertyOp1
 70
     1
102
RTVSPropertyOp2
 70
     1
102
RTVSPropertyOp3
 70
     1
102
RTVSPropertyOp4
 70
     1
102
RTVSPropertyOp5
 70
     1
102
RTVSPropertyOp6
 70
     1
102
RTVSPropertyOp7
 70
     1
102
RTVSPropertyOp8
 70
     1
102
RTVSPropertyOp9
 70
     1
102
RTVSPropertyOp10
 70
     1
102
RTVSPropertyOp11
 70
     1
102
RTVSPropertyOp12
 70
     1
102
RTVSPropertyOp13
 70
     1
102
RTVSPropertyOp14
 70
     1
102
RTVSPropertyOp15
 70
     1
102
RTVSPropertyOp16
 70
     1
102
RTVSPropertyOp17
 70
     1
102
RTVSPropertyOp18
 70
     1
102
RTVSPropertyOp19
 70
     1
102
RTVSPropertyOp20
 70
     1
102
RTVSPropertyOp21
 70
     1
102
RTVSPropertyOp22
 70
     1
102
RTVSPropertyOp23
 70
     1
102
RTVSPropertyOp24
 70
     1
102
RTVSPropertyOp25
 70
     1
102
RTVSPropertyOp26
 70
     1
102
RTVSPropertyOp27
 70
     1
102
RTVSPropertyOp28
 70
     1
102
RTVSPropertyOp29
 70
     1
102
RTVSPropertyOp30
 70
     1
102
RTVSPropertyOp31
 70
     1
102
RTVSPropertyOp32
 70
     1
  0
XRECORD
  5
C8
102
{ACAD_REACTORS
330
C7
102
}
330
C7
100
AcDbXrecord
280
     1
102
RTVSPropertyOp0
 70
     1
102
RTVSPropertyOp1
 70
     1
102
RTVSPropertyOp2
 70
     1
102
RTVSPropertyOp3
 70
     1
102
RTVSPropertyOp4
 70
     1
102
RTVSPropertyOp5
 70
     1
102
RTVSPropertyOp6
 70
     1
102
RTVSPropertyOp7
 70
     1
102
RTVSPropertyOp8
 70
     1
102
RTVSPropertyOp9
 70
     1
102
RTVSPropertyOp10
 70
     1
102
RTVSPropertyOp11
 70
     1
102
RTVSPropertyOp12
 70
     1
102
RTVSPropertyOp13
 70
     1
102
RTVSPropertyOp14
 70
     1
102
RTVSPropertyOp15
 70
     1
102
RTVSPropertyOp16
 70
     1
102
RTVSPropertyOp17
 70
     1
102
RTVSPropertyOp18
 70
     1
102
RTVSPropertyOp19
 70
     1
102
RTVSPropertyOp20
 70
     1
102
RTVSPropertyOp21
 70
     1
102
RTVSPropertyOp22
 70
     1
102
RTVSPropertyOp23
 70
     1
102
RTVSPropertyOp24
 70
     1
102
RTVSPropertyOp25
 70
     1
102
RTVSPropertyOp26
 70
     1
102
RTVSPropertyOp27
 70
     1
102
RTVSPropertyOp28
 70
     1
102
RTVSPropertyOp29
 70
     1
102
RTVSPropertyOp30
 70
     1
102
RTVSPropertyOp31
 70
     1
102
RTVSPropertyOp32
 70
     1
  0
ENDSEC
  0
EOF
