%
M48
M72
T01C0.0059
T02C0.0079
T03C0.0098
T04C0.0197
T05C0.0291
T06C0.0315
T07C0.0394
T08C0.0591
T09C0.0669
T10C0.1181
T11C0.1299
T12C0.1575
T13C0.2205
%
T01
X10748Y27126
X10591Y27638
X10354Y27913
X10591Y28543
X10354Y29488
X11142Y29488
X11535Y30276
X12323Y30276
X11929Y31063
X11142Y31063
X10787Y31457
X10669Y31732
X10787Y32008
X10354Y31063
X10748Y30276
X10787Y32913
X10669Y33150
X10787Y33386
X11142Y34213
X10354Y34213
X10748Y35000
X10354Y35787
X11142Y35787
X10748Y36575
X10354Y37362
X11142Y37362
X11535Y38150
X12402Y37165
X12756Y37283
X13110Y37165
X13701Y37165
X14055Y37283
X14409Y37165
X15748Y37205
X16102Y37244
X16457Y37205
X17441Y38150
X18228Y38150
X17835Y37362
X18622Y37362
X19134Y35197
X18937Y35079
X19134Y34961
X18937Y34843
X19134Y34724
X19724Y34016
X19724Y33622
X19724Y33228
X19724Y32835
X19724Y32441
X19724Y32047
X19724Y31654
X19724Y31260
X20118Y31457
X20118Y31850
X20118Y32244
X20118Y32638
X20118Y33031
X20118Y33425
X20118Y33819
X20118Y34213
X20512Y34016
X20512Y33622
X20512Y33228
X20512Y32835
X20512Y32441
X20512Y32047
X20512Y31654
X20512Y31260
X20118Y31063
X20512Y30512
X20709Y30630
X20709Y30394
X20512Y30276
X20709Y30157
X21732Y29528
X21929Y29409
X21732Y29291
X21929Y29173
X21732Y29055
X21772Y27913
X21378Y27126
X18622Y27126
X18228Y27913
X17441Y27913
X17835Y27126
X17047Y27126
X16260Y27126
X15472Y27126
X14685Y27126
X13898Y27126
X13110Y27126
X12323Y27126
X11535Y27126
X12953Y28071
X13307Y28071
X13661Y28071
X14291Y28071
X14646Y28071
X15000Y28071
X15630Y28071
X15984Y28071
X16339Y28071
X18898Y30276
X18898Y30512
X19134Y30630
X19134Y30394
X19134Y30157
X20748Y34724
X20551Y34843
X20748Y34961
X20551Y35079
X20748Y35197
X21732Y35827
X21929Y35945
X21732Y36063
X21929Y36181
X21732Y36299
X21378Y37362
X21772Y38150
X24567Y41024
X24843Y41024
X25118Y41024
X25394Y41024
X25669Y41024
X25669Y41654
X25157Y41614
X24961Y41811
X24882Y42598
X24567Y42598
X24882Y42992
X25276Y42992
X25669Y42992
X25669Y42598
X25669Y43386
X25276Y43425
X24724Y43425
X24449Y43110
X27205Y44252
X28031Y43858
X28465Y43858
X28976Y43858
X29449Y43858
X29961Y43858
X30433Y43858
X30433Y43504
X30433Y43110
X30827Y43504
X31299Y43307
X31299Y42913
X31299Y42520
X31299Y42126
X31969Y42323
X31969Y42717
X31969Y43110
X31969Y43504
X31969Y43898
X31969Y44291
X31969Y44685
X31969Y45079
X31969Y45472
X31969Y45866
X32441Y45669
X32441Y45276
X32835Y45276
X32835Y45669
X32835Y46063
X32835Y46378
X33228Y46378
X33228Y46772
X33228Y47165
X32835Y47165
X32835Y46772
X32441Y46772
X32441Y47165
X32047Y47165
X31654Y47165
X31654Y46772
X31654Y46378
X31260Y46378
X31260Y46772
X31260Y47165
X30866Y47165
X30866Y46772
X30472Y46772
X30079Y46772
X30079Y47165
X30472Y47165
X30472Y47559
X30079Y47559
X30079Y47953
X30472Y47953
X30472Y48346
X30079Y48346
X29685Y48346
X29685Y47953
X29291Y47953
X29291Y48346
X29291Y48740
X29291Y49134
X28898Y49134
X28898Y49528
X28898Y49921
X29291Y49921
X29291Y49528
X29685Y49528
X29685Y49921
X30079Y49921
X30472Y49921
X30472Y49528
X30079Y49528
X30472Y49134
X30472Y48740
X30079Y48740
X29685Y48740
X29685Y49134
X28504Y49134
X28504Y49528
X28504Y49921
X28110Y49921
X28110Y49528
X28110Y49173
X27717Y49134
X27717Y49528
X27717Y49921
X27717Y50315
X28110Y50315
X27717Y50709
X27717Y51102
X28110Y51102
X28504Y51102
X28504Y50709
X28898Y50709
X29291Y50709
X29291Y51102
X28898Y51102
X28898Y51496
X29291Y51496
X29291Y51890
X29291Y52283
X29685Y52283
X29685Y51890
X30079Y51890
X30472Y51890
X30472Y52283
X30079Y52283
X30079Y52677
X30472Y52677
X30866Y52677
X30866Y52283
X30866Y51890
X31260Y51890
X31260Y52283
X31654Y52283
X31654Y51890
X32047Y51890
X32441Y51890
X32441Y52283
X32835Y52283
X32835Y51890
X33228Y51890
X33228Y52283
X33622Y52283
X33622Y51890
X34016Y51890
X34409Y51890
X34409Y52283
X34016Y52283
X34016Y52677
X34409Y52677
X34803Y52677
X34803Y52283
X34803Y51890
X35197Y51890
X35591Y51890
X35591Y52283
X35591Y52677
X35984Y52677
X35984Y53071
X35591Y53071
X35591Y53465
X35984Y53465
X35984Y53858
X36378Y53858
X36378Y53465
X36378Y53071
X36772Y53071
X36772Y52677
X37165Y52677
X37165Y52283
X37165Y51890
X36772Y51890
X36772Y52283
X36378Y52283
X36378Y51890
X36378Y51496
X36378Y51102
X36378Y50709
X36772Y50709
X37165Y50709
X37165Y51102
X36772Y51102
X36772Y51496
X37165Y51496
X37559Y51496
X37559Y51102
X37559Y50709
X37953Y50709
X37953Y51102
X38346Y51102
X38346Y50709
X38346Y50315
X37953Y50315
X37953Y49921
X37953Y49528
X38346Y49528
X38346Y49921
X38740Y49921
X38740Y49528
X38740Y49134
X38346Y49134
X37953Y49134
X37953Y48740
X38346Y48740
X38346Y48346
X38346Y47953
X37953Y47953
X37953Y48346
X37559Y48346
X37165Y48346
X37165Y47953
X36772Y47953
X36772Y48346
X36378Y48346
X36378Y47953
X35984Y47953
X35591Y47953
X35591Y48346
X35984Y48346
X35984Y48740
X35591Y48740
X35197Y48740
X35197Y48346
X35197Y47953
X34803Y47953
X34803Y48346
X34409Y48346
X34409Y47953
X34016Y47953
X34016Y48346
X33622Y48346
X33622Y47953
X33228Y47953
X32835Y47953
X32835Y48346
X33228Y48346
X32835Y48740
X32835Y49134
X32835Y49528
X32835Y49921
X33228Y49921
X33228Y49528
X33622Y49528
X33622Y49921
X34016Y49921
X34016Y49528
X34409Y49528
X34409Y49921
X34409Y50315
X34016Y50315
X34016Y50709
X34016Y51102
X34409Y51102
X34409Y50709
X34803Y50709
X34803Y51102
X35197Y51102
X35197Y50709
X35591Y50709
X35984Y50709
X35984Y51102
X35591Y51102
X35591Y51496
X35984Y51496
X35197Y51496
X34803Y51496
X34409Y51496
X34016Y51496
X33622Y51496
X33622Y51102
X33622Y50709
X33228Y50709
X32835Y50709
X32835Y51102
X33228Y51102
X33228Y51496
X32835Y51496
X32441Y51496
X32441Y51102
X32441Y50709
X32047Y50709
X32047Y51102
X31654Y51102
X31654Y50709
X31654Y50315
X32047Y50315
X32047Y49921
X32047Y49528
X31654Y49528
X31654Y49921
X31260Y49921
X31260Y49528
X30866Y49528
X30866Y49921
X30866Y50315
X30866Y50709
X30866Y51102
X30472Y51102
X30472Y50709
X30079Y50709
X29685Y50709
X29685Y51102
X29685Y51496
X30079Y51496
X30472Y51496
X30866Y51496
X31260Y51496
X31654Y51496
X31260Y51102
X31260Y50709
X30079Y50315
X29291Y50315
X28898Y50315
X28110Y51496
X27717Y51496
X27323Y51496
X26929Y51496
X26535Y51496
X26142Y51102
X26142Y50709
X26535Y50709
X26535Y50315
X26142Y50315
X26142Y49921
X26535Y49921
X26535Y49528
X26929Y49528
X26929Y49921
X27323Y49921
X27323Y49528
X27323Y49134
X27323Y48740
X27717Y48740
X28110Y48740
X28110Y48346
X28110Y47953
X27717Y47953
X27717Y48346
X27717Y47559
X27323Y47559
X27323Y47165
X27323Y46772
X27717Y46772
X28110Y46772
X28504Y46772
X28504Y47165
X28898Y47165
X29291Y47165
X29291Y46772
X28898Y46772
X28898Y46378
X28898Y46063
X29291Y46063
X29291Y46378
X29685Y46378
X29685Y46772
X29685Y47165
X29685Y47559
X29291Y47559
X28898Y47559
X28504Y47559
X28504Y47953
X28504Y48346
X28504Y48740
X27323Y50315
X27323Y50709
X26929Y50709
X26929Y50315
X25748Y50315
X25748Y50709
X25354Y50709
X25354Y51102
X25354Y51496
X25354Y51890
X25354Y52283
X25354Y52677
X25354Y53071
X25354Y53465
X25354Y53858
X25354Y54252
X25354Y54646
X25354Y55039
X25354Y55433
X26142Y55433
X26142Y55039
X26929Y54646
X26929Y54252
X26929Y53858
X26535Y53858
X26142Y53858
X26142Y53465
X26929Y53071
X26929Y52283
X27323Y52283
X27717Y52677
X27717Y53071
X28110Y53071
X27717Y53465
X27717Y53858
X27717Y54252
X28110Y54252
X27717Y54646
X28110Y55039
X28504Y55039
X28898Y54646
X29291Y54646
X29685Y54646
X29685Y55039
X30079Y55039
X30079Y54646
X30472Y54646
X30472Y55039
X30866Y55039
X30866Y54646
X31260Y54646
X31260Y55039
X31654Y55039
X32047Y55039
X32441Y55039
X32441Y54646
X32835Y54646
X33228Y54646
X33228Y55039
X32835Y55039
X32835Y55433
X33228Y55433
X33228Y55827
X32835Y55827
X32835Y56220
X33228Y56220
X33622Y56220
X33622Y55827
X34016Y55827
X34409Y55827
X34409Y56220
X34016Y56220
X34016Y56614
X34409Y56614
X34409Y57008
X34016Y57008
X34016Y57402
X34409Y57402
X34803Y57402
X35197Y57402
X35197Y57795
X35197Y58189
X35591Y58189
X35591Y58583
X35984Y58583
X35984Y58976
X35591Y58976
X35591Y59370
X35197Y59370
X35197Y58976
X35197Y58583
X35945Y59764
X36378Y59764
X36378Y59370
X36772Y58583
X37559Y58189
X37165Y57795
X36378Y57795
X36378Y57402
X35984Y57402
X35197Y57008
X35197Y56614
X35197Y56220
X35197Y55827
X34803Y55827
X34803Y56220
X34803Y56614
X34803Y57008
X35591Y56614
X35591Y56220
X35591Y55433
X35984Y55433
X36378Y55433
X36772Y55433
X37165Y55433
X37165Y55827
X36772Y55827
X36378Y55827
X36378Y56220
X36772Y56614
X37165Y56614
X37165Y56220
X37559Y56220
X37559Y55827
X37953Y55827
X38346Y55827
X38346Y56220
X37953Y56220
X37953Y56614
X37953Y57008
X38346Y57008
X38346Y57402
X37953Y57402
X37953Y57795
X37165Y57008
X36772Y57008
X37953Y55433
X38346Y55039
X37953Y54252
X37559Y53858
X37559Y53465
X37165Y53465
X37165Y53858
X37165Y54646
X36772Y55039
X36378Y54252
X35591Y54646
X34803Y54646
X34803Y55039
X34409Y55039
X34016Y55039
X34016Y54646
X34409Y54646
X34409Y54252
X34016Y54252
X34016Y53858
X34016Y53465
X34409Y53465
X34409Y53858
X34803Y54252
X35197Y53858
X35197Y53071
X36378Y52677
X37559Y52677
X37559Y52283
X37559Y51890
X37953Y51890
X38346Y51890
X38346Y52283
X37953Y52283
X38346Y52677
X38740Y52677
X38740Y52283
X38740Y51890
X38740Y51496
X38346Y51496
X37953Y51496
X38740Y51102
X38740Y50709
X38740Y50315
X39291Y50276
X39291Y50591
X39291Y50906
X39606Y50906
X39921Y50906
X40236Y50906
X40551Y50906
X40866Y50906
X41181Y50906
X41496Y50906
X41811Y50906
X42126Y50906
X42441Y50906
X42756Y50906
X43071Y50906
X43386Y50906
X43701Y50906
X44016Y50906
X44016Y50591
X43701Y50591
X43386Y50591
X43071Y50591
X42756Y50591
X42441Y50591
X42126Y50591
X41811Y50591
X41496Y50591
X41181Y50591
X40866Y50591
X40551Y50591
X40236Y50591
X39921Y50591
X39606Y50591
X39606Y50276
X39921Y50276
X40236Y50276
X40551Y50276
X40866Y50276
X41181Y50276
X41496Y50276
X41811Y50276
X42126Y50276
X42441Y50276
X42756Y50276
X43071Y50276
X43386Y50276
X43701Y50276
X44016Y50276
X43701Y49331
X43386Y49331
X43071Y49331
X42756Y49331
X42441Y49331
X42126Y49331
X41811Y49331
X41496Y49331
X41181Y49331
X40866Y49331
X40551Y49331
X40236Y49331
X39921Y49331
X39606Y49331
X39291Y49331
X39291Y49016
X39291Y48701
X39606Y48701
X39606Y49016
X39921Y49016
X39921Y48701
X40236Y48701
X40236Y49016
X40551Y49016
X40866Y49016
X41181Y49016
X41496Y49016
X41811Y49016
X42126Y49016
X42441Y49016
X42756Y49016
X43071Y49016
X43386Y49016
X43701Y49016
X44016Y49016
X44016Y48701
X43701Y48701
X43386Y48701
X43071Y48701
X42756Y48701
X42441Y48701
X42126Y48701
X41811Y48701
X41496Y48701
X41181Y48701
X40866Y48701
X40551Y48701
X40551Y46811
X40236Y46811
X39921Y46811
X39606Y46811
X39291Y46811
X39291Y46496
X39291Y46181
X39606Y46181
X39606Y46496
X39921Y46496
X39921Y46181
X40236Y46181
X40236Y46496
X40551Y46496
X40551Y46181
X40866Y46181
X40866Y46496
X40866Y46811
X41181Y46811
X41181Y46496
X41181Y46181
X41496Y46181
X41811Y46181
X42126Y46181
X42441Y46181
X42756Y46181
X43071Y46181
X43386Y46181
X43701Y46181
X44016Y46181
X44016Y46496
X44016Y46811
X43701Y46811
X43701Y46496
X43386Y46496
X43386Y46811
X43071Y46811
X43071Y46496
X42756Y46496
X42756Y46811
X42441Y46811
X42441Y46496
X42126Y46496
X41811Y46496
X41496Y46496
X41496Y46811
X41811Y46811
X42126Y46811
X42126Y45236
X42126Y44921
X42126Y44606
X42441Y44606
X42756Y44606
X43071Y44606
X43386Y44606
X43701Y44606
X44016Y44606
X44016Y44921
X43701Y44921
X43386Y44921
X43071Y44921
X42756Y44921
X42441Y44921
X42441Y45236
X42756Y45236
X43071Y45236
X43386Y45236
X43701Y45236
X43780Y43819
X44173Y43819
X44173Y43071
X44173Y42835
X44173Y42598
X44173Y42244
X44173Y42008
X44173Y41772
X42126Y41811
X41890Y41811
X41654Y41811
X41260Y41811
X41024Y41811
X40787Y41811
X38898Y42717
X38898Y43031
X38583Y43031
X38583Y42717
X38268Y42717
X37953Y42717
X37953Y43031
X37638Y43031
X37638Y42717
X37323Y42717
X37323Y43031
X37008Y43031
X37008Y42717
X36693Y42717
X36693Y43031
X36378Y43031
X36378Y42717
X36063Y42717
X36063Y43031
X35748Y43031
X35748Y42717
X35433Y42717
X35433Y43031
X35118Y43031
X35118Y42717
X34803Y42717
X34803Y43031
X34488Y43031
X34488Y42717
X34173Y42717
X34173Y43031
X34173Y43346
X34488Y43346
X34803Y43346
X35118Y43346
X35433Y43346
X35748Y43346
X36063Y43346
X36378Y43346
X36693Y43346
X37008Y43346
X37323Y43346
X37638Y43346
X38583Y43346
X38583Y44291
X38898Y44291
X38898Y44606
X38898Y44921
X38583Y44921
X38268Y44921
X37953Y44921
X37953Y44606
X37638Y44606
X37638Y44291
X37323Y44291
X37008Y44291
X36693Y44291
X36378Y44291
X36063Y44291
X35748Y44291
X35433Y44291
X35118Y44291
X34803Y44291
X34488Y44291
X34488Y44606
X34173Y44606
X34173Y44921
X34488Y44921
X34803Y44921
X34803Y44606
X35118Y44606
X35433Y44606
X35748Y44606
X36063Y44606
X36378Y44606
X36693Y44606
X37008Y44606
X37323Y44606
X37323Y44921
X37638Y44921
X37008Y44921
X36693Y44921
X36378Y44921
X36063Y44921
X35748Y44921
X35433Y44921
X35118Y44921
X34803Y46378
X34803Y46772
X34803Y47165
X34409Y47165
X34016Y47165
X34016Y46772
X34409Y46772
X34016Y46378
X33622Y46378
X33622Y46772
X33622Y47165
X33622Y47559
X33228Y47559
X32835Y47559
X32441Y47559
X32047Y47559
X31654Y47559
X31654Y47953
X32047Y47953
X32047Y48346
X31654Y48346
X32047Y48740
X32047Y49134
X32441Y49134
X32441Y49528
X32441Y49921
X32441Y50315
X32835Y50315
X33228Y50315
X33622Y50315
X33622Y49134
X34016Y49134
X34409Y49134
X34409Y48740
X34803Y48740
X34803Y49134
X34803Y49528
X34803Y49921
X35197Y49921
X35197Y49528
X35197Y49134
X35984Y49134
X35984Y49528
X35984Y49921
X36378Y49921
X36378Y49528
X36772Y49921
X37165Y49921
X37165Y49528
X37165Y49134
X37165Y48740
X36772Y48740
X36378Y48740
X36378Y47559
X36378Y47165
X36378Y46772
X36772Y46772
X36772Y47165
X37165Y47165
X37165Y46772
X37165Y46378
X36772Y46378
X36378Y46378
X35984Y46378
X35591Y46378
X35591Y46772
X35984Y46772
X35984Y47165
X35591Y47165
X35591Y47559
X35984Y47559
X35197Y47559
X35197Y47165
X35197Y46772
X34803Y47559
X34409Y47559
X34016Y47559
X32441Y47953
X32441Y48346
X32441Y48740
X31260Y48740
X30866Y48740
X30866Y48346
X30866Y47953
X30866Y47559
X31260Y47559
X30866Y46378
X30472Y46378
X30472Y46063
X30079Y46063
X30079Y46378
X28504Y46378
X28504Y46063
X28110Y46063
X28110Y46378
X27717Y46378
X27323Y46378
X26929Y46378
X26535Y46378
X26142Y46378
X26142Y46772
X26142Y47165
X26535Y47165
X26535Y46772
X26929Y46772
X26929Y47165
X26929Y47559
X26535Y47559
X26142Y47559
X26142Y47953
X26142Y48346
X25748Y48346
X25748Y47953
X25354Y47953
X25354Y48740
X25354Y49134
X25748Y49528
X26142Y49134
X26535Y49134
X26535Y48740
X26142Y48740
X25748Y48740
X26929Y48346
X26929Y47953
X25354Y47165
X25354Y46772
X25354Y46378
X24961Y46142
X24528Y46339
X24528Y47126
X24528Y47913
X24528Y48701
X24528Y49488
X24528Y50276
X24528Y51063
X24528Y51850
X24528Y52638
X24528Y53425
X24528Y54213
X24528Y55000
X24528Y55433
X26535Y58189
X26535Y58583
X26535Y58976
X26535Y59370
X26535Y59764
X26929Y59764
X27323Y59764
X27717Y59764
X28110Y59764
X28504Y59764
X28898Y59764
X29291Y59764
X29685Y59764
X30079Y59764
X30472Y59370
X30472Y58976
X30079Y58976
X29685Y58976
X29291Y58976
X28898Y58976
X28504Y58976
X28110Y58976
X27717Y58976
X27323Y58976
X27323Y58583
X26929Y58583
X26929Y58976
X26929Y59370
X27323Y59370
X27323Y58189
X27717Y58189
X28110Y58189
X28110Y57795
X27717Y57795
X27323Y57795
X27323Y57402
X27323Y57008
X27717Y57008
X28110Y57008
X28110Y56614
X27717Y56614
X27717Y56220
X27717Y55827
X27323Y55827
X27323Y56220
X27323Y56614
X28110Y56220
X28504Y56220
X28504Y55827
X28898Y56220
X29291Y56220
X29291Y55827
X29685Y56220
X30079Y56220
X30079Y56614
X30472Y57008
X30866Y57008
X30866Y57402
X30866Y57795
X30472Y57795
X30079Y57795
X30079Y57402
X29685Y57402
X29291Y57402
X29291Y57795
X28898Y57795
X28898Y58189
X29291Y58189
X29685Y58189
X30079Y58189
X30472Y58189
X30866Y58189
X31260Y58189
X31654Y58189
X31654Y58583
X31654Y58976
X31654Y59370
X31654Y59764
X31260Y59370
X31260Y58976
X30866Y58976
X30866Y59370
X31654Y57795
X32047Y57402
X32441Y57402
X32835Y57402
X33228Y57402
X33622Y57402
X33622Y57008
X33228Y57008
X33228Y56614
X32835Y56614
X32441Y56614
X32441Y56220
X32441Y55827
X32441Y55433
X32047Y55433
X31654Y55433
X31260Y55433
X30866Y55433
X30866Y55827
X31260Y56220
X31654Y56220
X31260Y56614
X30866Y56614
X29685Y57008
X29291Y56614
X28898Y57008
X28504Y56614
X28110Y55433
X27323Y55433
X28898Y53858
X28898Y53465
X29685Y53465
X29685Y53858
X30079Y53858
X30079Y53465
X30472Y53465
X30472Y53858
X30472Y54252
X30079Y54252
X29685Y54252
X29685Y55433
X30866Y54252
X30866Y53858
X30866Y53465
X31260Y53465
X31260Y53858
X31654Y53858
X31654Y53465
X32047Y53465
X32441Y53465
X32441Y53858
X32835Y53858
X33228Y53858
X33228Y53465
X33622Y53465
X33622Y53858
X33622Y54252
X33228Y54252
X32835Y54252
X32441Y54252
X32047Y54252
X31654Y54252
X31654Y54646
X31260Y54252
X30866Y53071
X31260Y52677
X31654Y52677
X32047Y52677
X32441Y52677
X32835Y52677
X33228Y52677
X33622Y52677
X32835Y53071
X33622Y54646
X33622Y55039
X33622Y55433
X34016Y55433
X34409Y55433
X34803Y55433
X35197Y55433
X33622Y56614
X32441Y57008
X28504Y57795
X28504Y58189
X26929Y58189
X28504Y52677
X28504Y52283
X28504Y51890
X29291Y52677
X29685Y52677
X31260Y49134
X32441Y46378
X32441Y46063
X33307Y45866
X33307Y45472
X33307Y45079
X33307Y44685
X33307Y44291
X33307Y43898
X33307Y43504
X33307Y43110
X33307Y42717
X33307Y42323
X33307Y41929
X32835Y41732
X32835Y42126
X32835Y42520
X32835Y42913
X32441Y42913
X32441Y42520
X32441Y42126
X32441Y41732
X31969Y41929
X30830Y42717
X32441Y43307
X32835Y43307
X32835Y43701
X32835Y44094
X32441Y44094
X32441Y43701
X32441Y44488
X32835Y44488
X32835Y44882
X32441Y44882
X28622Y41772
X28346Y41772
X28346Y41496
X28622Y41496
X27205Y45354
X25354Y50315
X26142Y51890
X34803Y50315
X35197Y50315
X35591Y50315
X35984Y50315
X36378Y50315
X36772Y50315
X37165Y50315
X37559Y50315
X37559Y49921
X37559Y48740
X37559Y47559
X37165Y47559
X36772Y47559
X37559Y47165
X37559Y46772
X37953Y46772
X37953Y47165
X38346Y47165
X38346Y46772
X38346Y46378
X38740Y46378
X38740Y46772
X38740Y47165
X38740Y47559
X38346Y47559
X37953Y47559
X38740Y47953
X38740Y48346
X38740Y48740
X37559Y46378
X39291Y45236
X39291Y44921
X39291Y44606
X39606Y44606
X39606Y44921
X39606Y45236
X39921Y45236
X39921Y44921
X39921Y44606
X40236Y44606
X40551Y44606
X40866Y44606
X41181Y44606
X41496Y44606
X41811Y44606
X41811Y44921
X41496Y44921
X41181Y44921
X40866Y44921
X40551Y44921
X40236Y44921
X40236Y45236
X40551Y45236
X40866Y45236
X41181Y45236
X41496Y45236
X41811Y45236
X41811Y52795
X41496Y52795
X41181Y52795
X40866Y52795
X40551Y52795
X40236Y52795
X39921Y52795
X39606Y52795
X39291Y52795
X39291Y53110
X39291Y53425
X39606Y53425
X39606Y53110
X39921Y53110
X39921Y53425
X40236Y53425
X40236Y53110
X40551Y53110
X40866Y53110
X41181Y53110
X41496Y53110
X41811Y53110
X42126Y53110
X42126Y52795
X42441Y52795
X42756Y52795
X43071Y52795
X43386Y52795
X43701Y52795
X44016Y52795
X44016Y53110
X43701Y53110
X43386Y53110
X43071Y53110
X42756Y53110
X42441Y53110
X42441Y53425
X42756Y53425
X43071Y53425
X43386Y53425
X43701Y53425
X43701Y54370
X44016Y54370
X44016Y54685
X44016Y55000
X43701Y55000
X43701Y54685
X43386Y54685
X43386Y54370
X43071Y54370
X43071Y54685
X43071Y55000
X43386Y55000
X42756Y55000
X42756Y54685
X42756Y54370
X42441Y54370
X42126Y54370
X41811Y54370
X41496Y54370
X41181Y54370
X40866Y54370
X40551Y54370
X40236Y54370
X39921Y54370
X39606Y54370
X39291Y54370
X39291Y54685
X39291Y55000
X39606Y55000
X39606Y54685
X39921Y54685
X39921Y55000
X40236Y55000
X40236Y54685
X40551Y54685
X40551Y55000
X40866Y55000
X40866Y54685
X41181Y54685
X41181Y55000
X41496Y55000
X41496Y54685
X41811Y54685
X42126Y54685
X42441Y54685
X42441Y55000
X42126Y55000
X41811Y55000
X41811Y53425
X41496Y53425
X41181Y53425
X40866Y53425
X40551Y53425
X42126Y53425
X41811Y56575
X41811Y56890
X41811Y57205
X41811Y57520
X41496Y57520
X41181Y57520
X40866Y57520
X40551Y57520
X40236Y57520
X39921Y57520
X39606Y57520
X39291Y57520
X39291Y57205
X39291Y56890
X39606Y56890
X39606Y57205
X39921Y57205
X40236Y57205
X40551Y57205
X40866Y57205
X41181Y57205
X41496Y57205
X41496Y56890
X41181Y56890
X40866Y56890
X40551Y56890
X40236Y56890
X39921Y56890
X39921Y58465
X39921Y58780
X39921Y59094
X39606Y59094
X39606Y58780
X39291Y58780
X39291Y59094
X39291Y58465
X39606Y58465
X40236Y58465
X40236Y58780
X40236Y59094
X40551Y59094
X40551Y58780
X40866Y58780
X40866Y59094
X41181Y59094
X41181Y58780
X41496Y58780
X41496Y59094
X41811Y59094
X41811Y58780
X42126Y58780
X42126Y59094
X42441Y59094
X42441Y58780
X42756Y58780
X42756Y59094
X43071Y59094
X43071Y58780
X43386Y58780
X43386Y59094
X43701Y59094
X43701Y58780
X44016Y58780
X44016Y59094
X44016Y58465
X43701Y58465
X43386Y58465
X43071Y58465
X42756Y58465
X42441Y58465
X42126Y58465
X41811Y58465
X41496Y58465
X41181Y58465
X40866Y58465
X40551Y58465
X42126Y57520
X42441Y57520
X42756Y57520
X43071Y57520
X43386Y57520
X43701Y57520
X43701Y57205
X44016Y57205
X44016Y56890
X43701Y56890
X43386Y56890
X43386Y57205
X43071Y57205
X42756Y57205
X42441Y57205
X42126Y57205
X42126Y56890
X42441Y56890
X42756Y56890
X43071Y56890
X38740Y53465
X38346Y53465
X37953Y53465
X37953Y53071
X37559Y53071
X37953Y58976
X37795Y65039
X37874Y65630
X38228Y65630
X38386Y65906
X38976Y66496
X38976Y66890
X38701Y67087
X38701Y67480
X38661Y68228
X38661Y68740
X38976Y69134
X38976Y69528
X38976Y69921
X38583Y69921
X38583Y69528
X38189Y69528
X37835Y69528
X37795Y69921
X37402Y69921
X37402Y69528
X37008Y69528
X36496Y69528
X36102Y69921
X35709Y69921
X35315Y69921
X35315Y69528
X34921Y69488
X34528Y69488
X34252Y69528
X34094Y69370
X33937Y69528
X33780Y69370
X34528Y69055
X34921Y69055
X34921Y68661
X35315Y68661
X35315Y69016
X34528Y68622
X34685Y68150
X35315Y67874
X35315Y67480
X35315Y67087
X35315Y66693
X35276Y66142
X35276Y65669
X35748Y65669
X36181Y65669
X36260Y66181
X37008Y66220
X36969Y65472
X36220Y65039
X37874Y66811
X37244Y67165
X37244Y67598
X37677Y67598
X38031Y67874
X37677Y68150
X37244Y68150
X37244Y68583
X36693Y68583
X36693Y68150
X36260Y68150
X36260Y67598
X36693Y67598
X36693Y67165
X34921Y67480
X33543Y68110
X33543Y68386
X32874Y68898
X32756Y68701
X32638Y68898
X32520Y68701
X32677Y68465
X32677Y68189
X32677Y67402
X32520Y67047
X32677Y66890
X32520Y66732
X32205Y66890
X31772Y66890
X31535Y66535
X31063Y65906
X30906Y65669
X30748Y65906
X30433Y65945
X29882Y65866
X29882Y66220
X29488Y66732
X29488Y67126
X29488Y67520
X29882Y67913
X30276Y67913
X30276Y67520
X30276Y67126
X30669Y67126
X30748Y66732
X29882Y67126
X30669Y67756
X30669Y68346
X30236Y68740
X31063Y69646
X31063Y69882
X30906Y70354
X30709Y70236
X30512Y70354
X30709Y70472
X30118Y70472
X29921Y70354
X29724Y70472
X29921Y70591
X29606Y71654
X29488Y71890
X29724Y71890
X29606Y72126
X29449Y72480
X29843Y72480
X29843Y72874
X29449Y72874
X29016Y72874
X29016Y72480
X28583Y72480
X28228Y72559
X27992Y72795
X27795Y73031
X28150Y73307
X28346Y73110
X28583Y72874
X28346Y72126
X28228Y71890
X28465Y71890
X28346Y71654
X28543Y71220
X28543Y70827
X29213Y69567
X28740Y69291
X28937Y69055
X28937Y68740
X28661Y68071
X28504Y67283
X27874Y66575
X27559Y66260
X27244Y66575
X26732Y66339
X26732Y66890
X26417Y67244
X25827Y67205
X25827Y67638
X25827Y67913
X26024Y68543
X25630Y68543
X24764Y68189
X24173Y68189
X24173Y68583
X24173Y68976
X24173Y69764
X24173Y70157
X24173Y70551
X24173Y70945
X24173Y71339
X24567Y71732
X25236Y71220
X25236Y70984
X25512Y71457
X25354Y72126
X26063Y73110
X26063Y73504
X26575Y73504
X26575Y73110
X27677Y73701
X27677Y74094
X27717Y74488
X28504Y74488
X29291Y74488
X30276Y72677
X30669Y72520
X31063Y72520
X31457Y72520
X31457Y72126
X31063Y72126
X30669Y72126
X30157Y72126
X31890Y72126
X32283Y72126
X32283Y72520
X31890Y72520
X32677Y72520
X33071Y72520
X33071Y72126
X32677Y72126
X33228Y71614
X33740Y70709
X33898Y70551
X33740Y70394
X33898Y70236
X34528Y70315
X34528Y70630
X34921Y70630
X34921Y70315
X34921Y69921
X34528Y69921
X35276Y70630
X35709Y70709
X36102Y70709
X36496Y70709
X37008Y70709
X37402Y70709
X37402Y70315
X37795Y70315
X38189Y70709
X38189Y71102
X38583Y71102
X38583Y70709
X38976Y70709
X38976Y71102
X38976Y70315
X38583Y70315
X38189Y69921
X37008Y70118
X36496Y70118
X36929Y71260
X37402Y71890
X37795Y71890
X37795Y72283
X37402Y72283
X37402Y72677
X37795Y72677
X37795Y73071
X37795Y73425
X37402Y73071
X38189Y73071
X38386Y73268
X38740Y73701
X38189Y72677
X38386Y72480
X38189Y72283
X38189Y71890
X38386Y71693
X38189Y71496
X37795Y71102
X36929Y72087
X36378Y72244
X35984Y72244
X35984Y71850
X35512Y71850
X35512Y72244
X35118Y72244
X35118Y72717
X35512Y72717
X35512Y73110
X35984Y73110
X35984Y72717
X36378Y72717
X36378Y73819
X36260Y74055
X36102Y74291
X35866Y74055
X35748Y73819
X35591Y74055
X35748Y74291
X35394Y74291
X35197Y74055
X34646Y74134
X34449Y73346
X34173Y73346
X33780Y73346
X33228Y73937
X33346Y74331
X33346Y74724
X34449Y71969
X34213Y71457
X35079Y71260
X35787Y71260
X37559Y74488
X32205Y71220
X32087Y71024
X31969Y71220
X32087Y71417
X31732Y70118
X31693Y68937
X32756Y66378
X32756Y66142
X33622Y66693
X33701Y65669
X33858Y65472
X33701Y65276
X33543Y65472
X31299Y65354
X31299Y65630
X30827Y64803
X30512Y64803
X29724Y65000
X29291Y65000
X28898Y65000
X28465Y65000
X28465Y65354
X28465Y65787
X28465Y66102
X27559Y65748
X26299Y65787
X26299Y65354
X25276Y65984
X25433Y66732
X25236Y67559
X23780Y66850
X26811Y68583
X27283Y68346
X27283Y69134
X26339Y70354
X26575Y71339
X24173Y73307
X25354Y74488
X49606Y71890
X49803Y71693
X49803Y71299
X49606Y71102
X49803Y70906
X50197Y70906
X50197Y71299
X50591Y71299
X50591Y70906
X50591Y70512
X50591Y70118
X50197Y70118
X50197Y70512
X49803Y70512
X49606Y70315
X49803Y70118
X49803Y69528
X50197Y69528
X50591Y69528
X50591Y69134
X50591Y68740
X50591Y68346
X50591Y68031
X50197Y68346
X49803Y68346
X49803Y68031
X49803Y68740
X50197Y68740
X50197Y69134
X49803Y69134
X51083Y68937
X51476Y68937
X51988Y69646
X52382Y69646
X52894Y70118
X53287Y70118
X53957Y69961
X53957Y70354
X54350Y70354
X54350Y69961
X54350Y69567
X53957Y69567
X53957Y69173
X54350Y69173
X54744Y69173
X55138Y69173
X55138Y68780
X55531Y68780
X55531Y69173
X55531Y69567
X55138Y69567
X55138Y69961
X55138Y70354
X55531Y70354
X55531Y69961
X55925Y70354
X56319Y70354
X56713Y70354
X57106Y70354
X57500Y70354
X57894Y70354
X57894Y69961
X58287Y69961
X58287Y70354
X58287Y70748
X57894Y70748
X57894Y71142
X57894Y71535
X58287Y71535
X58602Y71969
X58602Y72362
X59193Y72362
X58917Y73189
X57874Y73228
X57500Y71535
X57500Y71142
X57106Y71142
X56713Y71142
X56713Y70748
X57106Y70748
X57500Y70748
X57106Y71535
X56319Y71535
X56319Y71142
X55925Y71142
X55925Y71535
X55531Y71535
X55138Y71535
X55138Y71142
X55531Y71142
X55531Y70748
X55925Y70748
X56319Y70748
X56319Y69567
X56713Y69567
X57106Y69567
X57500Y69567
X57894Y69567
X58287Y69567
X58287Y69173
X57894Y69173
X57894Y68780
X58287Y68780
X58287Y68386
X57894Y68386
X57894Y67992
X58287Y67992
X58287Y67598
X58287Y67205
X57894Y67205
X57894Y67598
X57500Y67598
X57500Y67205
X57106Y67205
X56713Y67205
X56713Y66811
X57106Y66811
X57106Y66417
X57500Y66417
X57500Y66811
X57894Y66811
X57106Y67598
X57500Y67992
X57106Y68386
X57106Y68780
X57500Y68780
X57500Y69173
X56319Y69173
X55925Y69173
X55925Y68780
X55925Y68386
X55531Y68386
X55138Y68386
X55138Y67992
X55531Y67992
X55531Y67598
X55138Y67598
X55138Y67205
X55531Y67205
X55531Y66811
X55138Y66811
X54744Y67205
X54744Y67598
X54350Y67598
X53957Y67598
X53957Y67205
X53563Y66850
X53563Y67992
X53957Y67992
X54350Y67992
X54350Y68386
X53957Y68386
X53957Y68780
X53287Y68937
X52894Y68937
X51476Y70118
X51083Y70118
X51988Y70866
X52382Y70866
X50591Y71693
X50197Y71693
X53543Y73228
X54331Y72835
X55118Y73228
X55925Y71929
X54744Y71535
X54744Y70354
X54744Y69961
X54744Y69567
X55925Y69567
X56319Y68386
X55925Y67992
X55925Y67598
X55925Y67205
X56319Y67205
X56319Y66811
X56319Y66417
X55925Y66417
X55925Y66811
X54744Y67992
X54744Y68386
X54331Y64961
X55118Y64567
X57697Y64764
X58091Y64764
X58484Y64764
X59094Y66024
X59823Y65551
X59823Y65157
X60709Y65630
X60709Y66024
X61102Y66417
X61102Y66811
X61102Y67205
X60630Y67008
X60039Y66929
X59646Y66732
X59370Y67126
X59646Y67323
X59449Y67717
X59449Y68504
X60630Y68622
X60866Y68780
X61102Y68622
X61339Y68780
X61417Y69055
X61732Y69055
X62008Y69055
X61102Y69449
X61102Y70079
X60906Y70276
X60591Y70276
X60315Y70276
X60866Y71142
X61102Y71299
X61339Y71142
X61575Y71299
X61339Y71732
X61161Y72165
X61161Y72559
X60768Y72756
X60768Y73150
X59469Y71339
X59469Y70945
X60866Y68189
X61339Y67795
X61575Y66614
X61024Y64961
X50394Y64961
X50000Y65748
X49606Y66535
X50394Y66535
X32126Y36890
X31378Y36929
X31378Y36614
X31378Y36299
X31378Y36024
X31378Y35709
X32126Y35866
X32992Y36181
X32992Y36575
X33780Y36535
X34094Y36535
X34094Y36220
X33780Y36220
X33780Y35906
X34094Y35906
X34094Y35591
X33780Y35591
X34409Y35591
X34409Y36220
X34409Y36535
X34409Y36850
X34094Y36850
X33780Y36850
X35236Y36850
X35236Y36535
X35551Y36535
X35551Y36850
X35866Y36850
X36181Y36850
X36181Y36535
X36772Y36535
X37087Y36535
X37087Y36850
X37402Y36850
X37717Y36850
X37717Y36535
X37244Y35984
X36850Y35748
X37244Y35512
X37638Y35748
X37717Y34961
X37402Y34961
X37087Y34961
X36772Y34961
X36535Y34724
X36181Y34961
X35866Y34961
X35551Y34961
X35236Y34961
X34685Y34961
X34213Y34567
X34646Y34291
X34370Y33976
X34370Y33661
X34685Y33780
X35157Y34173
X35827Y34173
X35827Y33622
X36024Y32992
X35039Y32402
X34685Y31811
X35039Y31220
X34961Y30472
X34449Y30472
X33937Y30472
X33307Y30472
X33110Y30866
X32795Y31299
X32795Y31654
X33110Y32047
X32835Y32480
X32835Y32795
X33110Y33228
X32913Y33622
X32913Y33976
X32559Y33976
X32323Y34488
X32087Y34488
X31850Y34488
X32362Y33228
X33110Y34449
X33110Y34803
X32795Y34646
X33110Y35197
X35315Y35748
X35709Y35512
X36102Y35748
X35709Y35984
X36772Y36850
X38425Y36850
X38622Y36654
X38819Y36850
X39016Y36654
X39213Y36850
X39409Y36654
X39606Y36850
X40000Y36850
X40315Y36850
X40039Y36496
X39449Y36220
X39449Y35906
X39449Y35512
X39449Y35236
X39173Y34843
X38622Y34843
X38622Y35394
X38622Y36220
X40118Y35709
X40787Y35748
X40787Y36220
X41535Y36220
X41535Y35315
X41654Y34961
X41654Y34488
X41654Y34016
X41339Y33740
X41102Y34016
X40866Y33740
X40630Y34016
X40394Y33740
X40157Y34016
X39921Y33740
X39685Y34016
X39173Y34252
X38622Y34252
X38622Y33661
X38622Y33386
X37953Y33898
X37638Y34370
X37362Y34370
X36969Y34291
X37323Y33583
X37402Y32992
X37795Y32992
X37008Y32992
X37992Y31811
X37953Y31378
X37913Y30866
X37520Y30866
X37126Y30866
X36732Y30866
X36339Y30866
X35827Y30866
X35551Y30472
X35591Y29449
X35984Y29449
X35984Y29055
X35591Y29055
X35197Y29055
X35197Y29449
X36378Y29449
X36772Y29449
X37165Y29449
X37559Y29449
X37953Y29449
X38346Y29449
X38346Y29055
X38740Y29055
X38740Y29449
X38701Y30157
X38386Y30157
X38346Y30472
X37992Y30079
X39016Y30472
X38858Y31417
X38858Y31811
X38858Y32205
X39055Y32598
X39685Y32520
X39921Y32795
X40157Y32520
X40394Y32795
X40630Y32520
X40866Y32795
X41102Y32520
X41339Y32795
X41181Y33228
X42008Y32795
X42008Y32323
X42008Y31850
X42008Y31378
X42008Y30866
X41535Y30866
X41220Y30630
X41220Y31102
X41220Y31614
X42283Y30079
X42283Y29606
X42008Y29370
X42283Y29134
X42008Y28898
X42283Y28661
X42008Y28425
X42756Y28622
X42756Y29016
X42756Y29409
X42756Y29803
X43228Y29606
X43504Y29370
X43228Y29134
X43504Y28898
X43228Y28661
X43504Y28425
X44409Y29255
X44409Y29563
X44409Y29882
X43504Y29843
X43228Y30079
X44213Y30866
X44213Y31850
X44213Y32323
X44213Y32835
X43701Y33701
X43425Y34685
X43031Y34685
X42520Y34882
X42520Y35276
X42520Y35827
X42520Y36220
X43583Y36063
X43819Y36299
X43819Y35827
X43583Y35551
X43819Y35315
X43819Y36811
X42480Y34291
X42598Y33701
X40787Y35157
X39764Y29409
X41142Y28819
X36378Y29055
X35827Y31614
X34213Y31220
X34213Y32402
X32362Y32047
X32362Y30866
X31890Y30709
X31890Y30433
X31535Y31102
X31339Y31299
X31142Y31102
X30945Y31299
X30748Y31102
X30118Y29213
X29921Y29016
X29724Y29213
X29528Y29016
X30315Y29016
X28740Y29016
X28425Y29016
X28425Y28701
X28740Y28701
X28740Y28386
X28425Y28386
X28268Y31299
X28425Y31457
X28268Y31614
X28583Y31614
X28583Y31299
X27402Y31457
X27165Y31614
X27165Y31299
X26063Y31654
X26063Y32283
X26063Y32717
X26063Y33268
X26063Y33937
X25984Y34803
X25984Y35118
X25984Y35512
X26299Y35512
X26772Y35512
X27087Y35512
X27165Y35118
X27402Y34961
X27165Y34803
X27165Y33976
X27402Y33819
X27165Y33661
X27165Y32795
X27402Y32638
X27165Y32480
X28268Y33661
X28425Y33819
X28268Y33976
X28583Y33976
X28583Y33661
X28937Y34567
X28937Y34882
X29252Y34567
X29567Y34567
X29213Y35630
X29213Y35906
X29213Y36181
X29213Y36575
X29213Y36890
X28189Y37165
X27835Y36181
X27795Y35748
X27992Y35039
X27244Y36260
X26260Y36417
X25945Y36417
X25472Y22283
X25276Y22126
X25079Y22283
X24882Y22126
X25079Y21929
X25472Y21929
X25669Y22126
X28504Y22047
X29685Y21260
X30630Y21339
X30827Y21496
X30827Y21181
X30630Y21024
X30827Y20866
X31693Y21378
X31850Y21535
X31693Y21693
X33307Y19685
X33150Y19528
X33465Y19528
X33622Y19685
X33465Y19843
X33780Y19843
X33937Y19685
X33780Y19528
X34094Y19528
X34094Y19843
X34488Y19843
X34646Y19685
X34803Y19528
X34961Y19685
X35118Y19528
X35276Y19685
X35433Y19528
X35433Y19843
X35118Y19843
X34803Y19843
X34488Y19528
X34331Y19055
X34488Y18858
X34646Y19055
X34803Y18858
X34173Y18858
X34016Y19055
X33858Y18858
X33701Y19055
X33543Y18858
X33386Y19055
X33228Y18858
X32992Y17323
X32874Y17126
X32756Y17323
X32638Y17126
X32520Y17323
X33110Y17126
X34055Y16378
X33976Y15472
X33228Y15748
X33228Y14173
X34016Y13386
X34409Y14173
X35357Y15000
X35554Y15000
X36378Y14961
X36299Y14291
X36142Y14134
X36457Y14134
X36614Y14291
X36772Y14134
X36929Y14291
X37087Y14134
X37874Y14173
X38268Y13898
X38898Y14724
X39055Y14882
X38898Y15039
X38740Y14882
X38740Y15197
X38898Y15354
X39055Y15197
X39055Y15512
X38740Y15512
X37874Y14921
X37244Y15079
X36496Y15669
X36732Y16102
X36732Y16693
X37598Y17283
X37835Y17047
X38386Y17598
X38740Y17598
X39016Y17598
X39409Y17598
X39685Y17598
X39961Y17598
X40315Y17677
X40630Y17323
X40866Y18110
X41063Y18031
X41260Y18110
X41457Y18031
X41732Y18425
X41417Y18858
X41181Y18858
X40906Y18701
X40906Y19016
X40354Y19055
X40354Y19331
X40354Y19606
X40354Y20118
X40354Y20709
X40354Y21260
X39803Y21260
X39252Y21260
X38701Y21260
X38150Y21260
X38150Y20709
X37854Y20074
X37835Y19764
X37835Y19331
X37835Y19055
X37835Y18661
X37835Y18386
X37835Y18071
X37323Y18031
X37126Y18110
X36929Y18031
X36732Y18110
X36772Y18858
X37008Y18858
X37323Y18701
X37323Y19016
X37323Y19606
X37126Y19685
X36929Y19606
X36732Y19685
X35630Y21378
X35472Y21535
X35630Y21693
X37835Y21890
X38071Y22008
X38307Y21890
X39252Y21850
X40079Y22008
X40276Y21850
X40472Y22008
X40669Y21850
X40906Y21260
X41417Y21339
X41575Y21496
X41732Y21339
X41575Y21181
X41732Y21024
X41417Y21024
X41417Y21654
X41575Y21811
X41732Y21654
X41732Y21969
X41417Y21969
X39803Y20709
X39252Y20709
X39291Y20118
X38583Y20118
X40354Y18701
X40354Y18425
X40354Y18150
X39173Y17047
X38976Y17047
X38780Y17047
X37598Y16102
X35354Y16575
X34843Y16575
X35276Y17717
X30945Y17835
X30945Y18425
X30354Y17165
X29134Y16181
X30512Y15197
X27205Y12008
X26654Y11496
X26496Y11299
X26654Y11102
X26496Y10906
X26142Y10630
X25354Y10630
X24567Y10630
X24961Y11417
X25157Y11929
X25354Y12087
X25551Y11929
X25748Y12087
X25945Y11929
X26496Y11693
X27598Y10433
X28661Y10276
X28858Y10433
X28661Y10591
X28858Y10748
X29058Y11220
X29803Y10433
X29961Y10236
X30118Y10433
X30551Y10236
X31024Y10236
X31181Y10394
X31339Y10236
X31890Y9843
X31890Y9449
X31496Y9252
X32283Y8858
X32283Y8110
X31969Y7638
X30630Y7992
X30630Y8307
X29173Y7953
X28583Y7441
X28386Y7244
X28228Y7441
X28071Y7244
X27874Y7441
X27677Y7756
X29016Y6969
X29213Y6811
X29409Y6654
X29409Y6969
X29016Y6654
X29016Y5787
X29213Y5630
X29409Y5787
X29409Y5472
X29016Y5472
X28465Y5236
X28268Y5079
X28465Y4921
X28071Y4921
X28071Y5236
X27717Y4331
X28504Y4331
X29291Y4331
X29252Y9173
X28583Y9134
X28661Y9961
X28858Y10118
X25748Y9843
X25906Y9094
X25354Y9055
X25000Y9055
X24567Y9055
X24961Y9843
X24567Y12992
X26142Y14567
X26535Y15354
X25748Y15354
X26142Y16142
X26535Y16929
X25669Y17402
X25512Y17598
X25669Y17795
X25512Y17992
X25669Y18189
X25512Y18386
X25512Y17205
X26535Y18110
X26535Y19291
X32283Y10669
X32520Y10512
X32756Y10669
X32756Y10354
X32520Y10197
X32756Y10039
X32283Y10039
X32283Y10354
X34016Y10236
X35197Y10197
X35394Y10039
X35197Y9882
X35394Y9724
X35197Y9567
X35394Y9409
X35197Y9252
X35827Y9094
X36102Y9094
X36378Y9094
X36457Y8504
X36929Y8681
X37087Y8504
X37165Y8327
X37008Y8327
X37087Y8150
X37244Y8150
X36929Y8150
X37244Y8681
X37087Y8858
X37283Y9409
X37717Y9252
X38228Y9055
X38228Y8740
X39350Y8110
X39508Y7953
X39665Y8110
X39823Y7953
X39980Y8110
X40138Y7953
X39980Y7795
X39823Y7638
X39665Y7795
X39508Y7638
X39350Y7795
X39350Y7480
X39665Y7480
X39980Y7480
X40138Y7638
X40630Y7835
X41339Y8031
X41535Y8268
X41732Y8031
X42126Y8543
X42126Y9016
X42126Y9528
X41220Y9567
X41220Y9921
X40591Y10551
X40394Y10945
X40787Y11339
X41142Y10945
X41654Y10945
X42087Y10551
X42638Y11417
X42756Y11850
X43071Y11850
X43386Y11850
X43701Y11850
X44016Y11850
X43898Y12283
X44134Y12520
X43937Y12677
X44134Y12835
X43937Y12992
X44134Y13150
X43543Y12283
X42992Y12244
X42835Y12402
X42992Y12559
X42835Y12717
X42992Y12874
X42835Y13031
X42677Y12874
X42677Y12559
X42677Y12244
X41929Y11969
X41929Y11772
X41457Y12441
X40669Y12480
X39961Y12953
X39961Y13268
X39409Y13268
X41102Y14528
X41260Y14685
X41417Y14528
X41417Y14843
X41102Y14843
X41575Y15866
X41732Y16063
X41890Y15866
X42047Y16063
X42362Y16260
X42874Y16732
X43307Y15945
X43504Y15630
X43504Y15315
X43504Y14409
X43307Y14134
X42992Y13189
X42677Y13189
X42323Y13583
X42087Y13346
X41929Y13543
X41772Y13346
X41614Y13543
X41457Y13346
X42520Y14134
X42520Y15354
X41417Y16063
X41732Y19252
X41457Y19606
X41260Y19685
X41063Y19606
X40866Y19685
X41693Y19803
X42283Y19764
X43976Y19488
X44173Y19331
X43976Y19173
X44173Y19016
X43976Y18858
X44173Y18701
X43976Y18543
X44173Y18386
X43976Y18228
X44173Y18071
X44173Y19646
X43780Y11417
X44331Y10512
X44331Y9528
X44331Y9055
X44331Y8504
X43858Y7480
X43071Y7480
X42441Y7795
X42441Y6732
X41732Y6299
X41339Y6299
X40630Y6732
X40630Y5630
X40118Y5433
X39921Y5630
X39724Y5433
X39528Y5630
X39331Y5433
X39134Y5630
X38937Y5433
X38740Y5630
X38740Y5197
X38937Y5000
X38740Y4803
X38937Y4606
X39134Y4803
X39331Y4606
X39528Y4803
X39724Y4606
X39921Y4803
X39724Y5000
X39528Y5197
X39331Y5000
X39134Y5197
X39921Y5197
X40118Y5000
X40118Y4606
X39921Y4370
X39724Y4173
X39528Y4370
X39331Y4173
X39134Y4370
X38937Y4173
X38740Y4370
X40118Y4173
X41260Y4685
X41654Y4685
X41929Y4882
X41654Y5079
X41260Y5079
X42244Y5079
X42244Y4685
X43071Y4331
X43465Y5118
X44252Y5118
X43858Y5906
X43071Y5906
X42441Y5669
X43465Y6693
X40433Y9134
X39567Y9134
X39370Y9646
X39213Y10551
X39606Y10551
X40000Y10551
X38819Y10551
X37441Y10354
X37283Y10197
X37126Y10354
X37126Y10039
X37441Y10039
X36772Y11693
X36772Y11890
X36496Y11811
X36220Y11890
X36220Y11693
X36220Y12205
X36496Y12205
X36772Y12205
X36772Y12953
X36496Y12953
X36181Y12953
X34016Y11811
X35276Y7185
X35433Y7028
X35591Y7185
X35748Y7028
X35591Y6693
X35984Y4331
X39567Y8386
X10748Y38150
T02
X29134Y12520
X29370Y12087
X28898Y12087
X29134Y11654
X27520Y8740
X27323Y8543
X27520Y8346
X27126Y8346
X27126Y8740
X31260Y8425
X31457Y8228
X31654Y8031
X31260Y8031
X31654Y8425
X34961Y15591
X34961Y15984
X35315Y15787
X34606Y15787
X38110Y18346
X38583Y18346
X38583Y17874
X39094Y17874
X39094Y18346
X39094Y18858
X38583Y18858
X38110Y18858
X38110Y19370
X38583Y19370
X38583Y19843
X39094Y19843
X39094Y19370
X39606Y19370
X39606Y19843
X40079Y19370
X40079Y18858
X39606Y18858
X39606Y18346
X39606Y17874
X40079Y18346
X39685Y12205
X39685Y11850
X39685Y11496
X39331Y11850
X40039Y11850
X37165Y31220
X37165Y31654
X37598Y31654
X37598Y32205
X37165Y32205
X37165Y32638
X36614Y32638
X36614Y32205
X36181Y32205
X36181Y31654
X36614Y31654
X36614Y31220
X31693Y67441
X31693Y67874
X32126Y67874
X31693Y68307
X31260Y67874
T03
X15079Y37244
X26299Y30197
X26457Y30433
X26614Y30197
X27480Y30197
X27638Y30433
X27795Y30197
X27165Y30906
X27165Y32047
X27165Y33228
X27165Y34409
X27795Y13228
X29724Y13150
X30591Y13189
X31220Y13543
X30591Y11535
X29882Y11063
T04
X24272Y6693
X24272Y6299
X24272Y5906
X23287Y5906
X23287Y6299
X23287Y6693
X34016Y4035
X34409Y4035
X34803Y4035
X34803Y3051
X34409Y3051
X34016Y3051
X44547Y5906
X44547Y6299
X44547Y6693
X45531Y6693
X45531Y6299
X45531Y5906
X45531Y18425
X45531Y18819
X45531Y19213
X44547Y19213
X44547Y18819
X44547Y18425
X44547Y31850
X44547Y32244
X44547Y32638
X44547Y33031
X44547Y33425
X45531Y33425
X45531Y33031
X45531Y32638
X45531Y32244
X45531Y31850
X45531Y43150
X45531Y43543
X45531Y43937
X44547Y43937
X44547Y43543
X44547Y43150
X43071Y60374
X42677Y60374
X42283Y60374
X42283Y61358
X42677Y61358
X43071Y61358
X40433Y65039
X40433Y65433
X40433Y65827
X39449Y65827
X39449Y65433
X39449Y65039
X39449Y73465
X39449Y73858
X39449Y74252
X40433Y74252
X40433Y73858
X40433Y73465
X32598Y74885
X32205Y74885
X31811Y74885
X31811Y75869
X32205Y75869
X32598Y75869
X23586Y70259
X23586Y69865
X23586Y69472
X22602Y69472
X22602Y69865
X22602Y70259
X22602Y64544
X22602Y64150
X22602Y63757
X23586Y63757
X23586Y64150
X23586Y64544
X23287Y55197
X23287Y54803
X23287Y54409
X24272Y54409
X24272Y54803
X24272Y55197
X24272Y42165
X24272Y41772
X24272Y41378
X23287Y41378
X23287Y41772
X23287Y42165
X20512Y40217
X20118Y40217
X19724Y40217
X19724Y39232
X20118Y39232
X20512Y39232
X26417Y38546
X26811Y38546
X27205Y38546
X27205Y40295
X26811Y40295
X26417Y40295
X26417Y26732
X26811Y26732
X27205Y26732
X27205Y25295
X26811Y25295
X26417Y25295
X24272Y23425
X24272Y23031
X24272Y22638
X23287Y22638
X23287Y23031
X23287Y23425
X20512Y25059
X20118Y25059
X19724Y25059
X19724Y26043
X20118Y26043
X20512Y26043
X11555Y26043
X11161Y26043
X10768Y26043
X10768Y25059
X11161Y25059
X11555Y25059
X6732Y39232
X6339Y39232
X5945Y39232
X5945Y40217
X6339Y40217
X6732Y40217
X52795Y62500
X53189Y62500
X53583Y62500
X53583Y64232
X53189Y64232
X52795Y64232
X61457Y64232
X61850Y64232
X62244Y64232
X62244Y62500
X61850Y62500
X61457Y62500
X61457Y73720
X61850Y73720
X62244Y73720
X62244Y75453
X61850Y75453
X61457Y75453
X53583Y75453
X53189Y75453
X52795Y75453
X52795Y73720
X53189Y73720
X53583Y73720
T05
X30541Y45211
X30041Y45211
X29541Y45211
X29041Y45211
X28541Y45211
X28041Y45211
X28041Y44711
X28541Y44711
X29041Y44711
X29541Y44711
X30041Y44711
X30541Y44711
X42860Y32850
X42860Y32350
X42860Y31850
X42860Y31350
X42860Y30850
X43360Y30850
X43360Y31350
X43360Y31850
X43360Y32350
X43360Y32850
X43478Y10528
X42978Y10528
X42978Y10028
X43478Y10028
X43478Y9528
X42978Y9528
X42978Y9028
X43478Y9028
X43478Y8528
X42978Y8528
T06
X17920Y30816
X18274Y31429
X18477Y32108
X18519Y32815
X18395Y33513
X18115Y34163
X17692Y34731
X17149Y35187
X16516Y35505
X15827Y35669
X15118Y35669
X14429Y35505
X13796Y35187
X13253Y34731
X12830Y34163
X12550Y33513
X12426Y32815
X12468Y32108
X12671Y31429
X13025Y30816
X13511Y30300
X14103Y29911
X14769Y29669
X15472Y29587
X16176Y29669
X16842Y29911
X17434Y30300
X17108Y31002
X16522Y30577
X15834Y30353
X15111Y30353
X14422Y30577
X13837Y31002
X13411Y31588
X13188Y32276
X13188Y33000
X13411Y33688
X13837Y34273
X14422Y34699
X15111Y34922
X15834Y34922
X16522Y34699
X17108Y34273
X17533Y33688
X17757Y33000
X17757Y32276
X17533Y31588
X16769Y31743
X17036Y32448
X16288Y32452
X16126Y33159
X15472Y33474
X14819Y33159
X14657Y32452
X15109Y31884
X15835Y31884
X16204Y31243
X15472Y31063
X14741Y31243
X14176Y31743
X13909Y32448
X14000Y33196
X14428Y33817
X15096Y34167
X15849Y34167
X16517Y33817
X16945Y33196
X15472Y32638
T07
X12222Y35888
X12222Y29388
X18722Y29388
X18722Y35888
T08
X25180Y73307
T09
X26180Y72307
X24180Y72307
X24180Y74307
X26180Y74307
T10
X51969Y72520
X51969Y65433
X63150Y65433
X63150Y72520
T11
X2008Y1969
X67992Y1969
X67992Y76952
X2008Y76952
T12
X25318Y64394
X30791Y73558
X48740Y73565
X56516Y73307
X56516Y64646
X48740Y64402
X65126Y72354
X26890Y37220
X20000Y38023
X26890Y28056
X20000Y27253
X7953Y38023
T13
X12638Y48031
X12638Y71654
X57362Y55906
X57362Y34252
X57362Y12598
X12638Y12598
M30
