%
M48
M72
T01C0.0079
T02C0.0291
T03C0.0394
T04C0.0453
T05C0.0650
T06C0.1457
T07C0.1732
%
T01
X6575Y709
X6890Y709
X7205Y709
X7520Y709
X7835Y1024
X7835Y1339
X7835Y1654
X7835Y1969
X7835Y2283
X8150Y2283
X8465Y2283
X8780Y2283
X9094Y2283
X9409Y2283
X9409Y1969
X9724Y1969
X9724Y2283
X10039Y2283
X10039Y1969
X10354Y1969
X10354Y2283
X10669Y2283
X10669Y1969
X10984Y1969
X10984Y2283
X11299Y2283
X11299Y1969
X11614Y1969
X11614Y2283
X11929Y2283
X11929Y1969
X12244Y1969
X12559Y1969
X12559Y2283
X12244Y2598
X12559Y2913
X12874Y2913
X13189Y2913
X13189Y2598
X13189Y2283
X13189Y1969
X13504Y1969
X13504Y2283
X13819Y2283
X13819Y1969
X14134Y1969
X14449Y1969
X14764Y1969
X14764Y2283
X15079Y2283
X15079Y1969
X15394Y1969
X15394Y2283
X15394Y2598
X15079Y2598
X14764Y2598
X14449Y2598
X14134Y2598
X14134Y2913
X14449Y2913
X14764Y2913
X15079Y2913
X15394Y2913
X15394Y3228
X15709Y3228
X16024Y3228
X16339Y3228
X16654Y3228
X16654Y3543
X16654Y3858
X16969Y3858
X17441Y3740
X17441Y4173
X17441Y4606
X16969Y5118
X16969Y5433
X16969Y5748
X16654Y5748
X16654Y5433
X16339Y5433
X16339Y5118
X16339Y4803
X16339Y4488
X16339Y4173
X16339Y3858
X16339Y3543
X16024Y3543
X16024Y3858
X15709Y3858
X15709Y3543
X15394Y3543
X15079Y3543
X15079Y3228
X14764Y3228
X14449Y3228
X14134Y3228
X13819Y3228
X13819Y2913
X13504Y2913
X13504Y2598
X13504Y3228
X13189Y3228
X12874Y3228
X12559Y3228
X12244Y3228
X11929Y3543
X11614Y3543
X11614Y3228
X11614Y2913
X11299Y2913
X10984Y2913
X10984Y2598
X10669Y2598
X10354Y2598
X10039Y2598
X9724Y2598
X9409Y2598
X9409Y2913
X9094Y2913
X8780Y2913
X8780Y2598
X8465Y2913
X8150Y2913
X7835Y2913
X7835Y2598
X7520Y2598
X7205Y2283
X7205Y1969
X6890Y1969
X7205Y1654
X7205Y1339
X6575Y1339
X8150Y1339
X8150Y1654
X8465Y1654
X8780Y1654
X8780Y1969
X9409Y1654
X9724Y1654
X10039Y1654
X10354Y1654
X10669Y1654
X10984Y1654
X11299Y1654
X11614Y1654
X11929Y1654
X12244Y1654
X12559Y1654
X12559Y1339
X12244Y1339
X11929Y1339
X11614Y1339
X11299Y1339
X11299Y1024
X11929Y1024
X12244Y1024
X12559Y1024
X12874Y1024
X13189Y1024
X13189Y1339
X13189Y1654
X13504Y1339
X13504Y1024
X13819Y1024
X14134Y1024
X14134Y1339
X14449Y1024
X14764Y1024
X15079Y1024
X15394Y1024
X15394Y1339
X15394Y1654
X15709Y1654
X15709Y1969
X16024Y1969
X16024Y2283
X16339Y2283
X16339Y1969
X16654Y1969
X16654Y2283
X16654Y2598
X16024Y2598
X16024Y2913
X15394Y3858
X15394Y4173
X15079Y4173
X15079Y3858
X14764Y3858
X14764Y4173
X14449Y4173
X14134Y4173
X14134Y3858
X14134Y3543
X14449Y3543
X13819Y3543
X13504Y3543
X13189Y3543
X12874Y3543
X12559Y3543
X12559Y3858
X12874Y3858
X13189Y3858
X13504Y3858
X13819Y3858
X13819Y4173
X13504Y4173
X13189Y4173
X12874Y4173
X12559Y4173
X12244Y4173
X12244Y4488
X12559Y4488
X12874Y4488
X13189Y4488
X13504Y4488
X13819Y4488
X14134Y4488
X14449Y4488
X14764Y4488
X14764Y4803
X15079Y4803
X15394Y4803
X15394Y5118
X15394Y5433
X15709Y5433
X16024Y5433
X16024Y5118
X16024Y4803
X16024Y5748
X16339Y5748
X16339Y6063
X16654Y6063
X16024Y6063
X16024Y6378
X15709Y6378
X15709Y6693
X15709Y7008
X16024Y7008
X16339Y7008
X16654Y7008
X16339Y7323
X16339Y7638
X16339Y7953
X16654Y7953
X16969Y7953
X16969Y7638
X16339Y8268
X16339Y8583
X16339Y8898
X16654Y8898
X16969Y8898
X16969Y9213
X16339Y9213
X16339Y9528
X16339Y9843
X16339Y10157
X16654Y10157
X16654Y9843
X16024Y9843
X16024Y10157
X15709Y10157
X15709Y9843
X15394Y9843
X15394Y10157
X15079Y10157
X15079Y9843
X14764Y9843
X14449Y9843
X14449Y10157
X14134Y10157
X14134Y9843
X13819Y9843
X13504Y9843
X13189Y9843
X12874Y9843
X12874Y9528
X12559Y9528
X12244Y9528
X12244Y9843
X12244Y10157
X11929Y10157
X11929Y9843
X11929Y9528
X11929Y9213
X12244Y9213
X12559Y9213
X12874Y9213
X13189Y9213
X13189Y9528
X13504Y9528
X13504Y9213
X13819Y9213
X14134Y9213
X14449Y9213
X14449Y9528
X14764Y9528
X15079Y9528
X15394Y9528
X15709Y9528
X15394Y9213
X15079Y9213
X14764Y9213
X14449Y8898
X14134Y8898
X13819Y8898
X13504Y8898
X13189Y8898
X12874Y8898
X12559Y8898
X12244Y8583
X12244Y8268
X12244Y7953
X12559Y7953
X12874Y7953
X12874Y8268
X12874Y8583
X13189Y8583
X13504Y8583
X13819Y8583
X14134Y8583
X14449Y8583
X14764Y8583
X15079Y8583
X15079Y8268
X14764Y8268
X15079Y7953
X15079Y7638
X15394Y7638
X15709Y7638
X16024Y7638
X16024Y7953
X16024Y8268
X16024Y8583
X16024Y8898
X15709Y8898
X15394Y8898
X15709Y8583
X15709Y8268
X15709Y7953
X15709Y7323
X16024Y7323
X15394Y7323
X15394Y7008
X15394Y6693
X15394Y6378
X15394Y6063
X15709Y6063
X15709Y5748
X15394Y5748
X15079Y5748
X15079Y5433
X15079Y5118
X14764Y5118
X14764Y5433
X14764Y5748
X14764Y6063
X15079Y6063
X15079Y6378
X15079Y6693
X15079Y7008
X15079Y7323
X14764Y7323
X14764Y7638
X14449Y7638
X14449Y7953
X14134Y7953
X14134Y8268
X13819Y8268
X13819Y7953
X13504Y7953
X13189Y7953
X13189Y8268
X13189Y7638
X13504Y7638
X13819Y7638
X14134Y7638
X14134Y7323
X14449Y7323
X14449Y7008
X14764Y7008
X14764Y6693
X14764Y6378
X14449Y6378
X14449Y6693
X14134Y6693
X14134Y7008
X13819Y7008
X13819Y7323
X13504Y7323
X13189Y7323
X12874Y7323
X12874Y7638
X12559Y7638
X12244Y7638
X12244Y7323
X12559Y7323
X12559Y7008
X12244Y7008
X12244Y6693
X12244Y6378
X11929Y6378
X11614Y6378
X11299Y6378
X10984Y6378
X10669Y6378
X10354Y6378
X10039Y6378
X9724Y6378
X9409Y6378
X9094Y6378
X8780Y6378
X8780Y6693
X9094Y6693
X9094Y7008
X8780Y7008
X8780Y7323
X8780Y7638
X9094Y7638
X9094Y7953
X8780Y7953
X8780Y8268
X9094Y8268
X9094Y8583
X8780Y8583
X8780Y8898
X9094Y8898
X9094Y9213
X8780Y9213
X8780Y9528
X8780Y9843
X9094Y9843
X9409Y9843
X9724Y9843
X9724Y10157
X9724Y10472
X9409Y10472
X9094Y10472
X9094Y10787
X9488Y11063
X9685Y11654
X9724Y12244
X9331Y12441
X9075Y12579
X8799Y12579
X8799Y12303
X9075Y12303
X8268Y11575
X7480Y11575
X7283Y12441
X7520Y12835
X7756Y12441
X6732Y12835
X6575Y12598
X5984Y12402
X6142Y11969
X5984Y10630
X5748Y10236
X5748Y9843
X6890Y9843
X6890Y10157
X7205Y10472
X7520Y10472
X7835Y10472
X7835Y10157
X7835Y9843
X8150Y9843
X8150Y10157
X8465Y10157
X8465Y9843
X8465Y9528
X8150Y9528
X7835Y9528
X7520Y9528
X7520Y9843
X7205Y9528
X6890Y9528
X6890Y9213
X7205Y9213
X7520Y9213
X7835Y9213
X8150Y9213
X8465Y9213
X8465Y8898
X8465Y8583
X8150Y8898
X7835Y8898
X7520Y8898
X7205Y8898
X7520Y8583
X7835Y8583
X7835Y8268
X8150Y7953
X8465Y7638
X8465Y7323
X8150Y7008
X8150Y6693
X8465Y6693
X8465Y6378
X8465Y6063
X8780Y6063
X9094Y6063
X9094Y5748
X8780Y5748
X8780Y5433
X9094Y5433
X9094Y5118
X8780Y5118
X8780Y4803
X9094Y4803
X9094Y4488
X8780Y4488
X8780Y4173
X9094Y4173
X9409Y4173
X9409Y3858
X9724Y3858
X9724Y3543
X9724Y3228
X9409Y3228
X9724Y2913
X10039Y2913
X10354Y2913
X10669Y2913
X10669Y3228
X10354Y3228
X10354Y3543
X10354Y3858
X10039Y3858
X10039Y4173
X9724Y4173
X9724Y4488
X9409Y4488
X9409Y4803
X9409Y5118
X9409Y5433
X9409Y5748
X9409Y6063
X9724Y6063
X9724Y5748
X9724Y5433
X9724Y5118
X9724Y4803
X10039Y4803
X10039Y4488
X10354Y4488
X10354Y4173
X10669Y4173
X10669Y3858
X10669Y3543
X10984Y3543
X11299Y3543
X11299Y3858
X10984Y3858
X10984Y4173
X10984Y4488
X10669Y4488
X10669Y4803
X10354Y4803
X10354Y5118
X10039Y5118
X10039Y5433
X10039Y5748
X10039Y6063
X10354Y6063
X10354Y5748
X10354Y5433
X10669Y5433
X10669Y5118
X10984Y5118
X11299Y5118
X11299Y4803
X11299Y4488
X11299Y4173
X11614Y4173
X11614Y3858
X11929Y3858
X11614Y4488
X11929Y4803
X11614Y5118
X11299Y5433
X11299Y5748
X10984Y5748
X10669Y5748
X10669Y6063
X10669Y6693
X10354Y6693
X10039Y6693
X9724Y6693
X9409Y6693
X9409Y7008
X9409Y7323
X9724Y7323
X9724Y7638
X9724Y7953
X9409Y7953
X9724Y8268
X9724Y8583
X9724Y8898
X9409Y8898
X9409Y9213
X9409Y9528
X9724Y9528
X10039Y9528
X10039Y9843
X10354Y9843
X10669Y9843
X10984Y9843
X11299Y9843
X11299Y10157
X11614Y10157
X11299Y10472
X10906Y11358
X10276Y11063
X11732Y11358
X11732Y11791
X11732Y12323
X11732Y12638
X11732Y12953
X11732Y13268
X11142Y13248
X10906Y13543
X10197Y14173
X10354Y14665
X10197Y14882
X10039Y14665
X9764Y14665
X9606Y14882
X9488Y15315
X10630Y14665
X10787Y14882
X10945Y14665
X11220Y14665
X11378Y14882
X11535Y14665
X11811Y14665
X11969Y14882
X12283Y14469
X12480Y14272
X12283Y14075
X12480Y13878
X12283Y13681
X12480Y13484
X12933Y13287
X13543Y13150
X13543Y13543
X13937Y13543
X13937Y13150
X14331Y13150
X14331Y13543
X14724Y13543
X14724Y13150
X14331Y12756
X14331Y12362
X13937Y12756
X13543Y12362
X12972Y12264
X13307Y11358
X13307Y10984
X13701Y11358
X14094Y11358
X14094Y10984
X14488Y10984
X14488Y11358
X14882Y11358
X14882Y10984
X15276Y10984
X15276Y11358
X15669Y11358
X15669Y10984
X15079Y10472
X14764Y10472
X14449Y10472
X14134Y10472
X13819Y10472
X12244Y10472
X11299Y9528
X11299Y9213
X11299Y8898
X10984Y8898
X10984Y8583
X10669Y8583
X10354Y8583
X10039Y8583
X10039Y8898
X10039Y9213
X9724Y9213
X10354Y9213
X10354Y9528
X10669Y9528
X10669Y9213
X10354Y8898
X10354Y8268
X10039Y8268
X10039Y7953
X10039Y7638
X10039Y7323
X10039Y7008
X9724Y7008
X10354Y7008
X10354Y7323
X10354Y7638
X10354Y7953
X10669Y7953
X10669Y8268
X10984Y8268
X11299Y8268
X11299Y8583
X11614Y8583
X11614Y8268
X11614Y7953
X11299Y7953
X10984Y7953
X10984Y7638
X10669Y7638
X10669Y7323
X10669Y7008
X10984Y7008
X10984Y7323
X11299Y7323
X11299Y7638
X11614Y7638
X11614Y7323
X11614Y7008
X11299Y7008
X11299Y6693
X10984Y6693
X11614Y6693
X11299Y6063
X11614Y5748
X11929Y5748
X11929Y6063
X12244Y5748
X12559Y5748
X12559Y5433
X12559Y5118
X12559Y4803
X12244Y5118
X12874Y5118
X13189Y5118
X13189Y4803
X13504Y4803
X13819Y4803
X14134Y4803
X14449Y4803
X14449Y5118
X14449Y5433
X14449Y5748
X14449Y6063
X14134Y6063
X14134Y6378
X13819Y6378
X13819Y6693
X13504Y6693
X13504Y7008
X13189Y7008
X12874Y7008
X12874Y6693
X12559Y6693
X12559Y6378
X12559Y6063
X12874Y6378
X13189Y6378
X13189Y6693
X13504Y6378
X13504Y6063
X13819Y6063
X13819Y5748
X14134Y5748
X14134Y5433
X14134Y5118
X13819Y5118
X13504Y5118
X13504Y5433
X13819Y5433
X13504Y5748
X13189Y5748
X13189Y5433
X12874Y5748
X13189Y6063
X17323Y6181
X17874Y5827
X17441Y5433
X18484Y4961
X18839Y5374
X19193Y4961
X19547Y5374
X19724Y4665
X20118Y4469
X19724Y4213
X20118Y3976
X20551Y3701
X20551Y3268
X20630Y2992
X20315Y2795
X20315Y2441
X20551Y2087
X20157Y1890
X20354Y1496
X20748Y1496
X21319Y1535
X21732Y1496
X22087Y1496
X22441Y1496
X22795Y1496
X23720Y1535
X25138Y1535
X25846Y1654
X26201Y2067
X26555Y2480
X26201Y2894
X26201Y3307
X26555Y3307
X25846Y2480
X25000Y3386
X23858Y3386
X23701Y3622
X23307Y3622
X23071Y3465
X22480Y3661
X22677Y3976
X22913Y4370
X23307Y4409
X23504Y5039
X23425Y5374
X24449Y4528
X24764Y4528
X24764Y4843
X25079Y4528
X24764Y4213
X25492Y5374
X26201Y5374
X26417Y4921
X26732Y4921
X26732Y4173
X27598Y4173
X27598Y3740
X27598Y3307
X27598Y2874
X27598Y2441
X26850Y1575
X26555Y1654
X26201Y1240
X25984Y945
X26417Y197
X26850Y197
X27598Y1142
X25118Y197
X24685Y197
X22953Y197
X21220Y197
X19921Y197
X18622Y197
X17795Y709
X17441Y1024
X16969Y1339
X16969Y1654
X16654Y1654
X16339Y1654
X16024Y1654
X16024Y1339
X16339Y1339
X16339Y1024
X16339Y709
X16654Y709
X16969Y709
X16024Y1024
X15709Y1024
X15709Y1339
X18484Y1654
X18839Y1969
X19193Y1654
X19567Y1496
X18839Y1339
X19193Y2480
X19567Y2480
X18839Y2894
X19193Y3307
X18839Y3720
X18484Y3307
X18484Y2480
X18484Y4134
X18839Y4547
X19193Y4134
X20157Y3307
X21142Y3543
X21614Y3150
X22087Y3543
X22520Y6417
X21614Y6693
X21181Y6693
X20787Y6417
X20354Y6417
X21181Y7520
X21614Y7520
X21575Y8386
X22402Y8386
X22402Y9291
X22402Y10118
X21575Y10118
X21575Y9291
X20748Y9291
X19921Y9291
X19094Y9291
X19094Y10118
X18307Y10295
X18307Y10748
X19094Y10945
X19921Y10945
X20748Y10945
X21575Y10945
X22402Y10945
X22402Y12126
X22402Y12677
X22402Y13307
X23169Y13327
X23228Y13858
X22913Y14409
X22913Y15197
X21614Y15197
X21181Y15197
X20748Y15197
X20315Y15197
X20571Y14409
X19449Y14409
X19016Y14409
X18150Y14409
X18150Y15217
X18583Y15236
X17362Y13878
X16949Y14035
X16732Y13878
X16949Y13720
X16949Y13445
X16732Y13287
X16949Y13130
X16949Y12854
X16732Y12697
X16949Y12539
X16949Y12264
X16732Y12106
X17362Y12106
X17402Y11594
X18327Y12126
X19055Y12126
X19094Y12677
X19094Y13307
X19921Y13307
X19921Y12677
X19882Y12126
X20748Y12126
X20748Y12677
X20748Y13307
X21575Y13307
X21575Y12677
X21575Y12126
X23228Y12677
X25020Y12717
X26024Y12717
X26299Y12717
X26299Y13898
X26142Y14370
X26772Y14567
X25945Y15157
X25669Y15472
X25433Y15472
X25197Y15472
X24547Y15217
X24685Y14213
X25079Y14016
X25472Y14016
X27441Y15551
X27638Y15354
X28110Y14449
X28346Y14173
X28346Y13858
X29370Y13543
X29173Y13110
X29075Y12618
X29055Y12185
X29075Y11752
X29055Y11181
X28661Y11181
X28268Y11299
X27874Y11181
X27795Y11752
X27539Y11752
X27539Y12185
X27795Y12185
X29783Y12185
X29783Y11752
X29783Y12618
X30906Y14134
X31614Y14370
X31850Y14685
X31614Y14961
X32087Y14961
X32087Y14370
X32717Y14528
X33583Y15157
X33583Y15551
X33622Y16201
X33346Y16201
X33071Y16201
X33071Y16673
X33346Y16673
X33622Y16673
X32756Y16673
X31831Y17323
X31535Y17126
X31063Y17126
X30394Y17126
X31181Y18307
X30945Y18780
X30472Y18898
X30000Y18504
X29606Y18898
X29409Y18701
X29134Y18701
X28898Y18701
X28543Y18701
X28228Y18701
X27992Y18701
X27756Y18701
X27402Y18937
X26890Y18583
X26654Y18583
X26417Y18583
X26024Y18937
X25669Y18602
X25433Y18602
X25197Y18602
X24685Y18937
X24094Y18937
X23504Y18937
X22913Y18937
X22323Y18937
X22087Y18937
X21732Y17992
X21339Y17126
X20945Y17402
X20551Y17126
X20236Y17126
X20000Y17402
X19724Y17913
X19528Y17756
X19016Y18071
X19016Y18386
X18976Y18937
X19409Y18937
X19705Y18937
X19980Y18937
X20276Y18937
X20709Y18937
X20945Y18937
X20472Y17835
X19449Y17126
X20630Y16673
X22205Y16673
X22795Y16673
X23386Y16673
X23976Y16673
X24567Y16673
X25945Y16693
X26417Y16693
X26654Y16693
X26890Y16693
X27717Y17126
X28189Y17126
X28425Y17362
X28661Y17126
X28661Y17598
X28189Y17598
X29213Y15551
X30197Y15512
X30906Y15236
X31201Y15591
X29370Y14803
X32126Y13622
X31929Y12618
X31673Y12618
X31673Y12185
X31929Y12185
X31949Y11752
X31673Y11752
X32756Y12638
X33583Y13583
X34961Y13839
X34961Y14350
X35413Y14783
X35650Y14941
X35650Y15256
X35413Y15413
X36575Y15256
X36772Y15413
X36575Y14941
X36772Y14783
X36772Y13406
X36575Y13248
X36575Y12933
X36772Y12776
X36772Y12421
X36575Y12264
X36575Y11949
X36772Y11791
X35650Y11949
X35413Y11791
X35650Y12264
X35413Y12421
X35413Y12776
X35650Y12933
X35650Y13248
X35413Y13406
X34961Y11358
X34961Y10846
X35413Y10413
X35650Y10256
X35650Y9941
X35413Y9783
X36575Y9941
X36772Y9783
X36575Y10256
X36772Y10413
X37165Y8425
X37677Y8386
X38228Y7559
X38642Y7559
X38740Y8189
X38740Y8583
X39134Y8386
X39528Y8583
X40039Y8465
X40768Y9094
X40768Y9646
X40768Y10827
X40630Y11102
X40768Y11417
X40236Y11102
X40768Y13780
X40630Y14094
X40768Y14370
X40236Y14094
X40768Y15551
X40768Y16102
X40394Y16102
X40157Y16102
X39882Y16457
X39882Y16693
X39213Y16102
X38976Y16102
X37205Y16457
X37205Y16693
X36890Y17165
X37126Y17283
X36654Y17283
X37362Y18307
X37362Y18583
X37362Y18858
X37559Y19035
X37874Y19035
X38189Y19035
X38504Y19035
X38819Y19035
X39134Y19035
X39724Y18209
X39843Y18012
X39961Y18209
X40079Y18012
X40197Y18209
X40315Y18012
X34843Y19606
X34587Y19213
X34587Y18937
X34587Y18661
X34587Y18386
X34587Y18110
X34587Y17835
X31831Y17717
X31831Y18110
X31831Y18583
X31831Y18976
X31831Y19370
X28268Y10591
X28465Y10394
X28268Y10197
X28071Y10394
X27480Y10197
X27500Y9606
X28287Y9606
X28701Y9606
X29173Y9744
X29075Y8819
X29331Y8819
X28563Y8819
X28307Y8819
X28051Y8819
X27323Y8031
X27008Y8031
X26693Y8031
X27008Y6535
X27598Y5945
X27598Y5472
X27598Y5039
X28051Y5669
X28307Y5669
X28563Y5669
X28878Y5886
X28878Y6161
X30000Y6102
X30000Y5709
X30787Y6102
X31260Y6496
X31260Y6850
X31260Y7165
X31260Y7480
X31260Y7795
X30787Y8110
X30531Y8819
X30276Y8819
X31063Y8819
X31339Y8819
X29803Y8110
X30197Y7480
X30394Y7244
X30197Y7008
X31535Y6161
X31535Y5925
X32283Y6693
X33071Y6693
X33701Y7835
X34173Y8425
X34685Y7992
X35197Y8425
X36181Y8425
X36673Y8150
X36673Y7815
X36457Y6654
X36220Y6299
X35984Y6654
X35433Y6299
X34705Y6280
X34705Y6673
X34685Y7087
X37953Y5689
X38228Y5531
X38228Y5256
X37953Y5098
X37953Y4567
X38228Y4409
X38228Y4134
X38228Y3819
X38228Y3543
X37953Y3386
X37953Y3976
X36575Y3268
X36181Y3465
X36220Y2953
X35984Y2559
X36220Y2165
X36457Y2559
X35433Y2165
X34980Y2185
X34980Y2598
X34764Y2953
X34705Y1024
X35197Y394
X35689Y1063
X36181Y394
X34173Y354
X33681Y1142
X33189Y354
X30531Y2894
X30059Y3051
X31024Y4134
X31024Y5079
X29232Y4173
X25551Y6417
X24055Y8130
X24055Y8996
X25413Y10768
X26201Y10768
X26693Y10394
X20748Y10118
X19921Y10118
X19921Y8386
X19094Y8386
X19016Y7520
X18386Y7520
X19016Y6614
X20748Y8386
X17441Y9862
X17402Y10295
X17205Y10531
X17402Y10728
X14921Y12362
X15610Y12697
X15610Y13287
X15728Y13878
X15118Y13937
X15138Y14508
X14744Y14961
X14547Y15118
X14350Y14961
X13957Y14941
X13740Y15689
X13189Y15374
X12756Y15374
X12972Y14508
X13937Y13937
X14331Y13937
X15965Y14665
X16732Y14488
X16949Y14311
X16102Y15728
X15433Y15650
X14567Y15709
X14331Y16673
X14114Y16909
X13898Y16673
X13602Y16673
X13327Y16673
X13031Y16673
X12559Y16673
X13189Y17520
X13189Y17913
X13543Y17717
X12835Y17717
X13071Y18465
X13465Y18661
X13465Y18898
X13799Y18937
X14075Y18937
X14370Y18898
X14843Y18937
X15433Y18937
X15906Y19291
X15827Y19528
X16299Y19291
X16378Y19528
X16811Y18937
X17008Y18386
X16457Y18189
X16102Y18386
X16102Y17992
X15748Y18189
X14961Y17795
X14961Y17402
X14921Y16673
X15512Y16673
X15965Y16673
X16240Y16673
X16496Y16673
X16240Y16969
X15965Y16969
X17087Y16673
X17638Y16673
X18150Y16673
X17205Y17795
X17402Y18937
X17953Y18937
X18189Y18937
X18425Y18937
X14094Y18465
X13071Y18937
X12677Y18661
X12480Y18937
X12126Y18110
X11535Y18110
X11142Y18110
X10709Y18504
X10315Y18504
X10118Y18937
X9291Y18819
X8898Y18819
X8543Y18937
X7165Y18937
X6772Y18583
X6575Y18937
X6339Y18937
X6102Y18425
X5945Y18268
X5787Y18425
X5630Y18268
X5472Y18425
X5118Y18425
X4961Y18268
X4803Y18425
X4646Y18268
X4488Y18425
X4528Y17362
X4685Y17205
X4843Y17362
X5000Y17205
X5354Y17205
X5512Y17362
X5669Y17205
X5827Y17362
X5984Y17205
X4370Y17205
X2874Y16260
X2717Y16417
X2717Y16102
X2874Y15945
X2717Y15787
X2441Y15197
X2087Y15197
X2323Y14449
X2126Y14291
X3071Y14469
X3071Y14803
X3228Y15118
X4094Y15315
X5039Y15236
X5472Y15236
X5472Y14409
X5472Y14134
X5906Y14409
X6339Y14409
X6772Y14252
X7205Y14409
X7638Y14409
X8071Y14409
X8071Y15236
X7638Y15236
X7205Y15236
X6772Y15354
X10197Y16693
X9961Y17205
X10512Y17165
X10906Y12441
X8465Y10787
X8465Y10472
X8150Y10472
X8150Y10787
X7835Y10787
X7520Y10787
X6378Y8583
X6417Y8248
X7205Y7953
X7520Y7953
X7835Y7638
X7835Y7323
X7520Y7008
X7205Y7008
X6378Y7008
X6378Y7520
X7205Y6063
X7835Y6063
X8150Y6063
X8150Y5748
X8465Y5748
X8465Y5433
X8150Y5433
X8150Y5118
X8150Y4803
X8465Y4803
X8150Y4488
X8150Y4173
X8465Y4173
X8465Y3858
X8780Y3858
X8780Y3543
X8465Y3543
X8150Y3543
X8150Y3858
X7520Y3858
X7520Y3543
X7835Y3228
X7520Y4173
X7205Y4173
X7205Y4803
X7520Y4803
X7835Y4488
X6417Y4094
X6417Y3701
X6417Y3307
X6220Y2717
X5827Y2717
X5433Y2717
X5039Y2717
X5236Y3858
X4803Y4094
X5630Y4488
X4606Y5039
X4606Y5787
X3898Y6260
X3701Y6102
X3701Y5472
X3071Y4843
X2008Y5315
X2756Y6929
X2913Y7126
X3071Y6929
X3228Y7126
X3031Y7520
X2598Y7126
X3819Y7520
X4016Y7776
X4173Y8012
X4016Y8248
X4173Y8504
X4370Y9449
X4646Y9449
X4921Y9449
X4370Y9843
X4370Y10433
X4921Y10433
X3543Y10236
X3543Y9843
X2756Y9921
X2638Y10315
X2402Y10669
X2402Y11063
X2165Y11457
X1693Y11614
X1299Y11614
X787Y11890
X315Y11378
X551Y10512
X1102Y10709
X1102Y10315
X1496Y10315
X1496Y10709
X1969Y9921
X2717Y11535
X2717Y11929
X3071Y12283
X3071Y12992
X2835Y13268
X2677Y13622
X3071Y13740
X3071Y14055
X2323Y13071
X2047Y13071
X1850Y12717
X1378Y13386
X512Y13327
X197Y13661
X689Y13976
X197Y14331
X689Y14646
X197Y15000
X433Y15787
X276Y15945
X433Y16102
X276Y16260
X433Y16417
X197Y12992
X512Y12657
X197Y12323
X4094Y12047
X4173Y7500
X4016Y7244
X4173Y7008
X4567Y6614
X3307Y2205
X3307Y1969
X3307Y1732
X3307Y1417
X3307Y1181
X3307Y945
X8150Y1024
X8150Y709
X8780Y1024
X9094Y1024
X9094Y1339
X8780Y1339
X8465Y1339
X9409Y1339
X9409Y1024
X9724Y1024
X9724Y1339
X10039Y1339
X10354Y1339
X10669Y1339
X10354Y1024
X10039Y1024
X10354Y709
X10669Y709
X10669Y394
X10354Y394
X10984Y394
X12244Y394
X12559Y394
X9094Y394
X8780Y394
X17362Y12697
X38740Y5098
X39547Y4961
X39567Y4567
X39528Y3976
X40315Y3976
X40768Y3701
X40768Y2559
X39961Y2559
X39409Y1457
X39409Y1063
X39902Y1161
X40315Y394
X40787Y1083
X38504Y1063
X38504Y709
X40768Y5472
X40768Y6673
X39961Y6693
X40039Y7165
X39370Y7559
T02
X5526Y7506
X5526Y8006
X5526Y8506
X5026Y8506
X5026Y8006
X5026Y7506
X5026Y7006
X5526Y7006
T03
X5551Y5591
X16693Y15000
X24961Y7205
X28228Y1142
X34252Y14685
T04
X3898Y17815
T05
X30984Y17815
T06
X29961Y1280
X4921Y1280
T07
X1575Y1575
X1575Y18307
X33307Y9941
M30
